<svg width="89" height="80" viewBox="0 0 89 80" fill="none" xmlns="http://www.w3.org/2000/svg">
<path fill-rule="evenodd" clip-rule="evenodd" d="M24.0619 3.93432C24.4612 3.79318 24.8983 3.80211 25.2915 3.9595C25.6854 4.11715 26.0084 4.41296 26.2 4.79155L26.201 4.79369L26.201 4.79369C26.3464 5.08463 26.57 5.32932 26.8467 5.50034C27.1233 5.67136 27.4421 5.76195 27.7674 5.76195C28.0926 5.76195 28.4115 5.67136 28.6881 5.50034C28.9648 5.32932 29.1884 5.08463 29.3338 4.79369L29.3347 4.79188C29.5258 4.41333 29.8485 4.11747 30.2421 3.95974C30.6351 3.80229 31.0719 3.79326 31.471 3.93427C31.8633 4.06968 32.2471 4.22852 32.6203 4.40991L32.4087 4.84532L32.6201 4.4098C32.6202 4.40984 32.6202 4.40987 32.6203 4.40991C32.9985 4.59355 33.2979 4.90737 33.4635 5.29383C33.6292 5.68037 33.65 6.11368 33.522 6.51428L33.5209 6.51761L33.5198 6.52093C33.4163 6.82951 33.4009 7.16082 33.4752 7.47768C33.5496 7.79455 33.7107 8.08443 33.9407 8.31478C34.1706 8.54514 34.4602 8.70685 34.7769 8.78178C35.0936 8.85671 35.425 8.84188 35.7337 8.73896L35.7358 8.73829C36.138 8.60618 36.5745 8.62455 36.9643 8.78998C37.354 8.95541 37.6704 9.25666 37.8548 9.63778L37.8555 9.63916C38.0344 10.0121 38.1927 10.3946 38.3296 10.7849C38.3295 10.7847 38.3294 10.7844 38.3293 10.7841L37.8731 10.946L38.3299 10.7859C38.3298 10.7856 38.3297 10.7852 38.3296 10.7849C38.471 11.1839 38.4626 11.6206 38.3061 12.0139C38.1495 12.4075 37.8552 12.7307 37.478 12.9234L37.476 12.9244L37.4741 12.9253C37.1882 13.0682 36.9469 13.2866 36.7763 13.5569C36.6058 13.8271 36.5126 14.139 36.5068 14.4585C36.501 14.778 36.5828 15.0931 36.7434 15.3694C36.904 15.6457 37.1373 15.8727 37.4178 16.0258L37.9412 16.3114L37.5541 16.765C36.8147 17.6315 36.3269 18.6842 36.1438 19.8086L36.0611 20.3159L35.5597 20.203C35.2571 20.135 34.9419 20.1486 34.6464 20.2425C34.3509 20.3365 34.0857 20.5074 33.8781 20.7377C33.6704 20.968 33.5278 21.2494 33.4648 21.553C33.4018 21.8566 33.4208 22.1715 33.5197 22.4654L33.5206 22.4681L33.5214 22.4708C33.6514 22.8724 33.6316 23.3074 33.4659 23.6955C33.3001 24.0835 32.9997 24.3985 32.6199 24.5824C32.62 24.5823 32.6202 24.5822 32.6203 24.5822L32.4087 24.1468L32.6195 24.5825C32.6197 24.5825 32.6198 24.5824 32.6199 24.5824C32.2469 24.7636 31.8634 24.9223 31.4714 25.0577C31.4722 25.0574 31.4729 25.0571 31.4737 25.0568L31.3113 24.6008L31.4692 25.0584C31.4699 25.0582 31.4707 25.0579 31.4714 25.0577C31.0722 25.1992 30.6351 25.1904 30.2419 25.0329C29.848 24.875 29.5252 24.5787 29.3344 24.1997L29.3338 24.1984C29.1884 23.9074 28.9648 23.6628 28.6881 23.4917C28.4115 23.3207 28.0926 23.2301 27.7674 23.2301C27.4421 23.2301 27.1233 23.3207 26.8467 23.4917C26.57 23.6628 26.3464 23.9074 26.201 24.1984L26.2002 24.2C26.009 24.5791 25.686 24.8753 25.2917 25.0331C24.8983 25.1906 24.461 25.1993 24.0616 25.0576C24.0623 25.0579 24.063 25.0581 24.0637 25.0584L24.2218 24.6009L24.0593 25.0568C24.0601 25.0571 24.0608 25.0574 24.0616 25.0576C23.6699 24.9222 23.2868 24.7634 22.9142 24.582L23.1261 24.1468L22.9185 24.5841C22.5355 24.4023 22.2322 24.0867 22.0657 23.6969C21.8992 23.307 21.881 22.8698 22.0145 22.4674L22.015 22.4658C22.1124 22.1757 22.132 21.8652 22.0718 21.5653C22.0117 21.2653 21.874 20.9863 21.6723 20.7562C21.4707 20.5261 21.2123 20.3529 20.9228 20.2539C20.6333 20.1549 20.3229 20.1335 20.0226 20.1919L19.5349 20.2868L19.4528 19.7967C19.2639 18.6701 18.7721 17.6161 18.03 16.7477L17.6514 16.3047L18.1563 16.0137C18.4305 15.8558 18.6567 15.6265 18.811 15.3503C18.9652 15.0741 19.0418 14.7612 19.0325 14.445C19.0232 14.1288 18.9284 13.821 18.7582 13.5543C18.5879 13.2876 18.3486 13.072 18.0657 12.9305L18.0638 12.9295C17.6853 12.738 17.3894 12.4153 17.2314 12.0217C17.0736 11.6285 17.0641 11.1914 17.2047 10.7917C17.2045 10.7922 17.2044 10.7926 17.2042 10.793L17.6617 10.9513L17.2052 10.7903C17.205 10.7907 17.2048 10.7912 17.2047 10.7917C17.3403 10.3999 17.4989 10.0164 17.6799 9.6433C17.6797 9.64356 17.6796 9.64381 17.6795 9.64406L18.1158 9.85388L17.6802 9.64264C17.6801 9.64286 17.68 9.64308 17.6799 9.6433C17.8631 9.26266 18.1784 8.96155 18.5671 8.79598C18.9561 8.63031 19.392 8.61167 19.7937 8.74353L19.795 8.74396L19.7963 8.7444C20.1054 8.84783 20.4371 8.86306 20.7543 8.78838C21.0715 8.7137 21.3617 8.55206 21.5921 8.32163C21.8225 8.0912 21.9842 7.80109 22.0588 7.48388C22.1335 7.16668 22.1183 6.83493 22.0149 6.5259L22.0145 6.52466C21.881 6.1223 21.8992 5.68503 22.0657 5.29518C22.2319 4.90611 22.5343 4.59106 22.9162 4.40909C22.9155 4.40941 22.9149 4.40973 22.9142 4.41005L23.1261 4.84532L22.9185 4.408C22.9177 4.40836 22.9169 4.40872 22.9162 4.40909C23.2883 4.22806 23.6709 4.06952 24.0619 3.93432ZM24.0619 3.93432C24.0612 3.93456 24.0606 3.9348 24.0599 3.93504L24.2218 4.39123L24.0637 3.93371C24.0631 3.93391 24.0625 3.93411 24.0619 3.93432ZM24.9318 4.85839C24.7565 4.78823 24.5616 4.78436 24.3837 4.8475L24.3818 4.84818L24.3799 4.84883C24.0242 4.97172 23.6763 5.1159 23.338 5.28059L23.3359 5.28163L23.3337 5.28264C23.1642 5.36314 23.0299 5.50285 22.9561 5.67547C22.8825 5.84791 22.8744 6.0413 22.9333 6.2193C23.0936 6.69884 23.1172 7.21357 23.0013 7.70576C22.8854 8.19819 22.6344 8.64855 22.2767 9.00626C21.919 9.36398 21.4686 9.61489 20.9762 9.73082C20.4843 9.84663 19.9699 9.82317 19.4906 9.66307C19.3124 9.60487 19.1191 9.61327 18.9466 9.68676C18.7737 9.76039 18.6335 9.89435 18.552 10.0637L18.5514 10.0651C18.3868 10.4044 18.2425 10.7532 18.1192 11.1096L18.1187 11.111L18.1182 11.1124C18.0554 11.2906 18.0595 11.4856 18.1299 11.661C18.2002 11.8362 18.3317 11.9798 18.5 12.0651C18.9389 12.285 19.3101 12.6195 19.5743 13.0333C19.8386 13.4474 19.9858 13.9255 20.0003 14.4166C20.0147 14.9076 19.8958 15.3935 19.6563 15.8224C19.5077 16.0884 19.3162 16.3264 19.0906 16.5273C19.6768 17.3224 20.0948 18.2291 20.3187 19.1918C20.6295 19.1875 20.9399 19.2364 21.2362 19.3378C21.6859 19.4916 22.0873 19.7607 22.4006 20.1182C22.7138 20.4756 22.9278 20.909 23.0212 21.375C23.1145 21.8406 23.0842 22.3226 22.9332 22.7729C22.8744 22.9509 22.8825 23.1442 22.9561 23.3166C23.0299 23.4892 23.1642 23.6289 23.3337 23.7094L23.3359 23.7105L23.338 23.7115C23.6763 23.8762 24.0242 24.0204 24.3799 24.1432L24.3821 24.144L24.3842 24.1448C24.562 24.2081 24.7568 24.2043 24.932 24.1342C25.1069 24.0642 25.2504 23.9328 25.3354 23.7647C25.5612 23.3132 25.9082 22.9336 26.3376 22.6682C26.7672 22.4026 27.2623 22.2619 27.7674 22.2619C28.2725 22.2619 28.7676 22.4026 29.1972 22.6682C29.6267 22.9337 29.9738 23.3135 30.1996 23.7651C30.2844 23.933 30.4275 24.0642 30.602 24.1341C30.7769 24.2042 30.9714 24.208 31.1488 24.1448L31.1511 24.144L31.1534 24.1432C31.5096 24.0203 31.8582 23.8761 32.1971 23.7113L32.1979 23.711C32.3674 23.629 32.5015 23.4884 32.5755 23.3152C32.6491 23.1428 32.6581 22.9496 32.601 22.7711C32.4482 22.3153 32.4191 21.8271 32.5168 21.3563C32.6147 20.8845 32.8363 20.4472 33.159 20.0893C33.4817 19.7314 33.8938 19.4659 34.3531 19.3199C34.6531 19.2245 34.9661 19.1823 35.2782 19.1941C35.4978 18.2408 35.9094 17.3424 36.4874 16.5537C36.257 16.3562 36.0602 16.1206 35.9064 15.8559C35.6569 15.4267 35.5297 14.9373 35.5387 14.4409C35.5478 13.9445 35.6926 13.4601 35.9575 13.0402C36.2219 12.6211 36.596 12.2822 37.0391 12.0603C37.2064 11.9744 37.337 11.8307 37.4065 11.6559C37.4763 11.4806 37.48 11.2858 37.4169 11.108L37.4162 11.1062C37.2912 10.7494 37.1466 10.3998 36.983 10.059C36.9007 9.88917 36.7597 9.75496 36.5859 9.68122C36.4124 9.60754 36.218 9.59925 36.0387 9.65788C35.5596 9.81735 35.0455 9.84024 34.554 9.72398C34.0622 9.60763 33.6125 9.3565 33.2554 8.99877C32.8983 8.64105 32.6481 8.19089 32.5326 7.69882C32.4175 7.20808 32.441 6.69501 32.6006 6.21691C32.6567 6.03897 32.6471 5.84678 32.5736 5.67523C32.4997 5.50278 32.3661 5.36276 32.1973 5.28084L32.1971 5.28073C31.8582 5.11601 31.5096 4.97181 31.1534 4.84891L31.1514 4.84822L31.1494 4.84751C30.9717 4.78448 30.7772 4.78838 30.6023 4.85849C30.4276 4.92847 30.2844 5.0596 30.1994 5.2274C29.9736 5.67882 29.6266 6.0585 29.1972 6.32391C28.7676 6.58949 28.2725 6.73016 27.7674 6.73016C27.2623 6.73016 26.7672 6.58949 26.3376 6.32391C25.9083 6.05857 25.5614 5.67902 25.3356 5.22775C25.2503 5.05971 25.1067 4.92842 24.9318 4.85839ZM28.6706 9.83202C27.731 9.64975 26.7582 9.75566 25.8798 10.1359C25.0015 10.5161 24.2585 11.1528 23.7483 11.9627C23.2382 12.7724 22.9846 13.7173 23.0208 14.6736C23.0673 15.8592 23.5553 16.9846 24.3889 17.8289C25.2226 18.6731 26.3417 19.1753 27.5266 19.2368C28.4824 19.2851 29.4305 19.0434 30.2466 18.5436C31.0628 18.0437 31.7089 17.3088 32.1002 16.4353C32.4915 15.5618 32.6097 14.5904 32.4393 13.6486C32.2689 12.7067 31.8179 11.8384 31.1454 11.1573C30.4728 10.4762 29.6102 10.0143 28.6706 9.83202ZM25.4952 9.24733C26.5527 8.7896 27.7238 8.66209 28.855 8.88153C29.9862 9.10096 31.0247 9.65709 31.8343 10.477C32.6439 11.2969 33.1869 12.3423 33.392 13.4762C33.5972 14.6101 33.4549 15.7795 32.9838 16.8311C32.5128 17.8827 31.7349 18.7674 30.7523 19.3692C29.7697 19.9711 28.6281 20.2619 27.4773 20.2037L27.4767 20.2037C26.0505 20.1298 24.7034 19.5254 23.7 18.5092C22.6965 17.493 22.1092 16.1384 22.0533 14.7113L22.0533 14.7107C22.0096 13.5593 22.3149 12.4215 22.9291 11.4466C23.5433 10.4716 24.4378 9.70505 25.4952 9.24733Z" fill="#32FA87"/>
<path fill-rule="evenodd" clip-rule="evenodd" d="M58.1035 3.93432C58.5028 3.79318 58.9398 3.80211 59.3331 3.9595C59.727 4.11715 60.05 4.41296 60.2415 4.79155L60.2426 4.79369L60.2426 4.79369C60.388 5.08463 60.6116 5.32932 60.8882 5.50034C61.1649 5.67136 61.4837 5.76195 61.809 5.76195C62.1342 5.76195 62.453 5.67136 62.7297 5.50034C63.0064 5.32932 63.2299 5.08463 63.3753 4.79369L63.3762 4.79188C63.5674 4.41333 63.89 4.11747 64.2837 3.95974C64.6767 3.80229 65.1135 3.79326 65.5126 3.93427C65.9048 4.06968 66.2886 4.22852 66.6619 4.40991L66.4503 4.84532L66.6616 4.4098C66.6617 4.40984 66.6618 4.40987 66.6619 4.40991C67.0401 4.59355 67.3395 4.90737 67.5051 5.29383C67.6708 5.68037 67.6915 6.11368 67.5636 6.51428L67.5625 6.51761L67.5614 6.52093C67.4579 6.82951 67.4425 7.16082 67.5168 7.47768C67.5911 7.79455 67.7523 8.08443 67.9822 8.31478C68.2122 8.54514 68.5017 8.70685 68.8185 8.78178C69.1352 8.85671 69.4665 8.84188 69.7753 8.73896L69.7773 8.73829C70.1796 8.60618 70.6161 8.62455 71.0058 8.78998C71.3956 8.95541 71.712 9.25666 71.8964 9.63778L71.897 9.63916C72.076 10.0121 72.2343 10.3946 72.3712 10.7849C72.3711 10.7847 72.371 10.7844 72.3709 10.7841L71.9146 10.946L72.3715 10.7859C72.3714 10.7856 72.3713 10.7852 72.3712 10.7849C72.5125 11.1839 72.5042 11.6206 72.3477 12.0139C72.1911 12.4075 71.8967 12.7307 71.5195 12.9234L71.5176 12.9244L71.5157 12.9253C71.2298 13.0682 70.9884 13.2866 70.8179 13.5569C70.6474 13.8271 70.5542 14.139 70.5484 14.4585C70.5426 14.778 70.6244 15.0931 70.785 15.3694C70.9456 15.6457 71.1788 15.8727 71.4594 16.0258L71.9827 16.3114L71.5957 16.765C70.8562 17.6315 70.3684 18.6842 70.1853 19.8086L70.1027 20.3159L69.6012 20.203C69.2987 20.135 68.9835 20.1486 68.688 20.2425C68.3925 20.3365 68.1273 20.5074 67.9197 20.7377C67.712 20.968 67.5694 21.2494 67.5064 21.553C67.4434 21.8566 67.4623 22.1715 67.5612 22.4654L67.5621 22.4681L67.563 22.4708C67.6929 22.8724 67.6732 23.3074 67.5074 23.6955C67.3417 24.0835 67.0412 24.3985 66.6615 24.5824C66.6616 24.5823 66.6617 24.5822 66.6619 24.5822L66.4503 24.1468L66.6611 24.5825C66.6612 24.5825 66.6613 24.5824 66.6615 24.5824C66.2885 24.7636 65.905 24.9223 65.513 25.0577C65.5138 25.0574 65.5145 25.0571 65.5153 25.0568L65.3528 24.6008L65.5107 25.0584C65.5115 25.0582 65.5122 25.0579 65.513 25.0577C65.1138 25.1992 64.6767 25.1904 64.2835 25.0329C63.8895 24.875 63.5668 24.5787 63.376 24.1997L63.3753 24.1984C63.2299 23.9074 63.0064 23.6628 62.7297 23.4917C62.453 23.3207 62.1342 23.2301 61.809 23.2301C61.4837 23.2301 61.1649 23.3207 60.8882 23.4917C60.6116 23.6628 60.388 23.9074 60.2426 24.1984L60.2418 24.2C60.0506 24.5791 59.7275 24.8753 59.3333 25.0331C58.9399 25.1906 58.5025 25.1993 58.1032 25.0576C58.1038 25.0579 58.1045 25.0581 58.1052 25.0584L58.2633 24.6009L58.1009 25.0568C58.1016 25.0571 58.1024 25.0574 58.1032 25.0576C57.7115 24.9222 57.3284 24.7634 56.9558 24.582L57.1677 24.1468L56.96 24.5841C56.5771 24.4023 56.2738 24.0867 56.1073 23.6969C55.9408 23.307 55.9226 22.8698 56.056 22.4674L56.0566 22.4658C56.1539 22.1757 56.1735 21.8652 56.1134 21.5653C56.0533 21.2653 55.9155 20.9863 55.7139 20.7562C55.5123 20.5261 55.2538 20.3529 54.9644 20.2539C54.6749 20.1549 54.3645 20.1335 54.0642 20.1919L53.5765 20.2868L53.4943 19.7967C53.3055 18.6701 52.8137 17.6161 52.0715 16.7477L51.6929 16.3047L52.1979 16.0137C52.472 15.8558 52.6983 15.6265 52.8525 15.3503C53.0068 15.0741 53.0834 14.7612 53.0741 14.445C53.0648 14.1288 52.97 13.821 52.7997 13.5543C52.6295 13.2876 52.3902 13.072 52.1073 12.9305L52.1054 12.9295C51.7268 12.738 51.4309 12.4153 51.2729 12.0217C51.1151 11.6285 51.1057 11.1914 51.2462 10.7917C51.2461 10.7922 51.2459 10.7926 51.2458 10.793L51.7033 10.9513L51.2467 10.7903C51.2466 10.7907 51.2464 10.7912 51.2462 10.7917C51.3818 10.3999 51.5405 10.0164 51.7214 9.6433C51.7213 9.64356 51.7212 9.64381 51.721 9.64406L52.1573 9.85388L51.7217 9.64264C51.7216 9.64286 51.7215 9.64308 51.7214 9.6433C51.9047 9.26266 52.22 8.96155 52.6087 8.79598C52.9977 8.63031 53.4336 8.61167 53.8353 8.74353L53.8366 8.74396L53.8379 8.7444C54.1469 8.84783 54.4787 8.86306 54.7959 8.78838C55.1131 8.7137 55.4032 8.55206 55.6337 8.32163C55.8641 8.0912 56.0257 7.80109 56.1004 7.48388C56.1751 7.16668 56.1599 6.83493 56.0564 6.5259L56.056 6.52466C55.9226 6.1223 55.9408 5.68503 56.1073 5.29518C56.2735 4.90611 56.5759 4.59106 56.9577 4.40909C56.9571 4.40941 56.9564 4.40973 56.9558 4.41005L57.1677 4.84532L56.96 4.408C56.9593 4.40836 56.9585 4.40872 56.9577 4.40909C57.3298 4.22806 57.7124 4.06952 58.1035 3.93432ZM58.1035 3.93432C58.1028 3.93456 58.1021 3.9348 58.1014 3.93504L58.2633 4.39123L58.1052 3.93371C58.1047 3.93391 58.1041 3.93411 58.1035 3.93432ZM58.9733 4.85839C58.798 4.78823 58.6032 4.78436 58.4252 4.8475L58.4233 4.84818L58.4214 4.84883C58.0658 4.97172 57.7179 5.1159 57.3795 5.28059L57.3774 5.28163L57.3753 5.28264C57.2057 5.36314 57.0714 5.50285 56.9977 5.67547C56.9241 5.84791 56.9159 6.0413 56.9748 6.2193C57.1352 6.69884 57.1587 7.21357 57.0429 7.70576C56.9269 8.19819 56.676 8.64855 56.3183 9.00626C55.9606 9.36398 55.5102 9.61489 55.0178 9.73082C54.5259 9.84663 54.0115 9.82317 53.5322 9.66307C53.3539 9.60487 53.1606 9.61327 52.9881 9.68676C52.8153 9.76039 52.675 9.89435 52.5936 10.0637L52.5929 10.0651C52.4284 10.4044 52.2841 10.7532 52.1608 11.1096L52.1603 11.111L52.1598 11.1124C52.0969 11.2906 52.1011 11.4856 52.1715 11.661C52.2418 11.8362 52.3733 11.9798 52.5416 12.0651C52.9805 12.285 53.3517 12.6195 53.6158 13.0333C53.8802 13.4474 54.0274 13.9255 54.0419 14.4166C54.0563 14.9076 53.9374 15.3935 53.6978 15.8224C53.5493 16.0884 53.3577 16.3264 53.1321 16.5273C53.7183 17.3224 54.1364 18.2291 54.3603 19.1918C54.671 19.1875 54.9814 19.2364 55.2777 19.3378C55.7274 19.4916 56.1289 19.7607 56.4421 20.1182C56.7553 20.4756 56.9693 20.909 57.0627 21.375C57.1561 21.8406 57.1257 22.3226 56.9748 22.7729C56.9159 22.9509 56.9241 23.1442 56.9977 23.3166C57.0714 23.4892 57.2057 23.6289 57.3753 23.7094L57.3774 23.7105L57.3795 23.7115C57.7179 23.8762 58.0658 24.0204 58.4214 24.1432L58.4236 24.144L58.4258 24.1448C58.6036 24.2081 58.7983 24.2043 58.9735 24.1342C59.1485 24.0642 59.2919 23.9328 59.377 23.7647C59.6028 23.3132 59.9498 22.9336 60.3791 22.6682C60.8088 22.4026 61.3039 22.2619 61.809 22.2619C62.3141 22.2619 62.8092 22.4026 63.2388 22.6682C63.6683 22.9337 64.0154 23.3135 64.2412 23.7651C64.326 23.933 64.469 24.0642 64.6436 24.1341C64.8185 24.2042 65.0129 24.208 65.1904 24.1448L65.1927 24.144L65.195 24.1432C65.5512 24.0203 65.8997 23.8761 66.2387 23.7113L66.2394 23.711C66.4089 23.629 66.5431 23.4884 66.617 23.3152C66.6907 23.1428 66.6997 22.9496 66.6425 22.7711C66.4898 22.3153 66.4607 21.8271 66.5583 21.3563C66.6562 20.8845 66.8779 20.4472 67.2006 20.0893C67.5233 19.7314 67.9354 19.4659 68.3946 19.3199C68.6946 19.2245 69.0077 19.1823 69.3198 19.1941C69.5394 18.2408 69.9509 17.3424 70.529 16.5537C70.2985 16.3562 70.1018 16.1206 69.9479 15.8559C69.6984 15.4267 69.5713 14.9373 69.5803 14.4409C69.5893 13.9445 69.7341 13.4601 69.999 13.0402C70.2635 12.6211 70.6376 12.2822 71.0807 12.0603C71.248 11.9744 71.3785 11.8307 71.4481 11.6559C71.5179 11.4806 71.5215 11.2858 71.4584 11.108L71.4578 11.1062C71.3327 10.7494 71.1881 10.3998 71.0246 10.059C70.9423 9.88917 70.8012 9.75496 70.6275 9.68122C70.4539 9.60754 70.2595 9.59925 70.0803 9.65788C69.6011 9.81735 69.087 9.84024 68.5956 9.72398C68.1037 9.60763 67.654 9.3565 67.297 8.99877C66.9399 8.64105 66.6896 8.19089 66.5742 7.69882C66.459 7.20808 66.4826 6.69501 66.6421 6.21691C66.6982 6.03897 66.6887 5.84678 66.6152 5.67523C66.5413 5.50278 66.4077 5.36276 66.2389 5.28084L66.2387 5.28073C65.8997 5.11601 65.5512 4.97181 65.195 4.84891L65.1929 4.84822L65.191 4.84751C65.0133 4.78448 64.8188 4.78838 64.6438 4.85849C64.4692 4.92847 64.326 5.0596 64.241 5.2274C64.0151 5.67882 63.6682 6.0585 63.2388 6.32391C62.8092 6.58949 62.314 6.73016 61.809 6.73016C61.3039 6.73016 60.8088 6.58949 60.3791 6.32391C59.9499 6.05857 59.603 5.67902 59.3771 5.22775C59.2918 5.05971 59.1483 4.92842 58.9733 4.85839ZM62.7122 9.83202C61.7726 9.64975 60.7998 9.75566 59.9214 10.1359C59.043 10.5161 58.3 11.1528 57.7898 11.9627C57.2797 12.7724 57.0262 13.7173 57.0624 14.6736C57.1089 15.8592 57.5968 16.9846 58.4305 17.8289C59.2642 18.6731 60.3833 19.1753 61.5682 19.2368C62.524 19.2851 63.4721 19.0434 64.2882 18.5436C65.1044 18.0437 65.7505 17.3088 66.1418 16.4353C66.533 15.5618 66.6512 14.5904 66.4808 13.6486C66.3104 12.7067 65.8594 11.8384 65.1869 11.1573C64.5144 10.4762 63.6518 10.0143 62.7122 9.83202ZM59.5368 9.24733C60.5943 8.7896 61.7654 8.66209 62.8966 8.88153C64.0278 9.10096 65.0662 9.65709 65.8759 10.477C66.6855 11.2969 67.2285 12.3423 67.4336 13.4762C67.6387 14.6101 67.4964 15.7795 67.0254 16.8311C66.5543 17.8827 65.7765 18.7674 64.7939 19.3692C63.8113 19.9711 62.6697 20.2619 61.5189 20.2037L61.5183 20.2037C60.0921 20.1298 58.745 19.5254 57.7416 18.5092C56.7381 17.493 56.1508 16.1384 56.0949 14.7113L56.0949 14.7107C56.0512 13.5593 56.3564 12.4215 56.9706 11.4466C57.5848 10.4716 58.4793 9.70505 59.5368 9.24733Z" fill="#32FA87"/>
<path fill-rule="evenodd" clip-rule="evenodd" d="M75.9909 14.0033L75.9926 14.0033L81.8041 14.0033C83.6101 14.0098 85.3402 14.7303 86.6169 16.0077C87.8935 17.2851 88.6131 19.0156 88.6186 20.8216L88.6186 20.823L88.6186 27.1517C88.6186 27.419 88.4019 27.6358 88.1345 27.6358H69.6604C69.3931 27.6358 69.1763 27.419 69.1763 27.1517V20.8195L69.1763 20.8178C69.1828 19.0125 69.9028 17.2829 71.1794 16.0064C72.456 14.7298 74.1855 14.0098 75.9909 14.0033ZM75.9935 14.9715C74.444 14.9773 72.9597 15.5953 71.864 16.691C70.7684 17.7866 70.1503 19.271 70.1445 20.8204V26.6676H87.6504V20.8236C87.6455 19.2736 87.0278 17.7885 85.932 16.6921C84.8363 15.5958 83.3515 14.9773 81.8015 14.9715H75.9935Z" fill="white"/>
<path fill-rule="evenodd" clip-rule="evenodd" d="M73.0662 5.83587C73.0662 0.655653 79.357 -1.95184 83.021 1.71216L83.021 1.71222C84.1145 2.80602 84.7287 4.28929 84.7287 5.83587C84.7287 7.38246 84.1145 8.86573 83.021 9.95953C79.3568 13.6257 73.0662 11.0158 73.0662 5.83587ZM82.3364 2.39679C79.2825 -0.657025 74.0344 1.51789 74.0344 5.83587C74.0344 10.1542 79.2827 12.3302 82.3363 9.27505L82.3363 9.27502C83.2482 8.36279 83.7605 7.12573 83.7605 5.83587C83.7605 4.54604 83.2482 3.30902 82.3364 2.39679Z" fill="white"/>
<path fill-rule="evenodd" clip-rule="evenodd" d="M7.87801 14.0033L7.87974 14.0033L13.6969 14.0033C15.5019 14.0113 17.2306 14.7325 18.506 16.0097C19.7815 17.2869 20.5003 19.0166 20.5057 20.8216L20.5058 20.823L20.5057 27.1517C20.5057 27.419 20.289 27.6358 20.0216 27.6358H1.54758C1.28022 27.6358 1.06348 27.419 1.06348 27.1517V20.8195L1.06348 20.8178C1.06994 19.0125 1.78998 17.2829 3.06655 16.0064C4.34312 14.7298 6.07267 14.0098 7.87801 14.0033ZM7.88063 14.9715C6.33118 14.9773 4.84683 15.5953 3.75118 16.691C2.65553 17.7866 2.03746 19.271 2.03169 20.8204V26.6676H19.5375V20.8236C19.5326 19.2744 18.9156 17.79 17.8209 16.6938C16.7263 15.5977 15.2427 14.9786 13.6937 14.9715H7.88063Z" fill="white"/>
<path fill-rule="evenodd" clip-rule="evenodd" d="M4.95386 5.83589C4.95386 0.654896 11.2431 -1.95096 14.9135 1.71182L14.9139 1.71224C16.0073 2.80604 16.6216 4.28931 16.6216 5.83589C16.6216 7.38248 16.0073 8.86575 14.9139 9.95954L14.9137 9.95978C11.2447 13.6249 4.95386 11.0165 4.95386 5.83589ZM14.2292 2.39675C11.1677 -0.657662 5.92207 1.51888 5.92207 5.83589C5.92207 10.1534 11.1698 12.3308 14.2292 9.27504C15.1411 8.36281 15.6534 7.12575 15.6534 5.83589C15.6534 4.54603 15.1411 3.30898 14.2292 2.39675Z" fill="white"/>
<path fill-rule="evenodd" clip-rule="evenodd" d="M41.9176 14.0033L41.9194 14.0033L47.7221 14.0033C49.5281 14.0098 51.2582 14.7303 52.5349 16.0077C53.8115 17.2851 54.5311 19.0156 54.5366 20.8216L54.5366 20.823L54.5366 27.1517C54.5366 27.419 54.3199 27.6358 54.0525 27.6358H35.5872C35.3198 27.6358 35.1031 27.419 35.1031 27.1517V20.8195L35.1031 20.8178C35.1096 19.0125 35.8296 17.2829 37.1062 16.0064C38.3827 14.7298 40.1123 14.0098 41.9176 14.0033ZM41.9202 14.9715C40.3708 14.9773 38.8864 15.5953 37.7908 16.691C36.6951 17.7866 36.0771 19.271 36.0713 20.8204V26.6676H53.5684V20.8236C53.5634 19.2736 52.9457 17.7885 51.85 16.6921C50.7543 15.5958 49.2694 14.9773 47.7194 14.9715H41.9202Z" fill="white"/>
<path fill-rule="evenodd" clip-rule="evenodd" d="M38.9813 5.83583C38.9813 0.65524 45.2739 -1.95154 48.9394 1.71203C48.9481 1.72071 48.9564 1.72966 48.9643 1.73887C50.0412 2.83004 50.6455 4.30179 50.6455 5.83583C50.6455 7.38242 50.0312 8.86569 48.9378 9.95948C45.2737 13.6255 38.9813 11.0159 38.9813 5.83583ZM48.2306 2.37261C45.1713 -0.645836 39.9495 1.52969 39.9495 5.83583C39.9495 10.154 45.1994 12.3303 48.2531 9.275L48.2531 9.27497C49.165 8.36274 49.6773 7.12569 49.6773 5.83583C49.6773 4.54597 49.165 3.30892 48.2531 2.39669C48.2453 2.38888 48.2378 2.38085 48.2306 2.37261Z" fill="white"/>
<path d="M15.3338 62.6866C12.5043 62.6866 9.92262 62.1209 7.58868 60.9896C5.27221 59.8744 3.33475 58.1028 2.01736 55.8951C0.63826 53.6336 -0.0337578 50.8223 0.00130395 47.461C0.0363657 44.1723 0.737601 41.3515 2.10501 38.9989C3.39804 36.7117 5.31925 34.8428 7.64127 33.6134C9.97872 32.3758 12.5961 31.7569 15.4934 31.7569C18.4982 31.7569 21.0267 32.2963 23.079 33.375C25.1313 34.4538 26.7318 35.8714 27.8807 37.628C29.0116 39.3315 29.7626 41.2586 30.0826 43.2782H22.4426C22.265 41.9353 21.7612 40.9448 20.9314 40.3067C20.1223 39.6803 19.177 39.2533 18.1721 39.0603C17.2902 38.8802 16.3934 38.7828 15.4934 38.7693C12.734 38.7693 10.6823 39.4851 9.33826 40.9168C7.99422 42.3485 7.32221 44.3382 7.32221 46.886C7.32221 49.6804 7.97669 51.8554 9.28567 53.411C10.5946 54.9666 12.6487 55.742 15.4478 55.7373C16.377 55.7211 17.3017 55.6036 18.2054 55.3867C19.2354 55.1561 20.1924 54.6743 20.991 53.9843C21.822 53.283 22.3257 52.2218 22.5022 50.8007H30.1965C29.8432 52.8894 29.0677 54.8841 27.9175 56.663C26.712 58.5245 25.0379 60.0361 23.0632 61.0457C20.9875 62.1466 18.4111 62.6936 15.3338 62.6866Z" fill="white"/>
<path d="M35.7589 62.1571V32.2881H58.3597V38.5992H43.0272V44.0635H54.4328V50.0047H43.0272V56.265H58.9435V62.1553L35.7589 62.1571Z" fill="white"/>
<path d="M72.5246 62.1571H65.0967V32.2881H72.5246V62.1571ZM71.5166 32.2881H77.7225C81.1188 32.2881 83.7981 33.1646 85.7604 34.9177C87.7227 36.6708 88.7044 39.2969 88.7056 42.796C88.7056 45.7658 87.6976 48.109 85.6815 49.8259C83.6655 51.5427 81.0125 52.4 77.7225 52.3977H71.5691V47.1963H76.6093C78.0947 47.1963 79.3681 46.8159 80.4293 46.055C81.4905 45.2942 82.0205 44.171 82.0193 42.6856C82.0193 41.1663 81.4981 40.0437 80.4556 39.3179C79.4131 38.5921 78.131 38.2293 76.6093 38.2293H71.5166V32.2881Z" fill="white"/>
<path d="M2.63793 73.0527C2.20785 73.0582 1.78275 72.9602 1.3985 72.767C1.02898 72.5744 0.724177 72.2775 0.521951 71.9132C0.292047 71.4793 0.179635 70.9928 0.195876 70.502C0.186972 70.0149 0.29837 69.5332 0.520198 69.0995C0.717709 68.7259 1.02315 68.4205 1.39674 68.223C1.79116 68.0222 2.22873 67.9211 2.67124 67.9284C3.05705 67.9189 3.43984 67.9987 3.78971 68.1616C4.09626 68.3096 4.36086 68.5319 4.55932 68.8085C4.76067 69.0969 4.89431 69.4271 4.95025 69.7744H4.19467C4.16278 69.5248 4.05927 69.2898 3.89665 69.0978C3.74752 68.9301 3.55804 68.8034 3.34618 68.7296C3.13024 68.6521 2.90242 68.6129 2.67299 68.6139C2.11668 68.6139 1.686 68.774 1.38096 69.0942C1.07593 69.4145 0.923409 69.8703 0.923409 70.4617C0.923409 71.0822 1.07301 71.5556 1.3722 71.8816C1.67198 72.2077 2.09623 72.369 2.6467 72.369C2.89116 72.3718 3.1341 72.3303 3.36371 72.2463C3.57929 72.1679 3.77163 72.0365 3.92294 71.8641C4.08634 71.6718 4.19209 71.4372 4.22798 71.1874H4.99233C4.93441 71.5383 4.79906 71.8719 4.59613 72.1639C4.39696 72.4483 4.12679 72.6755 3.8125 72.8231C3.44368 72.9884 3.04186 73.067 2.63793 73.0527Z" fill="white"/>
<path d="M8.14421 73.0875C7.35181 73.0875 6.74817 72.8538 6.33327 72.3863C5.91837 71.9188 5.70976 71.29 5.70742 70.5C5.69813 70.0331 5.79149 69.5699 5.9809 69.1431C6.15193 68.7676 6.43481 68.4541 6.79083 68.2455C7.20653 68.0181 7.67596 67.9073 8.14947 67.9247C8.93953 67.9247 9.54201 68.1584 9.95691 68.6259C10.3718 69.0934 10.5787 69.7193 10.5775 70.5035C10.5867 70.9684 10.4921 71.4296 10.3005 71.8534C10.126 72.2304 9.84273 72.5467 9.48708 72.7615C9.07826 72.9923 8.61338 73.1052 8.14421 73.0875ZM8.14421 72.3863C8.47868 72.3983 8.80961 72.3144 9.09789 72.1444C9.3499 71.9831 9.5468 71.7489 9.66239 71.4729C9.79312 71.1661 9.85764 70.8352 9.85172 70.5017C9.86084 70.1665 9.80118 69.833 9.67641 69.5218C9.56116 69.245 9.36265 69.011 9.10841 68.8521C8.81733 68.6811 8.48331 68.5971 8.14596 68.6102C7.58264 68.6102 7.15605 68.7802 6.86621 69.1203C6.55842 69.5127 6.4039 70.0037 6.43144 70.5017C6.42328 70.8312 6.48295 71.1588 6.60675 71.4642C6.72287 71.7413 6.9211 71.9762 7.17475 72.1374C7.46416 72.3114 7.798 72.3973 8.13545 72.3845L8.14421 72.3863Z" fill="white"/>
<path d="M15.1093 68.0124H15.8579V72.9649H14.4765L12.392 68.3385H12.3745V72.9649H11.6277V68.0124H12.9197L15.097 72.6388H15.1146L15.1093 68.0124Z" fill="white"/>
<path d="M19.1906 73.0701C18.7538 73.0806 18.3218 72.9773 17.9371 72.7703C17.5806 72.5681 17.2939 72.2624 17.1149 71.8938C16.9105 71.4598 16.8143 70.9828 16.8344 70.5036C16.8312 70.0171 16.9423 69.5368 17.1587 69.1011C17.3514 68.7275 17.6535 68.4217 18.0248 68.2246C18.4226 68.0189 18.8655 67.9159 19.3133 67.9248C19.9654 67.9248 20.4773 68.0703 20.8525 68.3596C21.2442 68.6789 21.5045 69.1314 21.5835 69.6305L20.8823 69.727C20.8379 69.4856 20.7288 69.2608 20.5667 69.0766C20.4149 68.9162 20.2258 68.7957 20.0163 68.726C19.7903 68.6503 19.5533 68.6129 19.315 68.6155C18.7242 68.6155 18.2807 68.7908 17.9879 69.1222C17.6792 69.5021 17.5224 69.9831 17.5479 70.472C17.5479 71.0751 17.7074 71.5426 18.0265 71.8745C18.3473 72.2058 18.7961 72.3706 19.3764 72.3706C19.6266 72.3739 19.8749 72.328 20.1074 72.2356C20.3266 72.1468 20.52 72.0046 20.6702 71.8219C20.8288 71.623 20.929 71.3838 20.9594 71.1312H19.7323V70.5772H21.6764V72.9702H21.1751L21.0085 71.9937H20.991C20.9402 72.1186 20.8736 72.2364 20.7929 72.3443C20.6946 72.4784 20.5764 72.5967 20.4423 72.6949C20.2821 72.8114 20.1047 72.9019 19.9163 72.9632C19.6819 73.0384 19.4367 73.0745 19.1906 73.0701Z" fill="white"/>
<path d="M22.8318 72.9649V68.0125H24.5638C24.9276 68.005 25.2907 68.0493 25.642 68.144C25.9112 68.2153 26.1503 68.3715 26.3239 68.5892C26.4948 68.8413 26.578 69.1425 26.5606 69.4465C26.5649 69.6785 26.5213 69.9088 26.4326 70.1232C26.3544 70.3145 26.2214 70.4785 26.0505 70.5948C25.862 70.7157 25.6414 70.7768 25.4176 70.7701C25.576 70.7612 25.7334 70.7996 25.8699 70.8805C25.977 70.952 26.0611 71.0531 26.1118 71.1715C26.1658 71.2929 26.2013 71.4218 26.217 71.5537C26.2363 71.6887 26.2486 71.8202 26.2573 71.9499C26.2633 72.0628 26.2827 72.1746 26.3152 72.283C26.3253 72.3246 26.3443 72.3636 26.3709 72.3972C26.3976 72.4308 26.4312 72.4582 26.4694 72.4776C26.5757 72.5111 26.6909 72.5017 26.7903 72.4513V72.8896C26.6991 72.9651 26.5897 73.0153 26.473 73.0351C26.3426 73.0613 26.2076 73.0522 26.082 73.0088C25.9428 72.9588 25.8247 72.863 25.7472 72.737C25.6447 72.5533 25.5973 72.3439 25.6104 72.134C25.6131 71.9284 25.6031 71.723 25.5806 71.5186C25.5699 71.3813 25.5227 71.2494 25.4439 71.1365C25.3595 71.0358 25.2453 70.9646 25.1178 70.9331C24.9243 70.8835 24.725 70.8599 24.5253 70.863C24.2763 70.863 23.9573 70.863 23.5698 70.877V72.9702L22.8318 72.9649ZM23.5698 70.3265H24.5901C24.838 70.3308 25.0857 70.3114 25.3299 70.2687C25.4988 70.2441 25.6531 70.1594 25.7647 70.0303C25.871 69.8763 25.9223 69.691 25.9102 69.5043C25.9271 69.4036 25.9221 69.3005 25.8956 69.2018C25.8692 69.1032 25.8219 69.0114 25.7569 68.9326C25.6919 68.8539 25.6108 68.79 25.519 68.7452C25.4272 68.7005 25.3268 68.676 25.2248 68.6734C24.9504 68.6381 24.6739 68.6217 24.3973 68.6243H23.5698V70.3265Z" fill="white"/>
<path d="M27.8367 72.9649V68.0124H31.2657V68.6453H28.5572V70.1494H30.6609V70.7612H28.5572V72.3706H31.3534V72.9701L27.8367 72.9649Z" fill="white"/>
<path d="M34.327 73.0699C34.0634 73.0702 33.8008 73.0378 33.5452 72.9735C33.301 72.9124 33.0688 72.8111 32.8579 72.6737C32.6546 72.5397 32.4858 72.3595 32.3653 72.1478C32.2365 71.9119 32.1702 71.647 32.1725 71.3782H32.9105C32.9105 71.3957 32.9105 71.4413 32.9281 71.5184C32.946 71.6102 32.9773 71.6988 33.021 71.7814C33.0788 71.8918 33.1567 71.9905 33.2506 72.0724C33.3761 72.179 33.5224 72.2584 33.6801 72.3056C33.9076 72.3732 34.1442 72.4045 34.3814 72.3985C34.5657 72.4028 34.7497 72.3786 34.9266 72.3266C35.0551 72.2905 35.1745 72.2278 35.2772 72.1425C35.3563 72.0779 35.4209 71.9973 35.4665 71.9059C35.5003 71.8369 35.5194 71.7617 35.5226 71.685C35.5254 71.6035 35.5112 71.5224 35.481 71.4466C35.4508 71.3709 35.4053 71.3022 35.3473 71.245C35.214 71.1236 35.0562 71.0321 34.8845 70.9767C34.6917 70.9101 34.4795 70.8488 34.2464 70.7927C34.0132 70.7366 33.7853 70.6752 33.5574 70.6086C33.3378 70.5443 33.1266 70.4542 32.9281 70.3404C32.7452 70.2354 32.5924 70.0851 32.4845 69.9039C32.3712 69.6923 32.3219 69.4523 32.3425 69.2131C32.3537 68.954 32.4533 68.7065 32.6248 68.5119C32.8156 68.3051 33.0574 68.1522 33.326 68.0684C33.6533 67.9602 33.9964 67.9081 34.3411 67.9141C34.6681 67.9104 34.9925 67.973 35.2947 68.0982C35.5742 68.2145 35.8166 68.4049 35.996 68.6487C36.1828 68.9205 36.2741 69.2467 36.2554 69.576H35.5419C35.5563 69.4017 35.5132 69.2275 35.4192 69.0799C35.3331 68.9548 35.2167 68.8535 35.0809 68.7854C34.9467 68.7164 34.8032 68.6674 34.6549 68.6399C34.5242 68.6149 34.3917 68.6014 34.2587 68.5996C33.977 68.5879 33.6971 68.6483 33.4452 68.7749C33.3488 68.8206 33.2669 68.8921 33.2088 68.9816C33.1506 69.071 33.1183 69.1748 33.1156 69.2815C33.1095 69.3644 33.122 69.4476 33.1523 69.525C33.1827 69.6024 33.2301 69.672 33.291 69.7285C33.425 69.8501 33.5842 69.9405 33.7573 69.9933C33.968 70.0627 34.1821 70.1213 34.3989 70.1686C34.6338 70.2212 34.8652 70.2808 35.1001 70.3439C35.3199 70.4037 35.5314 70.4909 35.7295 70.6033C35.9148 70.7061 36.0697 70.8561 36.1783 71.0381C36.2933 71.253 36.3438 71.4965 36.3238 71.7393C36.3173 71.9994 36.217 72.2485 36.0416 72.4406C35.8478 72.6449 35.6071 72.799 35.3403 72.8894C35.0157 73.0083 34.6728 73.0694 34.327 73.0699Z" fill="white"/>
<path d="M39.3407 73.0699C39.0765 73.0701 38.8133 73.0377 38.5571 72.9735C38.3135 72.9124 38.0818 72.8111 37.8716 72.6737C37.6678 72.5402 37.4989 72.3599 37.379 72.1478C37.2506 71.9117 37.1837 71.647 37.1844 71.3782H37.9242C37.9274 71.4252 37.9332 71.4721 37.9417 71.5184C37.9588 71.6104 37.9902 71.6991 38.0346 71.7814C38.0917 71.8918 38.169 71.9905 38.2625 72.0724C38.3887 72.179 38.5355 72.2583 38.6938 72.3056C38.9212 72.3734 39.1579 72.4048 39.395 72.3985C39.5794 72.4026 39.7633 72.3783 39.9402 72.3266C40.0687 72.2903 40.1881 72.2276 40.2909 72.1425C40.3705 72.0784 40.4351 71.9976 40.4802 71.9059C40.5154 71.8374 40.5352 71.762 40.5381 71.685C40.5408 71.6035 40.5266 71.5224 40.4964 71.4466C40.4663 71.3709 40.4207 71.3022 40.3627 71.245C40.23 71.1236 40.0728 71.0321 39.9017 70.9767C39.7071 70.9101 39.495 70.8488 39.2636 70.7927C39.0321 70.7366 38.8025 70.6752 38.5728 70.6086C38.3533 70.5439 38.1421 70.4539 37.9435 70.3404C37.745 70.2319 37.5834 70.0667 37.4794 69.8659C37.3754 69.6651 37.3338 69.4378 37.3597 69.2131C37.3702 68.9542 37.4692 68.7067 37.6402 68.5119C37.831 68.3051 38.0728 68.1522 38.3414 68.0684C38.6693 67.9602 39.013 67.9081 39.3582 67.9141C39.6853 67.9106 40.0096 67.9732 40.3119 68.0982C40.5915 68.2143 40.834 68.4047 41.0131 68.6487C41.2007 68.9201 41.2921 69.2466 41.2726 69.576H40.5608C40.5743 69.4018 40.5313 69.2278 40.4381 69.0799C40.3516 68.9551 40.2353 68.8539 40.0998 68.7854C39.9651 68.7162 39.821 68.6672 39.672 68.6399C39.5414 68.6148 39.4088 68.6013 39.2758 68.5996C38.9942 68.5879 38.7142 68.6483 38.4624 68.7749C38.3662 68.8209 38.2846 68.8925 38.2264 68.9819C38.1683 69.0713 38.1359 69.1749 38.1328 69.2815C38.1271 69.3644 38.1399 69.4474 38.1702 69.5247C38.2005 69.602 38.2476 69.6717 38.3081 69.7285C38.4417 69.8507 38.6011 69.9411 38.7744 69.9933C38.9852 70.0627 39.1993 70.1213 39.4161 70.1686C39.6492 70.2212 39.8824 70.2808 40.1173 70.3439C40.3371 70.4037 40.5485 70.4909 40.7467 70.6033C40.9316 70.7067 41.0863 70.8565 41.1955 71.0381C41.3106 71.2529 41.3606 71.4966 41.3392 71.7393C41.3333 71.9992 41.2337 72.2483 41.0587 72.4406C40.8649 72.6449 40.6242 72.799 40.3575 72.8894C40.0317 73.0086 39.6876 73.0697 39.3407 73.0699Z" fill="white"/>
<path d="M44.5647 73.0874C43.7723 73.0874 43.1681 72.8537 42.752 72.3862C42.336 71.9187 42.1279 71.29 42.1279 70.4999C42.1167 70.0328 42.2083 69.569 42.3962 69.1413C42.5672 68.7658 42.8501 68.4523 43.2061 68.2437C43.6218 68.0163 44.0912 67.9054 44.5647 67.9229C45.356 67.9229 45.9584 68.1566 46.3722 68.6241C46.7859 69.0916 46.9922 69.7174 46.991 70.5017C47.0011 70.9667 46.9065 71.4281 46.714 71.8515C46.5404 72.2296 46.2569 72.5466 45.9006 72.7614C45.4939 72.9912 45.0316 73.1041 44.5647 73.0874ZM44.5647 72.3862C44.8992 72.3983 45.2301 72.3143 45.5184 72.1443C45.7723 71.9841 45.9716 71.7505 46.0899 71.4746C46.2207 71.1678 46.2852 70.8369 46.2792 70.5034C46.286 70.1674 46.2228 69.8336 46.0934 69.5234C45.9782 69.2472 45.7804 69.0133 45.5272 68.8538C45.2359 68.6832 44.902 68.5993 44.5647 68.6118C44.0002 68.6118 43.5736 68.7819 43.285 69.122C42.9766 69.5142 42.8214 70.0052 42.8484 70.5034C42.8428 70.8337 42.906 71.1615 43.0343 71.4658C43.1503 71.7425 43.3478 71.9773 43.6005 72.139C43.8869 72.3093 44.2159 72.3944 44.5489 72.3845L44.5647 72.3862Z" fill="white"/>
<path d="M50.315 72.9649V68.0124H53.7458V68.6453H51.0355V70.1494H53.1392V70.7612H51.0355V72.3706H53.8405V72.9701L50.315 72.9649Z" fill="white"/>
<path d="M56.8065 73.0699C56.5423 73.0701 56.2792 73.0377 56.0229 72.9735C55.7795 72.912 55.5478 72.8107 55.3374 72.6737C55.1337 72.5402 54.9648 72.3599 54.8448 72.1478C54.716 71.9119 54.6497 71.647 54.652 71.3782H55.39C55.3932 71.4252 55.3991 71.4721 55.4076 71.5184C55.4247 71.6104 55.456 71.6991 55.5005 71.7814C55.5582 71.8914 55.6354 71.99 55.7284 72.0724C55.8548 72.1786 56.0015 72.258 56.1596 72.3056C56.387 72.3733 56.6237 72.4046 56.8609 72.3985C57.0452 72.4027 57.2291 72.3784 57.4061 72.3266C57.5345 72.2905 57.654 72.2278 57.7567 72.1425C57.8358 72.0779 57.9004 71.9973 57.946 71.9059C57.9798 71.8369 57.9989 71.7617 58.0021 71.685C58.0052 71.6035 57.9911 71.5222 57.961 71.4465C57.9308 71.3707 57.8851 71.3021 57.8268 71.245C57.6941 71.1236 57.5369 71.0321 57.3658 70.9767C57.1729 70.9101 56.959 70.8488 56.7276 70.7927C56.4962 70.7366 56.2666 70.6752 56.0369 70.6086C55.8179 70.5443 55.6072 70.4542 55.4093 70.3404C55.2102 70.2325 55.048 70.0675 54.9436 69.8666C54.8393 69.6656 54.7975 69.438 54.8238 69.2131C54.8349 68.954 54.9345 68.7065 55.106 68.5119C55.297 68.3053 55.5388 68.1524 55.8073 68.0684C56.1351 67.9602 56.4789 67.9081 56.8241 67.9141C57.1511 67.9104 57.4755 67.973 57.7777 68.0982C58.0572 68.2145 58.2996 68.4048 58.479 68.6487C58.6718 68.9221 58.7669 69.2525 58.7489 69.5865H58.0354C58.0498 69.4122 58.0067 69.238 57.9127 69.0904C57.8262 68.9657 57.7099 68.8644 57.5744 68.7959C57.4402 68.727 57.2967 68.6779 57.1484 68.6504C57.0177 68.6254 56.8852 68.6119 56.7522 68.6101C56.4705 68.5982 56.1905 68.6586 55.9387 68.7854C55.8423 68.8311 55.7605 68.9026 55.7023 68.9921C55.6441 69.0815 55.6119 69.1854 55.6092 69.292C55.6019 69.3742 55.613 69.4571 55.6418 69.5344C55.6707 69.6117 55.7164 69.6817 55.7757 69.7391C55.9097 69.8606 56.069 69.951 56.242 70.0038C56.4527 70.0733 56.6669 70.1318 56.8837 70.1791C57.1186 70.2317 57.35 70.2913 57.5849 70.3544C57.8047 70.4143 58.0161 70.5014 58.2143 70.6139C58.3996 70.7166 58.5544 70.8666 58.663 71.0486C58.778 71.2635 58.8286 71.507 58.8085 71.7499C58.8012 72.0098 58.7011 72.2586 58.5263 72.4511C58.3325 72.6555 58.0918 72.8095 57.8251 72.8999C57.4982 73.0159 57.1534 73.0734 56.8065 73.0699Z" fill="white"/>
<path d="M59.5064 68.6453V68.0124H63.2878V68.6453H59.5064ZM61.7679 68.1702V72.9649H61.0369V68.1702H61.7679Z" fill="white"/>
<path d="M63.5438 72.9649L65.2057 68.0124H66.4101L68.1071 72.9649H67.3252L65.821 68.3209L64.3169 72.9649H63.5438ZM64.5553 71.487L64.5816 70.9067H67.0359L67.0727 71.487H64.5553Z" fill="white"/>
<path d="M73.0824 72.0007C72.8288 72.3649 72.4572 72.6306 72.0305 72.7527C71.5095 72.9036 70.9688 72.9752 70.4264 72.9649H69.0923V68.0124H70.43C70.9775 68.0006 71.5221 68.0947 72.034 68.2894C72.4583 68.4533 72.8243 68.7395 73.0859 69.1116C73.3473 69.5204 73.4776 69.9993 73.4593 70.4843C73.4558 71.1346 73.3313 71.6378 73.0824 72.0007ZM70.3423 72.3513H70.614C70.9003 72.354 71.1862 72.3293 71.4678 72.2777C71.7033 72.2345 71.9258 72.138 72.1182 71.9954C72.3081 71.8478 72.4526 71.6497 72.5354 71.4239C72.6428 71.1209 72.6922 70.8003 72.6809 70.479C72.6949 70.1216 72.6067 69.7677 72.4267 69.4587C72.2548 69.1884 72.0047 68.9768 71.7097 68.8521C71.3625 68.7093 70.9894 68.6401 70.614 68.6488H69.8146V72.3513H70.3423Z" fill="white"/>
<path d="M76.5957 73.0876C75.9155 73.0876 75.3948 72.8924 75.0337 72.502C74.6725 72.1117 74.4926 71.5624 74.4937 70.8541V68.0124H75.2581V70.8454C75.2517 71.0914 75.2891 71.3365 75.3685 71.5694C75.4299 71.7478 75.5306 71.9101 75.663 72.0445C75.7833 72.1636 75.9289 72.2541 76.089 72.3092C76.252 72.3656 76.4233 72.3941 76.5957 72.3933C76.8374 72.398 77.077 72.3482 77.2969 72.2478C77.506 72.1438 77.6731 71.9711 77.7702 71.7587C77.8984 71.4719 77.9585 71.1593 77.9456 70.8454V68.0124H78.7117V70.8541C78.7117 71.5752 78.5363 72.1275 78.1857 72.5108C77.8351 72.8941 77.3051 73.0864 76.5957 73.0876Z" fill="white"/>
<path d="M79.6104 72.9649L81.2741 68.0124H82.4785L84.1684 72.9649H83.3866L81.8894 68.3209L80.3853 72.9649H79.6104ZM80.6219 71.487L80.6482 70.9067H83.1166L83.1517 71.487H80.6219Z" fill="white"/>
<path d="M85.1522 72.8947V68.0124H85.8815V72.8947H85.1522ZM85.1522 72.9649V72.339H88.4831V72.9736L85.1522 72.9649Z" fill="white"/>
<path d="M4.57861 78.9115C4.32499 79.2758 3.95348 79.5414 3.52675 79.6636C3.00486 79.8129 2.46367 79.8838 1.92092 79.874H0.571045V74.9233H1.90865C2.45675 74.9117 3.00195 75.0057 3.51448 75.2002C3.94321 75.3612 4.31386 75.647 4.57861 76.0207C4.84059 76.4293 4.97092 76.9084 4.95202 77.3934C4.94617 78.0455 4.8217 78.5516 4.57861 78.9115ZM1.83853 79.2621H2.11026C2.39654 79.2649 2.68242 79.2402 2.96401 79.1885C3.19965 79.1458 3.42224 79.0492 3.61441 78.9063C3.80434 78.7583 3.9494 78.5604 4.0334 78.3348C4.13914 78.0313 4.18788 77.711 4.17715 77.3898C4.18814 77.0322 4.09692 76.6789 3.91419 76.3713C3.74298 76.1004 3.49268 75.8887 3.19717 75.7647C2.84993 75.6219 2.47685 75.5527 2.10149 75.5614H1.30208V79.2639L1.83853 79.2621Z" fill="white"/>
<path d="M5.99878 79.8772V74.923H9.42782V75.5559H6.7193V77.06H8.82301V77.6666H6.7193V79.2759H9.52424V79.8772H5.99878Z" fill="white"/>
<path d="M13.6141 79.8772H12.8848V74.923H13.6141V79.8772ZM13.5089 74.9265H14.8202C15.3706 74.9265 15.7943 75.0615 16.0912 75.3315C16.3857 75.6015 16.5347 76.0047 16.5347 76.5446C16.5468 76.7557 16.512 76.9669 16.4329 77.163C16.3538 77.3591 16.2323 77.5352 16.0771 77.6789C15.7232 77.9656 15.275 78.11 14.8202 78.0838H13.5089V77.5299H14.736C15.0333 77.5464 15.3271 77.459 15.567 77.2827C15.6718 77.1901 15.7538 77.0745 15.8064 76.9449C15.859 76.8153 15.8809 76.6753 15.8703 76.5359C15.8823 76.3945 15.8615 76.2523 15.8095 76.1203C15.7575 75.9883 15.6757 75.8702 15.5705 75.775C15.3285 75.6007 15.0337 75.5153 14.736 75.5331H13.5089V74.9265Z" fill="white"/>
<path d="M17.5725 79.8774V74.9232H19.3046C19.6684 74.9158 20.0314 74.96 20.3827 75.0547C20.649 75.1254 20.8856 75.2796 21.0577 75.4947C21.2288 75.7467 21.312 76.048 21.2943 76.352C21.2985 76.584 21.2549 76.8143 21.1663 77.0287C21.0887 77.2199 20.9556 77.3835 20.7842 77.4985C20.5961 77.6202 20.3752 77.6814 20.1513 77.6738C20.3097 77.6649 20.4671 77.7034 20.6036 77.7843C20.7107 77.8558 20.7948 77.9569 20.8455 78.0753C20.8987 78.197 20.9342 78.3257 20.9507 78.4575C20.9682 78.5924 20.9823 78.7239 20.991 78.8537C20.997 78.9666 21.0164 79.0784 21.0489 79.1867C21.0586 79.2281 21.0773 79.2668 21.1036 79.3002C21.13 79.3335 21.1634 79.3606 21.2014 79.3796C21.2539 79.3972 21.3094 79.4039 21.3645 79.3994C21.4197 79.3948 21.4733 79.3792 21.5222 79.3533V79.7933C21.4313 79.8682 21.3226 79.9183 21.2067 79.9388C21.0763 79.9651 20.9414 79.956 20.8157 79.9125C20.6758 79.8628 20.5575 79.7662 20.4809 79.639C20.3784 79.4559 20.3309 79.2471 20.3441 79.0377C20.346 78.8322 20.336 78.6268 20.3143 78.4224C20.3033 78.2846 20.2561 78.1522 20.1776 78.0385C20.0925 77.939 19.9785 77.8685 19.8515 77.8369C19.658 77.7873 19.4587 77.7637 19.259 77.7667C19.0083 77.7667 18.691 77.7667 18.3035 77.779V79.8774H17.5725ZM18.3106 77.2391H19.3309C19.5787 77.2438 19.8264 77.225 20.0707 77.183C20.2395 77.1583 20.3939 77.0737 20.5054 76.9445C20.6118 76.7906 20.663 76.6053 20.6509 76.4186C20.6706 76.2043 20.6079 75.9906 20.4756 75.8208C20.3377 75.6864 20.1574 75.604 19.9655 75.5877C19.6918 75.5514 19.4158 75.535 19.1398 75.5386H18.3123L18.3106 77.2391Z" fill="white"/>
<path d="M24.706 79.9984C23.9136 79.9984 23.3094 79.7646 22.8933 79.2972C22.4773 78.8297 22.2692 78.2009 22.2692 77.4108C22.258 76.9438 22.3496 76.48 22.5374 76.0522C22.7083 75.6771 22.9905 75.3637 23.3456 75.1546C23.7618 74.9269 24.2319 74.8161 24.706 74.8338C25.4961 74.8338 26.0986 75.0676 26.5135 75.535C26.9284 76.0025 27.1346 76.6284 27.1323 77.4126C27.1422 77.8776 27.0475 78.3389 26.8553 78.7625C26.6812 79.1402 26.3979 79.4571 26.0419 79.6723C25.6352 79.9022 25.1729 80.015 24.706 79.9984ZM24.6973 79.2972C25.0317 79.3092 25.3627 79.2253 25.6509 79.0552C25.9043 78.8952 26.1035 78.6624 26.2224 78.3873C26.3532 78.0805 26.4177 77.7495 26.4118 77.4161C26.4184 77.0795 26.3551 76.7452 26.2259 76.4344C26.1102 76.1589 25.9125 75.9258 25.6597 75.7664C25.3684 75.5959 25.0346 75.512 24.6973 75.5245C24.1328 75.5245 23.7062 75.6946 23.4175 76.0347C23.1091 76.4269 22.9539 76.9179 22.981 77.4161C22.9753 77.7463 23.0386 78.0742 23.1668 78.3785C23.2834 78.6549 23.4808 78.8895 23.7331 79.0517C24.0244 79.2237 24.3592 79.3077 24.6973 79.2937V79.2972Z" fill="white"/>
<path d="M29.0238 79.8772H28.3015V74.923H31.7761V75.5559H29.0238V76.9584H31.1608V77.5649H29.0238V79.8772Z" fill="white"/>
<path d="M32.8033 75.5559V74.923H34.8702V75.5559H32.8033ZM32.8033 79.8772V79.2444H34.8702V79.8772H32.8033ZM33.48 79.7195V75.0808H34.2005V79.716L33.48 79.7195Z" fill="white"/>
<path d="M38.1084 79.9806C37.8447 79.9811 37.5819 79.9482 37.3265 79.8824C37.0822 79.8227 36.8498 79.722 36.6393 79.5844C36.4357 79.4507 36.2668 79.2704 36.1467 79.0585C36.0215 78.8252 35.9569 78.5642 35.9591 78.2994H36.6971C36.6971 78.3169 36.6971 78.3643 36.7147 78.4414C36.7329 78.5331 36.7642 78.6216 36.8076 78.7044C36.8653 78.8144 36.9425 78.913 37.0355 78.9954C37.1619 79.1016 37.3087 79.1809 37.4668 79.2285C37.6943 79.2955 37.9309 79.3262 38.168 79.3197C38.3523 79.3245 38.5362 79.3009 38.7132 79.2496C38.8411 79.212 38.9603 79.1494 39.0638 79.0655C39.1427 78.9999 39.2071 78.9188 39.2532 78.8271C39.2871 78.7588 39.3062 78.6841 39.3092 78.608C39.3125 78.5264 39.2986 78.4451 39.2684 78.3693C39.2382 78.2935 39.1924 78.2249 39.1339 78.1679C39.0012 78.0466 38.844 77.9551 38.6729 77.8997C38.48 77.8331 38.2662 77.7717 38.0348 77.7156C37.8033 77.6595 37.5737 77.5982 37.344 77.5298C37.1244 77.467 36.9136 77.3769 36.7164 77.2616C36.5331 77.1573 36.3798 77.0076 36.2711 76.8268C36.1584 76.615 36.1097 76.3751 36.1309 76.1361C36.1418 75.8769 36.2414 75.6293 36.4131 75.4349C36.6039 75.2281 36.8458 75.0751 37.1144 74.9913C37.4416 74.8832 37.7848 74.8311 38.1294 74.8371C38.4565 74.8334 38.7809 74.896 39.0831 75.0211C39.3629 75.1369 39.6055 75.3273 39.7843 75.5716C39.9714 75.8433 40.0627 76.1696 40.0438 76.499H39.3303C39.3449 76.3246 39.3018 76.1503 39.2076 76.0029C39.1206 75.878 39.0044 75.7763 38.8692 75.7066C38.735 75.6382 38.5915 75.5898 38.4432 75.5629C38.3126 75.5379 38.18 75.5244 38.047 75.5225C37.7653 75.51 37.4851 75.5704 37.2336 75.6978C37.1374 75.7434 37.0557 75.8147 36.9976 75.9038C36.9394 75.9929 36.907 76.0964 36.904 76.2027C36.8978 76.2859 36.9103 76.3694 36.9407 76.447C36.971 76.5247 37.0184 76.5946 37.0793 76.6515C37.2133 76.7731 37.3726 76.8634 37.5456 76.9162C37.7564 76.9857 37.9705 77.0442 38.1873 77.0915C38.4222 77.1441 38.6536 77.2037 38.8885 77.2668C39.1078 77.3282 39.319 77.4153 39.5179 77.5263C39.7033 77.6298 39.8581 77.7803 39.9667 77.9628C40.082 78.1775 40.1326 78.4212 40.1122 78.6641C40.106 78.9242 40.0057 79.1733 39.8299 79.3653C39.6371 79.5708 39.3961 79.7251 39.1287 79.8141C38.8012 79.93 38.4557 79.9864 38.1084 79.9806Z" fill="white"/>
<path d="M43.1222 79.9807C42.8579 79.9812 42.5946 79.9482 42.3386 79.8826C42.0948 79.8228 41.863 79.722 41.6531 79.5845C41.4495 79.4508 41.2806 79.2705 41.1605 79.0586C41.0319 78.8225 40.9649 78.5578 40.9659 78.289H41.7057C41.7088 78.3366 41.7147 78.384 41.7232 78.431C41.7406 78.5229 41.7719 78.6116 41.8161 78.694C41.8732 78.8044 41.9505 78.9031 42.044 78.985C42.17 79.0919 42.3169 79.1713 42.4753 79.2181C42.7028 79.2853 42.9395 79.3161 43.1765 79.3093C43.3608 79.3139 43.5446 79.2902 43.7217 79.2392C43.8496 79.2014 43.9687 79.1389 44.0724 79.0551C44.1517 78.99 44.2162 78.9087 44.2617 78.8167C44.2967 78.7487 44.3164 78.6739 44.3196 78.5975C44.3224 78.5161 44.3083 78.4349 44.2781 78.3591C44.2479 78.2834 44.2023 78.2147 44.1442 78.1575C44.0115 78.0362 43.8543 77.9447 43.6832 77.8893C43.4886 77.8227 43.2765 77.7613 43.0451 77.7052C42.8137 77.6491 42.584 77.5878 42.3543 77.5194C42.1347 77.455 41.9239 77.3638 41.7267 77.2477C41.5437 77.1437 41.3908 76.9939 41.2832 76.8129C41.1705 76.6011 41.1218 76.3612 41.143 76.1222C41.1532 75.8632 41.2522 75.6156 41.4235 75.421C41.6143 75.2142 41.8561 75.0612 42.1247 74.9774C42.4526 74.8693 42.7963 74.8171 43.1415 74.8232C43.4685 74.8197 43.7929 74.8823 44.0952 75.0072C44.3748 75.1232 44.6173 75.3136 44.7964 75.5577C44.9842 75.8291 45.0756 76.1556 45.0559 76.4851H44.3441C44.3578 76.3108 44.3148 76.1368 44.2214 75.989C44.1342 75.8637 44.0173 75.7619 43.8813 75.6927C43.7473 75.6238 43.6037 75.5753 43.4553 75.5489C43.3247 75.5239 43.1921 75.5104 43.0591 75.5086C42.7774 75.4961 42.4972 75.5565 42.2456 75.6839C42.1495 75.7295 42.0678 75.8008 42.0096 75.8899C41.9515 75.979 41.9191 76.0824 41.9161 76.1888C41.9104 76.2719 41.9231 76.3553 41.9534 76.4328C41.9837 76.5104 42.0309 76.5804 42.0914 76.6376C42.2246 76.7593 42.3833 76.8498 42.5559 76.9023C42.7673 76.9716 42.982 77.0301 43.1993 77.0776C43.4325 77.1302 43.6656 77.1898 43.9006 77.2529C44.1197 77.3146 44.3309 77.4017 44.5299 77.5124C44.7147 77.6166 44.8694 77.767 44.9787 77.9489C45.0935 78.1638 45.1434 78.4074 45.1225 78.6501C45.1169 78.9101 45.0172 79.1593 44.842 79.3514C44.6493 79.557 44.4082 79.7113 44.1407 79.8002C43.8148 79.9208 43.4698 79.982 43.1222 79.9807Z" fill="white"/>
<path d="M46.253 75.5559V74.923H48.3199V75.5559H46.253ZM46.253 79.8737V79.2409H48.3199V79.8772L46.253 79.8737ZM46.9297 79.716V75.0808H47.6502V79.716H46.9297Z" fill="white"/>
<path d="M51.7752 79.9983C50.9839 79.9983 50.3803 79.7646 49.9642 79.2971C49.5482 78.8296 49.3395 78.2008 49.3384 77.4108C49.3272 76.9437 49.4187 76.4799 49.6066 76.0521C49.7776 75.6766 50.0605 75.3631 50.4165 75.1546C50.8322 74.9272 51.3017 74.8163 51.7752 74.8337C52.5676 74.8337 53.17 75.0675 53.5826 75.535C53.9952 76.0025 54.202 76.6283 54.2032 77.4125C54.2123 77.8775 54.1176 78.3386 53.9262 78.7624C53.7516 79.1398 53.4684 79.4566 53.1128 79.6723C52.7055 79.9022 52.2426 80.015 51.7752 79.9983ZM51.7664 79.2971C52.1009 79.3091 52.4318 79.2252 52.7201 79.0552C52.9744 78.8962 53.1738 78.6631 53.2916 78.3872C53.4223 78.0804 53.4869 77.7495 53.4809 77.416C53.4873 77.0797 53.4246 76.7455 53.2969 76.4343C53.181 76.1584 52.9826 75.9251 52.7289 75.7664C52.4378 75.5954 52.1038 75.5114 51.7664 75.5245C51.2031 75.5245 50.7765 75.6945 50.4867 76.0346C50.1796 76.4274 50.0251 76.9182 50.0519 77.416C50.0465 77.7461 50.1092 78.0737 50.236 78.3785C50.3527 78.6553 50.5508 78.89 50.804 79.0517C51.0944 79.2243 51.4289 79.3083 51.7664 79.2936V79.2971Z" fill="white"/>
<path d="M58.749 74.923H59.4976V79.8772H58.1161L56.023 75.2491H56.0054V79.8772H55.2586V74.923H56.5506L58.7227 79.5494H58.7402L58.749 74.923Z" fill="white"/>
<path d="M60.4302 79.8774L62.0922 74.9267H63.2965L64.9935 79.8774H64.2117L62.7075 75.2352L61.2033 79.8774H60.4302ZM61.44 78.4013L61.4681 77.821H63.9224L63.9575 78.4013H61.44Z" fill="white"/>
<path d="M65.9175 75.5559V74.923H67.9844V75.5559H65.9175ZM65.9175 79.8737V79.2409H67.9844V79.8772L65.9175 79.8737ZM66.5942 79.716V75.0808H67.3165V79.716H66.5942Z" fill="white"/>
<path d="M71.2294 79.9808C70.9656 79.9813 70.7029 79.9483 70.4475 79.8826C70.2032 79.8229 69.9708 79.7221 69.7603 79.5846C69.557 79.4504 69.3883 79.2702 69.2677 79.0586C69.1389 78.8227 69.0725 78.5578 69.0748 78.289H69.8129C69.8129 78.3066 69.8129 78.3539 69.8304 78.431C69.8486 78.5227 69.8799 78.6113 69.9233 78.694C69.9811 78.8044 70.059 78.9031 70.153 78.985C70.2785 79.0916 70.4247 79.171 70.5825 79.2182C70.81 79.2851 71.0466 79.3158 71.2837 79.3093C71.468 79.3141 71.6519 79.2905 71.8289 79.2392C71.9568 79.2016 72.076 79.1391 72.1795 79.0551C72.2584 78.9895 72.3229 78.9084 72.3689 78.8167C72.4028 78.7485 72.422 78.6738 72.425 78.5976C72.4279 78.5161 72.4138 78.4349 72.3837 78.3591C72.3535 78.2834 72.3078 78.2147 72.2497 78.1576C72.1163 78.0362 71.9585 77.9447 71.7869 77.8893C71.594 77.8227 71.3819 77.7614 71.1487 77.7053C70.9156 77.6492 70.6877 77.5878 70.4598 77.5194C70.2396 77.4566 70.0282 77.3665 69.8304 77.2512C69.647 77.1477 69.494 76.9978 69.3869 76.8165C69.2736 76.6049 69.2242 76.3649 69.2449 76.1257C69.2557 75.8665 69.3554 75.6189 69.5271 75.4245C69.7179 75.2177 69.9598 75.0648 70.2284 74.981C70.5556 74.8728 70.8988 74.8207 71.2434 74.8267C71.5705 74.823 71.8949 74.8856 72.1971 75.0108C72.4769 75.1265 72.7195 75.3169 72.8983 75.5612C73.0854 75.833 73.1767 76.1593 73.1578 76.4886H72.4443C72.4589 76.3143 72.4158 76.1399 72.3216 75.9925C72.235 75.8673 72.1187 75.7655 71.9832 75.6962C71.849 75.6278 71.7054 75.5794 71.5572 75.5525C71.4266 75.5275 71.294 75.514 71.161 75.5122C70.8793 75.4997 70.5991 75.56 70.3476 75.6875C70.2514 75.733 70.1697 75.8043 70.1116 75.8934C70.0534 75.9825 70.021 76.086 70.018 76.1924C70.0107 76.2748 70.0218 76.3579 70.0506 76.4355C70.0794 76.5132 70.1252 76.5834 70.1845 76.6411C70.3186 76.7627 70.4778 76.8531 70.6509 76.9059C70.8616 76.9753 71.0757 77.0338 71.2925 77.0812C71.5274 77.1338 71.7588 77.1934 71.9937 77.2565C72.213 77.3179 72.4242 77.405 72.6231 77.5159C72.8085 77.6194 72.9633 77.77 73.0719 77.9524C73.1873 78.1672 73.2378 78.4108 73.2174 78.6537C73.2112 78.9139 73.1109 79.163 72.9351 79.3549C72.7423 79.5605 72.5013 79.7147 72.2339 79.8037C71.9121 79.9213 71.572 79.9813 71.2294 79.9808Z" fill="white"/>
</svg>
