<svg width="20" height="20" viewBox="0 0 20 20" fill="none" xmlns="http://www.w3.org/2000/svg">
<path d="M10.3852 17.006C10.2313 17.006 10.0775 16.9795 9.9236 16.9265C9.7696 16.8733 9.63035 16.791 9.50583 16.6797C8.79716 16.0265 8.13397 15.3539 7.51626 14.6619C6.89867 13.9699 6.36184 13.2781 5.90576 12.5866C5.44955 11.895 5.08857 11.2096 4.82282 10.5303C4.55707 9.85084 4.42419 9.19469 4.42419 8.56184C4.42419 6.73936 5.01368 5.26392 6.19264 4.1355C7.37173 3.00708 8.76926 2.44287 10.3852 2.44287C12.0012 2.44287 13.3987 3.00708 14.5778 4.1355C15.7568 5.26392 16.3462 6.73936 16.3462 8.56184C16.3462 9.19469 16.2134 9.84952 15.9476 10.5263C15.6819 11.2033 15.3222 11.8888 14.8686 12.5828C14.4149 13.2769 13.8793 13.9687 13.2617 14.6581C12.6441 15.3477 11.9809 16.019 11.2721 16.672C11.1494 16.7833 11.01 16.8668 10.8537 16.9225C10.6976 16.9782 10.5415 17.006 10.3852 17.006ZM10.3866 9.83906C10.7795 9.83906 11.1154 9.69914 11.3943 9.41931C11.6734 9.13947 11.8129 8.80311 11.8129 8.41021C11.8129 8.01731 11.673 7.68134 11.3931 7.40229C11.1133 7.12338 10.7769 6.98392 10.3838 6.98392C9.99093 6.98392 9.65503 7.12384 9.37611 7.40367C9.09707 7.68351 8.95755 8.01994 8.95755 8.41297C8.95755 8.80587 9.09746 9.14178 9.3773 9.42069C9.65713 9.6996 9.99356 9.83906 10.3866 9.83906Z" fill="white"/>
</svg>
