<svg width="222" height="58" viewBox="0 0 222 58" fill="none" xmlns="http://www.w3.org/2000/svg">
<path fill-rule="evenodd" clip-rule="evenodd" d="M68.602 16.9178C69.0704 16.7522 69.583 16.7627 70.0442 16.9473C70.5062 17.1322 70.885 17.4791 71.1096 17.9231L71.1108 17.9255C71.2882 18.2804 71.5609 18.5789 71.8984 18.7875C72.236 18.9962 72.6249 19.1067 73.0217 19.1067C73.4185 19.1067 73.8074 18.9962 74.1449 18.7875C74.4824 18.5789 74.7552 18.2804 74.9326 17.9255L74.9336 17.9235C75.1578 17.4795 75.5362 17.1325 75.9978 16.9475C76.4587 16.7629 76.9711 16.7523 77.4392 16.9178C77.907 17.0792 78.3646 17.2686 78.8097 17.4849C79.2533 17.7003 79.6045 18.0684 79.7987 18.5217C79.993 18.975 80.0174 19.4832 79.8673 19.953L79.8661 19.9568L79.8649 19.9604C79.7386 20.3369 79.7198 20.7411 79.8105 21.1276C79.9012 21.5142 80.0978 21.8678 80.3783 22.1488C80.6588 22.4299 81.012 22.6271 81.3984 22.7185C81.7848 22.8099 82.189 22.7919 82.5657 22.6663L82.568 22.6656C83.0397 22.5106 83.5517 22.5322 84.0088 22.7262C84.4659 22.9202 84.837 23.2735 85.0533 23.7205L85.054 23.7221C85.2675 24.1669 85.4563 24.6232 85.6195 25.0888C85.7853 25.5567 85.7756 26.0689 85.592 26.5302C85.4083 26.9917 85.0631 27.3708 84.6207 27.5968L84.6186 27.5979L84.6164 27.599C84.2676 27.7732 83.9732 28.0397 83.7652 28.3694C83.5572 28.6992 83.4434 29.0796 83.4364 29.4694C83.4293 29.8592 83.5291 30.2435 83.7251 30.5806C83.921 30.9177 84.3051 31.2981 84.6473 31.4848L85.2289 31.8023L84.7988 32.3063C83.9092 33.3488 83.3206 34.5199 83.1003 35.8726L83.0085 36.4364L82.4512 36.3109C82.0821 36.2279 81.5998 36.2363 81.2393 36.351C80.8788 36.4656 80.5553 36.6741 80.302 36.955C80.0486 37.236 79.8746 37.5793 79.7978 37.9497C79.7209 38.3201 79.744 38.7043 79.8647 39.0628L79.8657 39.0658L79.8667 39.0688C80.0191 39.5398 79.9959 40.05 79.8015 40.5052C79.6071 40.9603 79.2547 41.3298 78.8093 41.5454L78.8097 41.5451L78.8089 41.5456L78.8093 41.5454C78.3644 41.7615 77.907 41.9508 77.4394 42.1123C77.4403 42.1119 77.4412 42.1116 77.4421 42.1113L77.4371 42.1131C77.4378 42.1128 77.4386 42.1125 77.4394 42.1123C76.9713 42.2783 76.4587 42.268 75.9976 42.0832C75.5356 41.8981 75.1571 41.5506 74.9333 41.106L74.9326 41.1046C74.7552 40.7497 74.4824 40.4512 74.1449 40.2425C73.8074 40.0339 73.4185 39.9234 73.0217 39.9234C72.6249 39.9234 72.236 40.0339 71.8984 40.2425C71.5609 40.4512 71.2882 40.7497 71.1108 41.1046L71.1099 41.1064C70.8857 41.551 70.5068 41.8984 70.0445 42.0835C69.583 42.2682 69.0701 42.2784 68.6017 42.1122C68.6024 42.1125 68.6032 42.1127 68.604 42.113L68.5992 42.1113C68.6 42.1116 68.6008 42.1119 68.6017 42.1122C68.1354 41.951 67.6792 41.7619 67.2356 41.5461C67.2364 41.5465 67.2372 41.5469 67.2381 41.5473L67.2333 41.545C67.2341 41.5454 67.2348 41.5457 67.2356 41.5461C66.7877 41.3327 66.433 40.9632 66.2381 40.5069C66.0428 40.0497 66.0214 39.5369 66.1779 39.0651L66.1786 39.0632C66.2973 38.7094 66.3212 38.3306 66.2479 37.9646C66.1745 37.5987 66.0065 37.2584 65.7605 36.9776C65.5145 36.6969 65.1993 36.4856 64.8461 36.3648C64.493 36.244 64.1143 36.218 63.7479 36.2892L63.2059 36.3946L63.1146 35.8501C62.8875 34.4948 62.2958 33.2269 61.4031 32.1822L60.9824 31.6898L61.5435 31.3665C61.878 31.1739 62.1539 30.8942 62.3421 30.5572C62.5303 30.2202 62.6237 29.8386 62.6124 29.4528C62.601 29.067 62.4854 28.6915 62.2777 28.3661C62.07 28.0408 61.7781 27.7778 61.4329 27.6051L61.4308 27.6041C60.9869 27.3795 60.6399 27.001 60.4546 26.5393C60.2695 26.0782 60.2584 25.5655 60.4233 25.0967L60.4228 25.0982L60.4238 25.0951L60.4233 25.0967C60.585 24.6294 60.7742 24.1721 60.99 23.7271L60.9896 23.7279L60.9903 23.7264L60.99 23.7271C61.2049 23.2807 61.5747 22.9275 62.0306 22.7333C62.4867 22.5391 62.998 22.5172 63.469 22.6718L63.4705 22.6723L63.472 22.6728C63.849 22.799 64.2537 22.8175 64.6407 22.7264C65.0276 22.6353 65.3815 22.4382 65.6627 22.1571C65.9438 21.8759 66.1409 21.522 66.232 21.1351C66.3231 20.7481 66.3046 20.3434 66.1784 19.9664L66.1779 19.965C66.0214 19.4932 66.0428 18.9804 66.2381 18.5232C66.433 18.0669 66.7877 17.6974 67.2355 17.484C67.2348 17.4844 67.2341 17.4847 67.2333 17.4851L67.2381 17.4828C67.2372 17.4832 67.2364 17.4836 67.2355 17.484C67.6793 17.2681 68.1356 17.079 68.602 16.9178ZM68.602 16.9178C68.6013 16.918 68.6005 16.9183 68.5998 16.9186L68.604 16.9171C68.6033 16.9173 68.6027 16.9176 68.602 16.9178ZM69.6444 17.9462C69.4254 17.8585 69.1819 17.8537 68.9596 17.9326L68.9575 17.9333L68.9554 17.9341C68.5283 18.0816 68.1105 18.2548 67.7043 18.4525L67.7019 18.4537L67.6995 18.4548C67.4876 18.5554 67.3197 18.7301 67.2276 18.9458C67.1355 19.1614 67.1254 19.4032 67.199 19.6257C67.3884 20.1922 67.4163 20.8002 67.2794 21.3816C67.1424 21.9633 66.846 22.4953 66.4235 22.9179C66.0009 23.3404 65.4689 23.6368 64.8872 23.7738C64.3061 23.9106 63.6984 23.8829 63.1322 23.6937C62.9095 23.6209 62.6679 23.6314 62.4522 23.7233C62.2362 23.8153 62.061 23.9827 61.9592 24.1943L61.9585 24.1959C61.7609 24.6033 61.5876 25.0221 61.4396 25.45L61.4391 25.4515L61.4385 25.4531C61.36 25.6757 61.3652 25.9194 61.4531 26.1386C61.5409 26.3574 61.7053 26.5368 61.9156 26.6435C62.4341 26.9032 62.8726 27.2984 63.1847 27.7872C63.4969 28.2764 63.6708 28.841 63.6879 29.4212C63.7049 30.0013 63.5645 30.5752 63.2815 31.0819C63.0999 31.4071 62.7159 31.8694 62.4371 32.1119C63.1536 33.0748 63.7426 33.9824 64.0102 35.1531C64.3883 35.1439 64.8338 35.2234 65.1944 35.3468C65.7255 35.5285 66.1998 35.8463 66.5698 36.2686C66.9398 36.6908 67.1925 37.2027 67.3029 37.7532C67.4131 38.3033 67.3773 38.8727 67.1989 39.4046C67.1254 39.627 67.1355 39.8687 67.2276 40.0843C67.3197 40.3 67.4876 40.4747 67.6995 40.5753L67.7019 40.5764L67.7043 40.5776C68.1105 40.7753 68.5283 40.9485 68.9554 41.096L68.9578 41.0969L68.9602 41.0977C69.1824 41.1768 69.4258 41.1722 69.6447 41.0845C69.8634 40.997 70.0426 40.8328 70.1489 40.6226C70.4156 40.0894 70.8255 39.6409 71.3327 39.3273C71.8402 39.0136 72.425 38.8474 73.0217 38.8474C73.6183 38.8474 74.2032 39.0136 74.7107 39.3273C75.2179 39.6409 75.6279 40.0895 75.8946 40.6228C76.0005 40.8328 76.1794 40.9969 76.3978 41.0844C76.6163 41.172 76.8593 41.1767 77.0811 41.0977L77.0836 41.0968L77.0861 41.0959C77.5139 40.9484 77.9324 40.7752 78.3394 40.5774L78.3403 40.577C78.552 40.4745 78.7196 40.299 78.812 40.0826C78.904 39.8671 78.9153 39.6257 78.8438 39.4026C78.6632 38.8641 78.6289 38.2873 78.7442 37.7311C78.8599 37.1738 79.1217 36.6572 79.5029 36.2345C79.8841 35.8117 80.3709 35.498 80.9133 35.3256C81.2786 35.2094 81.8705 35.2179 82.2505 35.2362C82.5128 34.0762 83.0134 33.2619 83.7205 32.3063C83.4357 32.068 82.983 31.4451 82.7948 31.1213C82.5001 30.6143 82.3499 30.0362 82.3606 29.4499C82.3712 28.8635 82.5423 28.2913 82.8552 27.7953C83.1676 27.3001 83.6096 26.8998 84.1331 26.6377C84.3422 26.5303 84.5054 26.3508 84.5923 26.1323C84.6795 25.9133 84.6841 25.6699 84.6052 25.4477L84.6045 25.4458C84.4543 25.0174 84.2807 24.5976 84.0843 24.1883C83.9815 23.9763 83.8053 23.8087 83.5884 23.7166C83.3715 23.6246 83.1286 23.6142 82.9047 23.6875C82.3386 23.8759 81.7313 23.903 81.1507 23.7656C80.5697 23.6282 80.0385 23.3315 79.6167 22.9089C79.195 22.4864 78.8993 21.9546 78.7629 21.3734C78.6269 20.7936 78.6548 20.1874 78.8433 19.6225C78.9135 19.4001 78.9016 19.1599 78.8097 18.9455C78.7174 18.7301 78.5505 18.5551 78.3397 18.4528C77.9327 18.255 77.5139 18.0817 77.0861 17.9342L77.0839 17.9334L77.0817 17.9326C76.8597 17.8538 76.6166 17.8587 76.398 17.9463C76.1797 18.0338 76.0006 18.1978 75.8944 18.4077C75.6277 18.9409 75.2178 19.3893 74.7107 19.7028C74.2032 20.0165 73.6183 20.1827 73.0217 20.1827C72.425 20.1827 71.8402 20.0165 71.3327 19.7028C70.8256 19.3893 70.4158 18.9409 70.149 18.4078C70.0425 18.1978 69.8631 18.0337 69.6444 17.9462ZM74.1101 23.8945C72.9778 23.6749 71.8056 23.8025 70.747 24.2607C69.6885 24.7189 68.7931 25.4862 68.1783 26.4621C67.5635 27.438 67.258 28.5768 67.3017 29.7294C67.3578 31.158 67.9458 32.5141 68.9504 33.5314C69.955 34.5488 71.3036 35.154 72.7315 35.228C73.8833 35.2862 75.0259 34.9951 76.0094 34.3927C76.993 33.7903 77.7716 32.9047 78.2431 31.852C78.7146 30.7994 78.857 29.6288 78.6517 28.4938C78.4464 27.3588 77.9029 26.3123 77.0924 25.4916C76.282 24.6709 75.2425 24.1142 74.1101 23.8945ZM70.3196 23.2732C71.5772 22.7289 72.9698 22.5773 74.315 22.8382C75.6603 23.0992 76.8952 23.7605 77.858 24.7356C78.8208 25.7106 79.4665 26.9538 79.7105 28.3023C79.9544 29.6507 79.7852 31.0413 79.225 32.2919C78.6649 33.5424 77.7399 34.5945 76.5713 35.3103C75.4028 36.026 74.0453 36.3719 72.6767 36.3026L72.6761 36.3026C70.98 36.2147 69.3781 35.4959 68.1847 34.2875C66.9914 33.079 66.293 31.4681 66.2265 29.771L66.2265 29.7704C66.1745 28.401 66.5375 27.048 67.268 25.8886C67.9984 24.7292 69.0621 23.8176 70.3196 23.2732Z" fill="#32FA87"/>
<path fill-rule="evenodd" clip-rule="evenodd" d="M27.6675 16.9178C28.1358 16.7522 28.6485 16.7627 29.1097 16.9473C29.5717 17.1322 29.9504 17.4791 30.1751 17.9231L30.1763 17.9255C30.3537 18.2804 30.6264 18.5789 30.9639 18.7875C31.3014 18.9962 31.6904 19.1067 32.0871 19.1067C32.4839 19.1067 32.8729 18.9962 33.2104 18.7875C33.5479 18.5789 33.8206 18.2804 33.998 17.9255L33.999 17.9235C34.2232 17.4795 34.6016 17.1325 35.0633 16.9475C35.5242 16.7629 36.0365 16.7523 36.5046 16.9178C36.9724 17.0792 37.4301 17.2686 37.8752 17.4849C38.3188 17.7003 38.6699 18.0684 38.8642 18.5217C39.0585 18.975 39.0828 19.4832 38.9328 19.953L38.9316 19.9568L38.9303 19.9604C38.8041 20.3369 38.7852 20.7411 38.8759 21.1276C38.9666 21.5142 39.1632 21.8678 39.4437 22.1488C39.7242 22.4299 40.0775 22.6271 40.4639 22.7185C40.8503 22.8099 41.2545 22.7919 41.6312 22.6663L41.6334 22.6656C42.1052 22.5106 42.6172 22.5322 43.0742 22.7262C43.5313 22.9202 43.9025 23.2735 44.1187 23.7205L44.1195 23.7221C44.3329 24.1669 44.5217 24.6232 44.685 25.0888C44.8508 25.5567 44.841 26.0689 44.6575 26.5302C44.4738 26.9917 44.1286 27.3708 43.6862 27.5968L43.684 27.5979L43.6819 27.599C43.3331 27.7732 43.0387 28.0397 42.8307 28.3694C42.6226 28.6992 42.5089 29.0796 42.5018 29.4694C42.4947 29.8592 42.5946 30.2435 42.7905 30.5806C42.9864 30.9177 43.5291 31.3442 43.8714 31.531L44.453 31.8484L44.0229 32.3525C43.1333 33.3949 42.4778 34.5763 42.2576 35.929L42.1657 36.4928L41.6085 36.3674C41.2394 36.2843 40.6653 36.2363 40.3048 36.351C39.9443 36.4656 39.6208 36.6741 39.3674 36.955C39.1141 37.236 38.9401 37.5793 38.8632 37.9497C38.7864 38.3201 38.8095 38.7043 38.9302 39.0628L38.9312 39.0658L38.9321 39.0688C39.0845 39.5398 39.0614 40.05 38.8669 40.5052C38.6726 40.9603 38.3202 41.3298 37.8748 41.5454L37.8752 41.5451L37.8743 41.5456L37.8748 41.5454C37.4299 41.7615 36.9724 41.9508 36.5049 42.1123C36.5058 42.1119 36.5067 42.1116 36.5076 42.1113L36.5025 42.1131C36.5033 42.1128 36.5041 42.1125 36.5049 42.1123C36.0368 42.2783 35.5241 42.268 35.063 42.0832C34.601 41.8981 34.2225 41.5506 33.9987 41.106L33.998 41.1046C33.8206 40.7497 33.5479 40.4512 33.2104 40.2425C32.8729 40.0339 32.4839 39.9234 32.0871 39.9234C31.6904 39.9234 31.3014 40.0339 30.9639 40.2425C30.6264 40.4512 30.3537 40.7497 30.1763 41.1046L30.1754 41.1064C29.9511 41.551 29.5723 41.8984 29.11 42.0835C28.6485 42.2682 28.1355 42.2784 27.6671 42.1122C27.6679 42.1125 27.6687 42.1127 27.6694 42.113L27.6646 42.1113C27.6655 42.1116 27.6663 42.1119 27.6671 42.1122C27.2009 41.951 26.7447 41.7619 26.3011 41.5461C26.3019 41.5465 26.3027 41.5469 26.3035 41.5473L26.2988 41.545C26.2995 41.5454 26.3003 41.5457 26.3011 41.5461C25.8531 41.3327 25.4984 40.9632 25.3035 40.5069C25.1083 40.0497 25.0869 39.5369 25.2434 39.0651L25.244 39.0632C25.3628 38.7094 25.3867 38.3306 25.3133 37.9646C25.24 37.5987 25.0719 37.2584 24.826 36.9776C24.58 36.6969 24.2647 36.4856 23.9116 36.3648C23.5584 36.244 23.2859 36.218 22.9196 36.2892L22.4569 36.3648L22.4152 35.7823C22.188 34.427 21.4701 33.1434 20.4686 32.1822L20.0478 31.6898L20.609 31.3665C20.9434 31.1739 21.2194 30.8942 21.4076 30.5572C21.5958 30.2202 21.6892 29.8386 21.6778 29.4528C21.6665 29.067 21.5508 28.6915 21.3432 28.3661C21.1355 28.0408 20.8436 27.7778 20.4984 27.6051L20.4963 27.6041C20.0524 27.3795 19.7053 27.001 19.52 26.5393C19.3349 26.0782 19.3238 25.5655 19.4887 25.0967L19.4882 25.0982L19.4893 25.0951L19.4887 25.0967C19.6505 24.6294 19.8397 24.1721 20.0554 23.7271L20.055 23.7279L20.0558 23.7264L20.0554 23.7271C20.2704 23.2807 20.6402 22.9275 21.0961 22.7333C21.5522 22.5391 22.0634 22.5172 22.5345 22.6718L22.536 22.6723L22.5375 22.6728C22.9145 22.799 23.3192 22.8175 23.7061 22.7264C24.0931 22.6353 24.447 22.4382 24.7281 22.1571C25.0092 21.8759 25.2064 21.522 25.2975 21.1351C25.3886 20.7481 25.37 20.3434 25.2439 19.9664L25.2434 19.965C25.0869 19.4932 25.1083 18.9804 25.3035 18.5232C25.4984 18.0669 25.8531 17.6974 26.301 17.484C26.3003 17.4844 26.2995 17.4847 26.2988 17.4851L26.3035 17.4828C26.3027 17.4832 26.3018 17.4836 26.301 17.484C26.7448 17.2681 27.2011 17.079 27.6675 16.9178ZM27.6675 16.9178C27.6667 16.918 27.666 16.9183 27.6652 16.9186L27.6694 16.9171C27.6688 16.9173 27.6681 16.9176 27.6675 16.9178ZM28.7099 17.9462C28.4909 17.8585 28.2474 17.8537 28.0251 17.9326L28.023 17.9333L28.0208 17.9341C27.5938 18.0816 27.176 18.2548 26.7697 18.4525L26.7674 18.4537L26.765 18.4548C26.553 18.5554 26.3852 18.7301 26.293 18.9458C26.201 19.1614 26.1908 19.4032 26.2645 19.6257C26.4539 20.1922 26.4817 20.8002 26.3448 21.3816C26.2079 21.9633 25.9115 22.4953 25.4889 22.9179C25.0664 23.3404 24.5344 23.6368 23.9527 23.7738C23.3716 23.9106 22.7639 23.8829 22.1977 23.6937C21.9749 23.6209 21.7333 23.6314 21.5177 23.7233C21.3017 23.8153 21.1265 23.9827 21.0247 24.1943L21.0239 24.1959C20.8264 24.6033 20.6531 25.0221 20.5051 25.45L20.5045 25.4515L20.504 25.4531C20.4254 25.6757 20.4306 25.9194 20.5186 26.1386C20.6064 26.3574 20.7708 26.5368 20.981 26.6435C21.4995 26.9032 21.9381 27.2984 22.2501 27.7872C22.5624 28.2764 22.7363 28.841 22.7533 29.4212C22.7704 30.0013 22.63 30.5752 22.347 31.0819C22.1653 31.4071 21.7488 31.7645 21.4701 32.007C22.1865 32.97 22.9815 34.0043 23.249 35.1749C23.6272 35.1657 23.8993 35.2234 24.2598 35.3468C24.791 35.5285 25.2653 35.8463 25.6352 36.2686C26.0052 36.6908 26.258 37.2027 26.3683 37.7532C26.4786 38.3033 26.4428 38.8727 26.2644 39.4046C26.1908 39.627 26.201 39.8687 26.293 40.0843C26.3852 40.3 26.553 40.4747 26.765 40.5753L26.7674 40.5764L26.7697 40.5776C27.176 40.7753 27.5938 40.9485 28.0208 41.096L28.0233 41.0969L28.0257 41.0977C28.2478 41.1768 28.4912 41.1722 28.7102 41.0845C28.9288 40.997 29.1081 40.8328 29.2143 40.6226C29.4811 40.0894 29.891 39.6409 30.3982 39.3273C30.9057 39.0136 31.4905 38.8474 32.0871 38.8474C32.6838 38.8474 33.2686 39.0136 33.7761 39.3273C34.2834 39.6409 34.6933 40.0895 34.9601 40.6228C35.066 40.8328 35.2449 40.9969 35.4632 41.0844C35.6818 41.172 35.9248 41.1767 36.1465 41.0977L36.1491 41.0968L36.1516 41.0959C36.5794 40.9484 36.9979 40.7752 37.4049 40.5774L37.4058 40.577C37.6175 40.4745 37.785 40.299 37.8774 40.0826C37.9695 39.8671 37.9807 39.6257 37.9092 39.4026C37.7287 38.8641 37.6943 38.2873 37.8097 37.7311C37.9253 37.1738 38.1872 36.6572 38.5683 36.2345C38.9495 35.8117 39.4363 35.498 39.9788 35.3256C40.3441 35.2094 41.1002 35.1993 41.4801 35.2177C41.7424 34.0577 42.205 33.3219 42.912 32.3663C42.6272 32.128 42.0485 31.4451 41.8603 31.1213C41.5656 30.6143 41.4154 30.0362 41.426 29.4499C41.4367 28.8635 41.6077 28.2913 41.9207 27.7953C42.2331 27.3001 42.675 26.8998 43.1986 26.6377C43.4077 26.5303 43.5708 26.3508 43.6577 26.1323C43.7449 25.9133 43.7495 25.6699 43.6707 25.4477L43.67 25.4458C43.5198 25.0174 43.3461 24.5976 43.1498 24.1883C43.0469 23.9763 42.8707 23.8087 42.6538 23.7166C42.4369 23.6246 42.194 23.6142 41.9701 23.6875C41.4041 23.8759 40.7968 23.903 40.2162 23.7656C39.6352 23.6282 39.104 23.3315 38.6822 22.9089C38.2604 22.4864 37.9648 21.9546 37.8284 21.3734C37.6924 20.7936 37.7202 20.1874 37.9088 19.6225C37.979 19.4001 37.9671 19.1599 37.8752 18.9455C37.7829 18.7301 37.616 18.5551 37.4051 18.4528C36.9981 18.255 36.5794 18.0817 36.1516 17.9342L36.1494 17.9334L36.1472 17.9326C35.9252 17.8538 35.6821 17.8587 35.4635 17.9463C35.2451 18.0338 35.0661 18.1978 34.9599 18.4077C34.6931 18.9409 34.2833 19.3893 33.7761 19.7028C33.2686 20.0165 32.6838 20.1827 32.0871 20.1827C31.4905 20.1827 30.9057 20.0165 30.3982 19.7028C29.8911 19.3893 29.4812 18.9409 29.2145 18.4078C29.1079 18.1978 28.9286 18.0337 28.7099 17.9462ZM33.1756 23.8945C32.0433 23.6749 30.871 23.8025 29.8125 24.2607C28.754 24.7189 27.8586 25.4862 27.2438 26.4621C26.629 27.438 26.3234 28.5768 26.3671 29.7294C26.4232 31.158 27.0112 32.5141 28.0158 33.5314C29.0204 34.5488 30.3691 35.154 31.797 35.228C32.9488 35.2862 34.0913 34.9951 35.0748 34.3927C36.0584 33.7903 36.837 32.9047 37.3085 31.852C37.7801 30.7994 37.9225 29.6288 37.7172 28.4938C37.5118 27.3588 36.9683 26.3123 36.1579 25.4916C35.3475 24.6709 34.3079 24.1142 33.1756 23.8945ZM29.3851 23.2732C30.6426 22.7289 32.0353 22.5773 33.3805 22.8382C34.7257 23.0992 35.9607 23.7605 36.9235 24.7356C37.8863 25.7106 38.532 26.9538 38.7759 28.3023C39.0199 29.6507 38.8507 31.0413 38.2905 32.2919C37.7303 33.5424 36.8053 34.5945 35.6368 35.3103C34.4683 36.026 33.1107 36.3719 31.7422 36.3026L31.7415 36.3026C30.0455 36.2147 28.4435 35.4959 27.2502 34.2875C26.0569 33.079 25.3584 31.4681 25.292 29.771L25.2919 29.7704C25.24 28.401 25.603 27.048 26.3334 25.8886C27.0638 24.7292 28.1275 23.8176 29.3851 23.2732Z" fill="#32FA87"/>
<path d="M104.594 45.3806H82.477C82.4062 45.3806 82.3362 45.3666 82.2709 45.3394C82.2056 45.3123 82.1464 45.2725 82.0965 45.2223C82.0466 45.1722 82.0072 45.1127 81.9804 45.0472C81.9536 44.9818 81.9401 44.9117 81.9405 44.841V37.2681C81.9421 35.1154 82.798 33.0513 84.3202 31.5291C85.8424 30.0069 87.9064 29.1511 90.0592 29.1494H97.0118C99.1645 29.1511 101.229 30.0069 102.751 31.5291C104.273 33.0513 105.129 35.1154 105.131 37.2681V44.8472C105.129 44.9887 105.072 45.1239 104.971 45.2236C104.871 45.3234 104.736 45.3798 104.594 45.3806ZM83.0166 44.3045H104.054V37.2681C104.052 35.401 103.309 33.6112 101.989 32.2909C100.669 30.9707 98.8789 30.228 97.0118 30.2255H90.0592C88.1918 30.2271 86.4015 30.9696 85.0811 32.29C83.7607 33.6104 83.0182 35.4008 83.0166 37.2681V44.3045Z" fill="white"/>
<path d="M93.5913 26.2684C92.6619 26.2653 91.7421 26.0798 90.8841 25.7226C89.9391 25.3281 89.0932 24.7292 88.4072 23.9689C87.7212 23.2086 87.2121 22.3058 86.9165 21.3254C86.6209 20.3449 86.5461 19.3112 86.6976 18.2984C86.849 17.2857 87.2228 16.319 87.7922 15.4679C88.3617 14.6168 89.1125 13.9024 89.9909 13.376C90.8693 12.8496 91.8533 12.5242 92.8724 12.4234C93.8914 12.3225 94.9201 12.4486 95.8846 12.7926C96.8492 13.1366 97.7255 13.6899 98.4508 14.4128C99.0968 15.058 99.6093 15.8242 99.959 16.6676C100.309 17.511 100.489 18.4151 100.489 19.3281C100.489 20.2411 100.309 21.1452 99.959 21.9886C99.6093 22.832 99.0968 23.5982 98.4508 24.2433C97.8153 24.8859 97.0584 25.3958 96.2242 25.7434C95.39 26.0911 94.4951 26.2695 93.5913 26.2684ZM93.5913 13.4484C92.8052 13.4503 92.0272 13.6084 91.3027 13.9136C90.5028 14.2453 89.7864 14.7503 89.205 15.3922C88.6237 16.0341 88.1919 16.7968 87.9407 17.6256C87.6895 18.4544 87.6252 19.3285 87.7524 20.1852C87.8797 21.0418 88.1952 21.8595 88.6764 22.5795C89.1576 23.2995 89.7924 23.9039 90.5352 24.3491C91.278 24.7944 92.1102 25.0694 92.9721 25.1543C93.8339 25.2393 94.7038 25.1322 95.5193 24.8406C96.3347 24.549 97.0754 24.0802 97.6879 23.4681C98.7815 22.3646 99.3951 20.8739 99.3951 19.3203C99.3951 17.7668 98.7815 16.276 97.6879 15.1726C97.1521 14.6281 96.5136 14.1953 95.8093 13.8994C95.105 13.6034 94.3491 13.4501 93.5851 13.4484H93.5913Z" fill="white"/>
<path d="M23.0506 45.3809H0.936615C0.865901 45.3809 0.795884 45.3669 0.730591 45.3398C0.665298 45.3126 0.606017 45.2728 0.556158 45.2227C0.5063 45.1725 0.466847 45.113 0.440069 45.0476C0.413291 44.9821 0.399716 44.912 0.400125 44.8413V37.2684C0.400124 35.1147 1.25528 33.049 2.77766 31.5255C4.30003 30.0019 6.36503 29.1452 8.51881 29.1436H15.4715C17.6253 29.1452 19.6903 30.0019 21.2126 31.5255C22.735 33.049 23.5902 35.1147 23.5902 37.2684V44.8475C23.5885 44.9896 23.531 45.1252 23.4299 45.2251C23.3289 45.3249 23.1926 45.3809 23.0506 45.3809ZM1.47311 44.3048H22.5141V37.2684C22.5116 35.4014 21.7688 33.6115 20.4486 32.2913C19.1284 30.9711 17.3385 30.2283 15.4715 30.2258H8.51881C6.65121 30.2275 4.86053 30.9699 3.53965 32.2902C2.21877 33.6105 1.47557 35.4008 1.47311 37.2684V44.3048Z" fill="white"/>
<path d="M12.051 26.2683C11.1215 26.2656 10.2017 26.0801 9.34373 25.7226C8.39473 25.3319 7.54428 24.7355 6.85373 23.9763C6.16319 23.2171 5.64977 22.3141 5.35052 21.3324C5.05128 20.3508 4.97366 19.3149 5.12328 18.2996C5.2729 17.2843 5.64602 16.3149 6.21571 15.4613C6.78541 14.6077 7.53749 13.8912 8.41768 13.3634C9.29786 12.8357 10.2842 12.51 11.3056 12.4097C12.3269 12.3094 13.3578 12.437 14.3238 12.7834C15.2898 13.1298 16.1669 13.6864 16.8918 14.4128C17.5379 15.058 18.0504 15.8242 18.4001 16.6676C18.7497 17.511 18.9297 18.4151 18.9297 19.3281C18.9297 20.2411 18.7497 21.1452 18.4001 21.9886C18.0504 22.832 17.5379 23.5982 16.8918 24.2433C16.2585 24.8837 15.5047 25.3923 14.6739 25.7398C13.843 26.0874 12.9516 26.267 12.051 26.2683ZM12.051 13.4484C11.2638 13.4499 10.4848 13.608 9.75927 13.9136C8.95934 14.2453 8.24291 14.7503 7.66157 15.3922C7.08022 16.0341 6.64842 16.7968 6.39725 17.6256C6.14608 18.4544 6.08178 19.3285 6.209 20.1852C6.33621 21.0418 6.65176 21.8595 7.13294 22.5795C7.61413 23.2995 8.24896 23.9039 8.99175 24.3491C9.73454 24.7944 10.5668 25.0694 11.4286 25.1543C12.2904 25.2393 13.1604 25.1322 13.9758 24.8406C14.7913 24.549 15.5319 24.0802 16.1444 23.4681C17.2381 22.3646 17.8517 20.8739 17.8517 19.3203C17.8517 17.7668 17.2381 16.276 16.1444 15.1726C15.6094 14.6279 14.9715 14.195 14.2677 13.899C13.5639 13.603 12.8083 13.4498 12.0448 13.4484H12.051Z" fill="white"/>
<path d="M63.7929 45.3806H41.6758C41.6051 45.3806 41.5351 45.3666 41.4698 45.3394C41.4045 45.3123 41.3452 45.2725 41.2954 45.2223C41.2455 45.1722 41.2061 45.1127 41.1793 45.0472C41.1525 44.9818 41.1389 44.9117 41.1394 44.841V37.2681C41.141 35.1154 41.9969 33.0513 43.5191 31.5291C45.0413 30.0069 47.1053 29.1511 49.258 29.1494H56.2107C58.365 29.1486 60.4315 30.0034 61.9557 31.5258C63.4799 33.0483 64.337 35.1138 64.3387 37.2681V44.8472C64.3383 44.9182 64.3238 44.9884 64.2961 45.0537C64.2684 45.119 64.2279 45.1782 64.1772 45.2279C64.1264 45.2775 64.0663 45.3165 64.0003 45.3427C63.9344 45.3689 63.8639 45.3818 63.7929 45.3806ZM42.2154 44.3045H63.2533V37.2681C63.2508 35.401 62.5081 33.6112 61.1879 32.2909C59.8676 30.9707 58.0778 30.228 56.2107 30.2255H49.258C47.3907 30.2271 45.6004 30.9696 44.28 32.29C42.9596 33.6104 42.2171 35.4008 42.2154 37.2681V44.3045Z" fill="white"/>
<path d="M52.7901 26.2689C51.8607 26.2658 50.9409 26.0803 50.0828 25.7231C49.1365 25.3299 48.2891 24.7318 47.6016 23.9719C46.914 23.2119 46.4035 22.3091 46.1067 21.3282C45.8099 20.3474 45.7341 19.313 45.8849 18.2993C46.0358 17.2857 46.4094 16.3181 46.9789 15.4662C47.5484 14.6142 48.2997 13.8991 49.1787 13.3723C50.0576 12.8454 51.0425 12.52 52.0623 12.4193C53.0821 12.3186 54.1115 12.4452 55.0766 12.79C56.0416 13.1348 56.9182 13.6892 57.6433 14.4134C58.9418 15.7165 59.6709 17.4812 59.6709 19.3209C59.6709 21.1605 58.9418 22.9252 57.6433 24.2284C57.0098 24.873 56.2546 25.3853 55.4215 25.7356C54.5883 26.0859 53.6939 26.2672 52.7901 26.2689ZM52.7901 13.4489C52.0039 13.4508 51.226 13.6089 50.5015 13.9141C49.7036 14.2478 48.9894 14.754 48.4104 15.3964C47.8313 16.0388 47.4017 16.8015 47.1524 17.6297C46.903 18.4578 46.8401 19.3309 46.9682 20.1862C47.0964 21.0416 47.4123 21.8579 47.8933 22.5767C48.3743 23.2954 49.0086 23.8988 49.7504 24.3433C50.4923 24.7879 51.3234 25.0627 52.1841 25.148C53.0447 25.2332 53.9136 25.1269 54.7283 24.8365C55.543 24.5461 56.2832 24.079 56.896 23.4686C57.9896 22.3652 58.6032 20.8744 58.6032 19.3209C58.6032 17.7673 57.9896 16.2766 56.896 15.1731C56.3597 14.6267 55.7198 14.1927 55.0137 13.8967C54.3076 13.6006 53.5495 13.4484 52.7839 13.4489H52.7901Z" fill="white"/>
<path d="M133.558 37.0293C130.353 37.07 127.181 36.3751 124.286 34.9981C121.513 33.6618 119.194 31.5394 117.619 28.8951C115.965 26.1889 115.159 22.8232 115.203 18.798C115.246 14.8699 116.084 11.4928 117.715 8.66666C119.267 5.93013 121.569 3.69508 124.351 2.22568C127.252 0.717536 130.482 -0.046501 133.751 0.00218965C137.348 0.00218965 140.376 0.648252 142.834 1.94038C145.154 3.11183 147.133 4.86126 148.58 7.01998C149.934 9.05922 150.833 11.366 151.216 13.7835H142.071C141.864 12.175 141.26 10.9894 140.26 10.2265C139.291 9.4776 138.16 8.96763 136.957 8.73799C135.902 8.52093 134.828 8.40361 133.751 8.38757C130.443 8.38757 127.987 9.24554 126.382 10.9615C124.778 12.6774 123.974 15.0549 123.97 18.094C123.97 21.4391 124.753 24.043 126.32 25.9057C127.887 27.7684 130.342 28.6987 133.685 28.6967C134.798 28.6804 135.906 28.5421 136.988 28.2842C138.217 28.0078 139.36 27.4338 140.316 26.6127C141.308 25.7672 141.911 24.4967 142.124 22.8015H151.334C150.913 25.3035 149.987 27.6935 148.611 29.8255C147.165 32.05 145.16 33.8552 142.796 35.0601C140.316 36.375 137.236 37.0314 133.558 37.0293Z" fill="white"/>
<path d="M158.01 36.3939V0.638184H185.068V8.19557H166.712V14.7358H180.357V21.8497H166.712V29.3451H185.765V36.3939H158.01Z" fill="white"/>
<path d="M202.028 36.3939H193.134V0.638184H202.028V36.3939ZM200.818 0.638184H208.261C212.325 0.638184 215.53 1.68532 217.874 3.7796C220.219 5.87387 221.394 9.01839 221.4 13.2131C221.4 16.7691 220.193 19.5745 217.778 21.6295C215.363 23.6845 212.188 24.711 208.251 24.7089H200.88V18.485H206.915C208.547 18.5278 210.15 18.0463 211.489 17.1112C212.756 16.2036 213.391 14.8598 213.393 13.0798C213.393 11.2605 212.773 9.91668 211.532 9.04837C210.292 8.18006 208.757 7.74694 206.927 7.74901H200.818V0.638184Z" fill="white"/>
<path d="M118.363 49.44C117.847 49.4478 117.337 49.3297 116.878 49.0958C116.433 48.8673 116.066 48.5122 115.823 48.0755C115.549 47.5554 115.416 46.9729 115.436 46.3854C115.424 45.8044 115.555 45.2294 115.817 44.7108C116.056 44.2659 116.424 43.903 116.871 43.6688C117.343 43.4279 117.867 43.3065 118.397 43.3153C118.858 43.3043 119.316 43.3998 119.734 43.5944C120.106 43.7679 120.426 44.035 120.664 44.3697C120.907 44.7142 121.067 45.11 121.132 45.5264H120.23C120.19 45.2277 120.065 44.9468 119.87 44.717C119.691 44.5166 119.465 44.3641 119.213 44.2735C118.954 44.1826 118.681 44.1365 118.406 44.1371C118.122 44.1194 117.838 44.1614 117.57 44.2602C117.303 44.3589 117.06 44.5124 116.856 44.7108C116.465 45.1631 116.267 45.7514 116.307 46.3482C116.264 46.9627 116.457 47.5706 116.847 48.0476C117.044 48.2493 117.282 48.4061 117.545 48.5073C117.809 48.6084 118.091 48.6515 118.372 48.6337C118.665 48.6366 118.956 48.5861 119.231 48.4848C119.488 48.3891 119.717 48.2315 119.898 48.0259C120.092 47.7978 120.217 47.5192 120.258 47.2227H121.173C121.104 47.6381 120.944 48.0331 120.704 48.3794C120.467 48.7187 120.147 48.9911 119.774 49.1702C119.33 49.366 118.848 49.4582 118.363 49.44Z" fill="white"/>
<path d="M124.953 49.4806C124.004 49.4806 123.28 49.2015 122.782 48.6433C122.257 48.0119 121.989 47.2058 122.032 46.3857C122.015 45.8268 122.121 45.2711 122.342 44.7576C122.546 44.3092 122.884 43.9346 123.309 43.6846C123.807 43.4116 124.37 43.2787 124.937 43.3001C125.882 43.3001 126.606 43.5792 127.108 44.1374C127.627 44.7682 127.891 45.57 127.849 46.3857C127.86 46.9422 127.747 47.4942 127.517 48.0013C127.31 48.4543 126.971 48.8338 126.544 49.0898C126.059 49.3637 125.509 49.4989 124.953 49.4806ZM124.953 48.6402C125.353 48.6535 125.749 48.5524 126.094 48.3487C126.398 48.1571 126.637 47.8782 126.779 47.5486C126.935 47.1808 127.012 46.7848 127.006 46.3857C127.013 45.9827 126.937 45.5824 126.782 45.2103C126.643 44.8803 126.406 44.601 126.103 44.4103C125.755 44.2065 125.356 44.1065 124.953 44.1219C124.667 44.1033 124.381 44.1494 124.116 44.2568C123.851 44.3642 123.613 44.5301 123.421 44.7421C123.05 45.2106 122.864 45.7985 122.897 46.395C122.89 46.7908 122.966 47.1837 123.12 47.5486C123.258 47.88 123.495 48.1605 123.799 48.3518C124.145 48.5568 124.542 48.657 124.943 48.6402H124.953Z" fill="white"/>
<path d="M133.292 43.4053H134.188V49.3346H132.532L130.051 43.796H130.029V49.3346H129.121V43.4053H130.671L133.273 48.9438H133.295L133.292 43.4053Z" fill="white"/>
<path d="M138.176 49.4588C137.654 49.4723 137.138 49.3493 136.678 49.1021C136.252 48.8621 135.908 48.4989 135.692 48.0602C135.446 47.5405 135.33 46.9691 135.354 46.3949C135.352 45.8108 135.485 45.2343 135.745 44.711C135.975 44.2636 136.336 43.8969 136.78 43.6597C137.259 43.4121 137.792 43.2884 138.331 43.3C138.986 43.2635 139.634 43.4469 140.173 43.821C140.643 44.2028 140.954 44.7453 141.047 45.3436L140.204 45.4583C140.152 45.169 140.021 44.8996 139.826 44.68C139.644 44.486 139.419 44.3392 139.168 44.252C138.898 44.1632 138.615 44.1192 138.331 44.1218C138.036 44.1009 137.741 44.1457 137.466 44.253C137.191 44.3602 136.943 44.5273 136.74 44.742C136.371 45.1972 136.184 45.7725 136.213 46.3577C136.175 46.9717 136.381 47.576 136.787 48.0384C137.001 48.2441 137.255 48.4032 137.534 48.5057C137.812 48.6082 138.109 48.6518 138.405 48.6339C138.704 48.6362 139 48.5804 139.277 48.4695C139.54 48.3641 139.772 48.1946 139.953 47.9764C140.142 47.7374 140.262 47.451 140.3 47.1484H138.836V46.4848H141.162V49.3502H140.564L140.362 48.1811H140.34C140.282 48.3328 140.202 48.4757 140.105 48.6059C139.985 48.7683 139.841 48.9106 139.677 49.0277C139.482 49.1626 139.267 49.2671 139.041 49.3378C138.761 49.4249 138.469 49.4658 138.176 49.4588Z" fill="white"/>
<path d="M142.536 49.3345V43.4052H144.611C145.046 43.3964 145.48 43.4497 145.901 43.5634C146.222 43.6481 146.508 43.834 146.716 44.0937C146.92 44.3958 147.019 44.7564 146.999 45.1202C147.004 45.3985 146.952 45.675 146.847 45.9326C146.752 46.1607 146.594 46.3566 146.391 46.497C146.164 46.6396 145.899 46.7109 145.631 46.7017C145.821 46.6909 146.009 46.7362 146.174 46.832C146.301 46.9178 146.401 47.0383 146.462 47.1793C146.526 47.3253 146.569 47.4799 146.589 47.6382C146.61 47.7995 146.625 47.9577 146.636 48.1127C146.644 48.2481 146.667 48.3822 146.704 48.5128C146.717 48.5622 146.74 48.6083 146.772 48.6479C146.804 48.6875 146.844 48.7197 146.89 48.7422C146.953 48.7632 147.019 48.7712 147.085 48.7659C147.151 48.7606 147.216 48.742 147.275 48.7112V49.2384C147.165 49.3272 147.035 49.387 146.896 49.4121C146.739 49.4435 146.576 49.4328 146.425 49.3811C146.259 49.3199 146.118 49.2053 146.025 49.0554C145.904 48.8348 145.848 48.5842 145.864 48.3329C145.866 48.0863 145.854 47.8399 145.826 47.5948C145.813 47.431 145.756 47.2737 145.662 47.139C145.561 47.0198 145.426 46.9353 145.274 46.8971C145.041 46.8375 144.802 46.8083 144.561 46.8103C144.251 46.8103 143.885 46.8103 143.42 46.8289V49.3345H142.536ZM143.417 46.1745H144.657C144.953 46.18 145.249 46.1571 145.541 46.1063C145.744 46.0778 145.929 45.9763 146.062 45.821C146.191 45.6354 146.253 45.4109 146.236 45.1853C146.259 44.9283 146.184 44.672 146.025 44.4689C145.857 44.3062 145.638 44.2074 145.405 44.1898C145.077 44.1477 144.746 44.128 144.415 44.1309H143.417V46.1745Z" fill="white"/>
<path d="M148.527 49.3346V43.4053H152.633V44.165H149.389V45.9513H151.917V46.6769H149.389V48.6058H152.739V49.3222L148.527 49.3346Z" fill="white"/>
<path d="M156.296 49.4587C155.982 49.4594 155.669 49.4209 155.365 49.344C155.074 49.2708 154.796 49.1503 154.543 48.9874C154.302 48.8292 154.1 48.6168 153.954 48.3671C153.8 48.0815 153.721 47.7614 153.725 47.4368H154.609C154.612 47.494 154.62 47.551 154.63 47.6074C154.651 47.7156 154.687 47.8202 154.739 47.9175C154.809 48.0489 154.903 48.1666 155.015 48.2648C155.165 48.3923 155.341 48.4873 155.53 48.5439C155.802 48.6229 156.084 48.6595 156.367 48.6524C156.587 48.6577 156.807 48.6295 157.018 48.5687C157.172 48.5243 157.315 48.4494 157.44 48.3485C157.534 48.27 157.611 48.1729 157.666 48.0632C157.708 47.9815 157.732 47.8915 157.735 47.7996C157.739 47.7029 157.723 47.6063 157.687 47.516C157.652 47.4258 157.598 47.3439 157.53 47.2755C157.37 47.1337 157.182 47.0279 156.978 46.9654C156.727 46.8791 156.473 46.8056 156.215 46.7453C155.936 46.677 155.66 46.6026 155.387 46.522C155.124 46.4491 154.871 46.345 154.633 46.2119C154.396 46.0824 154.202 45.8847 154.078 45.6443C153.953 45.4039 153.904 45.1317 153.936 44.8629C153.948 44.5556 154.067 44.262 154.271 44.0318C154.498 43.7844 154.787 43.6015 155.108 43.5015C155.5 43.3715 155.911 43.3086 156.324 43.3154C156.716 43.3114 157.105 43.3863 157.468 43.5356C157.803 43.6752 158.093 43.9036 158.308 44.1962C158.533 44.521 158.642 44.912 158.618 45.3063H157.766C157.783 45.0973 157.732 44.8881 157.62 44.7109C157.516 44.5609 157.376 44.4394 157.214 44.3574C157.053 44.2743 156.88 44.2158 156.702 44.1838C156.546 44.1545 156.389 44.139 156.23 44.1372C155.893 44.1235 155.557 44.1984 155.257 44.3543C155.141 44.4081 155.042 44.4932 154.972 44.6C154.902 44.7069 154.863 44.8312 154.86 44.959C154.852 45.0578 154.866 45.1571 154.901 45.2498C154.935 45.3425 154.99 45.4264 155.061 45.4955C155.222 45.6387 155.413 45.7446 155.62 45.8056C155.849 45.8832 156.106 45.9514 156.389 46.0165C156.671 46.0816 156.947 46.1498 157.22 46.2274C157.482 46.3003 157.735 46.4044 157.973 46.5375C158.194 46.6619 158.379 46.8414 158.51 47.0585C158.648 47.3159 158.708 47.6078 158.683 47.8989C158.676 48.2115 158.556 48.5109 158.345 48.7424C158.113 48.9884 157.823 49.1727 157.502 49.2789C157.113 49.4088 156.705 49.4697 156.296 49.4587Z" fill="white"/>
<path d="M162.299 49.4587C161.986 49.4596 161.673 49.421 161.369 49.344C161.077 49.2719 160.799 49.1514 160.547 48.9873C160.304 48.8307 160.102 48.618 159.958 48.3671C159.801 48.0823 159.721 47.7618 159.725 47.4368H160.609C160.613 47.494 160.62 47.551 160.631 47.6073C160.651 47.7161 160.689 47.8208 160.743 47.9174C160.812 48.0486 160.904 48.1663 161.015 48.2648C161.166 48.3923 161.341 48.4873 161.53 48.5439C161.802 48.6228 162.085 48.6594 162.368 48.6524C162.589 48.6576 162.809 48.6294 163.022 48.5687C163.175 48.5236 163.317 48.4487 163.441 48.3485C163.536 48.2709 163.613 48.1735 163.667 48.0632C163.709 47.9815 163.732 47.8914 163.735 47.7996C163.739 47.7028 163.723 47.6062 163.688 47.516C163.653 47.4258 163.599 47.3439 163.53 47.2755C163.371 47.133 163.183 47.0272 162.978 46.9654C162.728 46.8791 162.473 46.8056 162.216 46.7452C161.937 46.677 161.664 46.6026 161.388 46.5219C161.126 46.4495 160.874 46.3454 160.637 46.2118C160.399 46.0832 160.204 45.8857 160.079 45.6452C159.954 45.4046 159.904 45.1321 159.936 44.8629C159.952 44.5562 160.07 44.2636 160.271 44.0318C160.499 43.7844 160.788 43.6015 161.109 43.5015C161.5 43.3717 161.911 43.3088 162.324 43.3154C162.716 43.3114 163.106 43.3863 163.468 43.5356C163.803 43.6752 164.094 43.9036 164.309 44.1961C164.534 44.5209 164.643 44.9119 164.619 45.3063H163.766C163.782 45.097 163.729 44.8883 163.617 44.7109C163.514 44.5603 163.374 44.4385 163.211 44.3574C163.051 44.2748 162.88 44.2163 162.702 44.1837C162.546 44.1547 162.387 44.1391 162.228 44.1372C161.89 44.1235 161.554 44.1983 161.254 44.3543C161.139 44.4082 161.04 44.4934 160.971 44.6003C160.901 44.7072 160.863 44.8315 160.86 44.959C160.852 45.0575 160.865 45.1567 160.9 45.2495C160.934 45.3422 160.988 45.4263 161.059 45.4955C161.22 45.6387 161.41 45.7446 161.617 45.8056C161.85 45.8831 162.104 45.9513 162.386 46.0165C162.668 46.0816 162.944 46.1498 163.217 46.2273C163.48 46.3002 163.733 46.4043 163.971 46.5375C164.192 46.6618 164.377 46.8413 164.507 47.0584C164.647 47.3154 164.707 47.6077 164.681 47.8988C164.673 48.2115 164.553 48.5109 164.343 48.7423C164.111 48.9877 163.823 49.172 163.503 49.2788C163.115 49.4084 162.708 49.4693 162.299 49.4587Z" fill="white"/>
<path d="M168.551 49.4806C167.606 49.4806 166.883 49.2015 166.38 48.6433C165.856 48.0116 165.589 47.2054 165.633 46.3857C165.616 45.8269 165.722 45.2712 165.943 44.7576C166.15 44.3096 166.489 43.9353 166.914 43.6846C167.411 43.4116 167.972 43.2787 168.539 43.3001C169.488 43.3001 170.211 43.5792 170.71 44.1374C171.231 44.7671 171.496 45.5695 171.454 46.3857C171.465 46.9422 171.351 47.4942 171.122 48.0013C170.913 48.4541 170.573 48.8334 170.145 49.0898C169.66 49.3642 169.108 49.4995 168.551 49.4806ZM168.551 48.6402C168.952 48.6539 169.348 48.5527 169.692 48.3487C169.997 48.158 170.236 47.8788 170.378 47.5486C170.534 47.1813 170.612 46.7849 170.604 46.3857C170.611 45.983 170.536 45.5831 170.384 45.2104C170.243 44.8816 170.006 44.6028 169.705 44.4103C169.355 44.2069 168.955 44.1069 168.551 44.1219C168.266 44.1037 167.98 44.1501 167.715 44.2574C167.449 44.3648 167.212 44.5304 167.019 44.7421C166.651 45.2117 166.466 45.7991 166.498 46.395C166.492 46.7905 166.567 47.183 166.718 47.5486C166.858 47.8788 167.095 48.1589 167.398 48.3518C167.741 48.555 168.137 48.6551 168.536 48.6402H168.551Z" fill="white"/>
<path d="M175.439 49.3346V43.4053H179.545V44.165H176.288V45.9513H178.816V46.6769H176.288V48.6058H179.638V49.3222L175.439 49.3346Z" fill="white"/>
<path d="M183.21 49.4587C182.896 49.4594 182.584 49.4208 182.28 49.344C181.989 49.2714 181.712 49.1508 181.461 48.9874C181.218 48.8296 181.015 48.6172 180.869 48.3671C180.715 48.0815 180.636 47.7614 180.639 47.4368H181.523C181.527 47.494 181.534 47.551 181.545 47.6074C181.565 47.7156 181.602 47.8202 181.653 47.9175C181.724 48.0489 181.817 48.1666 181.929 48.2648C182.08 48.3923 182.255 48.4873 182.444 48.5439C182.716 48.6229 182.998 48.6595 183.281 48.6524C183.501 48.6577 183.721 48.6295 183.933 48.5687C184.087 48.5243 184.23 48.4494 184.354 48.3485C184.449 48.27 184.526 48.1729 184.581 48.0632C184.623 47.9815 184.646 47.8915 184.649 47.7996C184.653 47.7029 184.637 47.6063 184.602 47.516C184.567 47.4258 184.513 47.3439 184.444 47.2755C184.285 47.1331 184.097 47.0272 183.892 46.9654C183.642 46.8791 183.387 46.8056 183.129 46.7453C182.85 46.677 182.574 46.6026 182.301 46.522C182.039 46.4491 181.786 46.345 181.548 46.2119C181.31 46.0824 181.117 45.8847 180.992 45.6443C180.868 45.4039 180.818 45.1317 180.85 44.8629C180.864 44.5559 180.982 44.2628 181.185 44.0318C181.413 43.7844 181.701 43.6015 182.022 43.5015C182.414 43.3715 182.825 43.3086 183.238 43.3154C183.63 43.3114 184.019 43.3863 184.382 43.5356C184.717 43.6752 185.008 43.9036 185.223 44.1962C185.448 44.521 185.557 44.912 185.533 45.3063H184.661C184.679 45.0973 184.628 44.8881 184.516 44.7109C184.412 44.5609 184.272 44.4394 184.109 44.3574C183.949 44.2748 183.778 44.2163 183.601 44.1838C183.444 44.1547 183.286 44.1392 183.126 44.1372C182.788 44.1235 182.453 44.1984 182.153 44.3543C182.037 44.4086 181.939 44.4939 181.869 44.6006C181.799 44.7074 181.76 44.8314 181.756 44.959C181.748 45.0577 181.763 45.1568 181.797 45.2495C181.832 45.3421 181.887 45.4261 181.957 45.4955C182.118 45.6387 182.309 45.7446 182.515 45.8056C182.748 45.8832 183.002 45.9514 183.284 46.0165C183.567 46.0816 183.843 46.1498 184.116 46.2274C184.378 46.3003 184.631 46.4044 184.869 46.5375C185.09 46.6619 185.275 46.8414 185.406 47.0585C185.544 47.3159 185.604 47.6078 185.579 47.8989C185.574 48.2103 185.458 48.5096 185.251 48.7424C185.019 48.9877 184.73 49.172 184.41 49.2789C184.024 49.4076 183.617 49.4685 183.21 49.4587Z" fill="white"/>
<path d="M186.441 44.165V43.4053H190.969V44.165H186.441ZM189.146 43.5944V49.3346H188.274V43.5944H189.146Z" fill="white"/>
<path d="M191.273 49.3346L193.264 43.4053H194.706L196.737 49.3346H195.807L194.002 43.7805L192.2 49.3408L191.273 49.3346ZM192.485 47.5639L192.516 46.8692H195.466L195.506 47.5639H192.485Z" fill="white"/>
<path d="M202.691 48.1811C202.387 48.6173 201.941 48.9349 201.429 49.0804C200.804 49.2599 200.156 49.3456 199.506 49.3347H197.906V43.4054H199.506C200.163 43.3916 200.815 43.5043 201.429 43.7372C201.939 43.9315 202.378 44.2739 202.691 44.7203C203.005 45.2096 203.162 45.783 203.141 46.3639C203.177 47.0011 203.02 47.6344 202.691 48.1811ZM199.413 48.5967H199.723C200.066 48.5995 200.407 48.5694 200.744 48.5067C201.027 48.4566 201.295 48.3409 201.525 48.1687C201.75 47.9966 201.924 47.766 202.028 47.502C202.154 47.1385 202.213 46.7548 202.201 46.3701C202.217 45.9415 202.109 45.5174 201.891 45.1483C201.687 44.8241 201.388 44.5706 201.035 44.4226C200.619 44.2524 200.173 44.17 199.723 44.1807H198.765V48.6122L199.413 48.5967Z" fill="white"/>
<path d="M206.899 49.4804C206.557 49.5022 206.214 49.4511 205.894 49.3302C205.573 49.2094 205.281 49.0217 205.039 48.7795C204.577 48.2299 204.345 47.5235 204.391 46.8072V43.396H205.321V46.7855C205.313 47.0803 205.357 47.3743 205.451 47.6538C205.525 47.868 205.646 48.063 205.805 48.2244C205.95 48.3636 206.123 48.4694 206.313 48.5345C206.513 48.6017 206.723 48.6352 206.933 48.6338C207.222 48.6388 207.508 48.5795 207.771 48.4601C208.022 48.3359 208.222 48.1289 208.338 47.874C208.489 47.5293 208.559 47.155 208.543 46.7793V43.4053H209.473V46.8165C209.521 47.5353 209.292 48.2451 208.834 48.8012C208.378 49.254 207.733 49.4804 206.899 49.4804Z" fill="white"/>
<path d="M210.509 49.3346L212.5 43.4053H213.942L215.983 49.3346H215.052L213.238 43.7805L211.436 49.3408L210.509 49.3346ZM211.722 47.5639L211.753 46.8692H214.699L214.742 47.5639H211.722Z" fill="white"/>
<path d="M217.142 49.2478V43.4053H218.017V49.2478H217.142ZM217.142 49.3346V48.5748H221.124V49.3346H217.142Z" fill="white"/>
<path d="M120.673 56.4517C120.368 56.8896 119.921 57.2085 119.408 57.3541C118.784 57.5325 118.137 57.6171 117.488 57.6053H115.888V51.6791H117.488C118.144 51.6637 118.796 51.7765 119.408 52.0109C119.919 52.2043 120.36 52.5468 120.673 52.994C120.987 53.4834 121.142 54.057 121.12 54.6376C121.157 55.2735 121.001 55.9058 120.673 56.4517ZM117.392 56.8704H117.718C118.061 56.8732 118.404 56.843 118.741 56.7804C119.023 56.7292 119.29 56.6135 119.52 56.4424C119.747 56.2648 119.919 56.0275 120.019 55.7571C120.148 55.3941 120.207 55.01 120.193 54.6252C120.207 54.1978 120.099 53.7752 119.882 53.4064C119.678 53.0806 119.378 52.826 119.023 52.6777C118.608 52.5075 118.161 52.4251 117.712 52.4358H116.747V56.8704H117.392Z" fill="white"/>
<path d="M122.382 57.6054V51.6792H126.491V52.4359H123.26V54.2376H125.787V54.9633H123.26V56.889H126.609V57.6054H122.382Z" fill="white"/>
<path d="M131.502 57.605H130.628V51.6788H131.502V57.605ZM131.375 51.6788H132.944C133.494 51.6415 134.037 51.8144 134.464 52.1626C134.652 52.3521 134.796 52.5798 134.888 52.8302C134.98 53.0806 135.018 53.3479 134.997 53.6139C135.012 53.8668 134.97 54.1198 134.875 54.3546C134.78 54.5895 134.634 54.8004 134.448 54.9722C134.026 55.3178 133.489 55.4916 132.944 55.4591H131.375V54.7954H132.839C133.197 54.8101 133.548 54.7005 133.834 54.4853C133.96 54.3738 134.057 54.235 134.12 54.0796C134.183 53.9242 134.21 53.7563 134.197 53.5891C134.211 53.4197 134.186 53.2495 134.123 53.0914C134.061 52.9333 133.963 52.7917 133.837 52.6774C133.548 52.4692 133.195 52.3674 132.839 52.389H131.375V51.6788Z" fill="white"/>
<path d="M136.238 57.6054V51.6792H138.312C138.748 51.6702 139.182 51.7234 139.602 51.8374C139.925 51.9208 140.211 52.107 140.418 52.3677C140.625 52.6685 140.725 53.0297 140.703 53.3941C140.709 53.6725 140.657 53.949 140.551 54.2066C140.458 54.4352 140.298 54.6307 140.092 54.7679C139.866 54.9106 139.603 54.9819 139.336 54.9726C139.526 54.963 139.714 55.0094 139.878 55.1059C140.005 55.192 140.106 55.3125 140.167 55.4532C140.23 55.5997 140.273 55.7541 140.294 55.9122C140.313 56.0735 140.328 56.2223 140.34 56.3836C140.347 56.5191 140.37 56.6534 140.409 56.7836C140.42 56.8334 140.443 56.88 140.474 56.9202C140.506 56.9603 140.546 56.9931 140.592 57.0162C140.719 57.0568 140.857 57.0456 140.976 56.9852V57.5124C140.867 57.6023 140.737 57.6621 140.598 57.686C140.442 57.7159 140.28 57.7052 140.13 57.655C139.963 57.5943 139.821 57.4783 139.73 57.3263C139.607 57.1073 139.55 56.8575 139.565 56.6069C139.568 56.3603 139.555 56.1138 139.528 55.8688C139.517 55.704 139.461 55.5454 139.367 55.4098C139.265 55.29 139.128 55.2053 138.976 55.1679C138.744 55.108 138.505 55.0798 138.266 55.0842C137.956 55.0842 137.587 55.0842 137.125 55.0997V57.6054H136.238ZM137.125 54.4485H138.346C138.642 54.4524 138.938 54.4296 139.23 54.3803C139.432 54.3489 139.616 54.2479 139.751 54.095C139.876 53.913 139.937 53.695 139.925 53.4747C139.948 53.2178 139.873 52.9617 139.714 52.7584C139.546 52.5956 139.327 52.4969 139.094 52.4793C138.766 52.4356 138.435 52.4159 138.105 52.4204H137.115L137.125 54.4485Z" fill="white"/>
<path d="M144.778 57.7539C143.829 57.7539 143.106 57.4748 142.607 56.9166C142.083 56.2849 141.816 55.4788 141.86 54.659C141.843 54.1002 141.949 53.5445 142.17 53.031C142.374 52.582 142.712 52.2071 143.138 51.958C143.636 51.6853 144.198 51.5524 144.766 51.5734C145.715 51.5734 146.434 51.8525 146.936 52.4107C147.455 53.0414 147.72 53.8434 147.678 54.659C147.688 55.2156 147.575 55.7675 147.346 56.2747C147.138 56.727 146.799 57.1063 146.372 57.3632C145.887 57.6376 145.335 57.7728 144.778 57.7539ZM144.778 56.9104C145.178 56.9251 145.574 56.825 145.919 56.622C146.223 56.4305 146.462 56.1516 146.605 55.822C146.76 55.4542 146.837 55.0582 146.831 54.659C146.839 54.256 146.763 53.8558 146.608 53.4837C146.471 53.1526 146.233 52.8728 145.929 52.6836C145.58 52.4799 145.181 52.3798 144.778 52.3952C144.492 52.376 144.206 52.4218 143.941 52.5292C143.675 52.6366 143.438 52.8029 143.246 53.0155C142.877 53.4848 142.692 54.0724 142.725 54.6683C142.718 55.063 142.793 55.4549 142.945 55.8189C143.083 56.1512 143.32 56.4328 143.624 56.6251C143.971 56.8278 144.368 56.9268 144.769 56.9104H144.778Z" fill="white"/>
<path d="M149.948 57.6054H149.086V51.6792H153.244V52.4359H149.948V54.1105H152.506V54.8361H149.948V57.6054Z" fill="white"/>
<path d="M154.463 52.4359V51.6792H156.944V52.4359H154.463ZM154.463 57.6054V56.8487H156.944V57.6054H154.463ZM155.275 57.4162V51.8684H156.131V57.4255L155.275 57.4162Z" fill="white"/>
<path d="M160.823 57.7357C160.51 57.7366 160.197 57.698 159.893 57.6209C159.601 57.5472 159.323 57.4257 159.071 57.2612C158.829 57.1037 158.627 56.8912 158.482 56.641C158.326 56.356 158.246 56.0356 158.249 55.7107H159.136C159.136 55.7313 159.142 55.7872 159.155 55.8781C159.177 55.9863 159.214 56.0908 159.266 56.1882C159.335 56.3199 159.428 56.4377 159.539 56.5356C159.69 56.6653 159.866 56.7606 160.057 56.8147C160.329 56.8963 160.611 56.934 160.895 56.9263C161.115 56.9313 161.334 56.9031 161.546 56.8426C161.7 56.7981 161.843 56.7233 161.968 56.6224C162.062 56.5439 162.139 56.4468 162.194 56.3371C162.236 56.2554 162.259 56.1653 162.262 56.0735C162.266 55.9762 162.25 55.8792 162.215 55.7884C162.18 55.6977 162.126 55.6153 162.057 55.5463C161.898 55.4044 161.71 55.2986 161.505 55.2362C161.273 55.1556 161.019 55.0811 160.74 55.0129C160.46 54.9447 160.188 54.8734 159.915 54.7927C159.652 54.7197 159.399 54.6156 159.161 54.4826C158.941 54.3597 158.758 54.1798 158.631 53.9616C158.495 53.709 158.436 53.4224 158.46 53.1367C158.475 52.8293 158.594 52.536 158.798 52.3057C159.026 52.0577 159.315 51.8738 159.636 51.7723C160.028 51.6449 160.439 51.583 160.851 51.5893C161.242 51.5853 161.631 51.6601 161.992 51.8095C162.325 51.948 162.615 52.1741 162.83 52.4638C163.053 52.7894 163.162 53.1798 163.14 53.574H162.287C162.304 53.366 162.253 53.1581 162.141 52.9817C162.038 52.8317 161.898 52.7101 161.735 52.6282C161.574 52.5451 161.402 52.4865 161.223 52.4545C161.067 52.4251 160.908 52.4096 160.749 52.408C160.411 52.3957 160.076 52.4693 159.775 52.622C159.66 52.677 159.563 52.7625 159.493 52.8692C159.424 52.9758 159.385 53.0995 159.381 53.2267C159.373 53.3259 159.387 53.4258 159.421 53.5191C159.456 53.6124 159.511 53.6969 159.583 53.7663C159.743 53.9106 159.934 54.0166 160.141 54.0764C160.392 54.1602 160.648 54.2306 160.907 54.2873C161.189 54.3524 161.465 54.4206 161.741 54.4981C162.003 54.5717 162.254 54.6758 162.492 54.8082C162.714 54.9309 162.899 55.1108 163.028 55.3292C163.167 55.5875 163.228 55.8804 163.205 56.1727C163.197 56.4854 163.077 56.7848 162.867 57.0162C162.633 57.2606 162.344 57.4447 162.023 57.5527C161.637 57.683 161.231 57.7449 160.823 57.7357Z" fill="white"/>
<path d="M166.824 57.7357C166.51 57.7364 166.198 57.6978 165.893 57.6209C165.602 57.5467 165.324 57.4251 165.072 57.2612C164.829 57.1037 164.627 56.8912 164.482 56.641C164.327 56.3557 164.248 56.0353 164.253 55.7107H165.124C165.128 55.7669 165.135 55.8228 165.146 55.8781C165.166 55.9866 165.202 56.0913 165.255 56.1882C165.324 56.3206 165.417 56.4386 165.531 56.5356C165.68 56.6653 165.855 56.7606 166.045 56.8147C166.317 56.8963 166.599 56.934 166.883 56.9263C167.103 56.9316 167.322 56.9033 167.534 56.8426C167.688 56.7981 167.831 56.7233 167.956 56.6224C168.05 56.5439 168.127 56.4468 168.182 56.3371C168.224 56.2554 168.247 56.1653 168.25 56.0735C168.255 55.9762 168.238 55.8792 168.203 55.7884C168.168 55.6977 168.114 55.6153 168.046 55.5463C167.886 55.4044 167.698 55.2986 167.494 55.2362C167.262 55.1556 167.008 55.0811 166.731 55.0129C166.452 54.9478 166.176 54.8734 165.903 54.7927C165.64 54.7197 165.387 54.6156 165.149 54.4826C164.912 54.3534 164.719 54.1562 164.595 53.9164C164.47 53.6766 164.42 53.4051 164.451 53.1367C164.464 52.8293 164.582 52.5356 164.786 52.3057C165.015 52.0583 165.303 51.8745 165.624 51.7723C166.016 51.6449 166.427 51.583 166.839 51.5893C167.232 51.5853 167.621 51.6601 167.984 51.8095C168.326 51.9437 168.624 52.1702 168.846 52.4638C169.07 52.7888 169.179 53.1797 169.156 53.574H168.288C168.307 53.3658 168.256 53.1571 168.142 52.9817C168.038 52.8317 167.898 52.7101 167.736 52.6282C167.575 52.5451 167.402 52.4865 167.224 52.4545C167.068 52.4253 166.911 52.4097 166.753 52.408C166.415 52.395 166.08 52.4687 165.779 52.622C165.663 52.6763 165.565 52.7616 165.495 52.8683C165.425 52.975 165.386 53.0991 165.382 53.2267C165.373 53.3259 165.387 53.4258 165.422 53.5191C165.457 53.6124 165.512 53.6969 165.583 53.7663C165.744 53.9106 165.934 54.0166 166.142 54.0764C166.394 54.1606 166.651 54.231 166.911 54.2873C167.19 54.3524 167.469 54.4206 167.742 54.4981C168.004 54.5723 168.257 54.6763 168.495 54.8082C168.716 54.9326 168.901 55.1121 169.032 55.3292C169.17 55.5878 169.23 55.8807 169.205 56.1727C169.198 56.4854 169.078 56.7848 168.867 57.0162C168.634 57.2612 168.345 57.4454 168.024 57.5527C167.638 57.683 167.231 57.7449 166.824 57.7357Z" fill="white"/>
<path d="M170.573 52.4359V51.6792H173.054V52.4359H170.573ZM170.573 57.6054V56.8487H173.054V57.6054H170.573ZM171.386 57.4162V51.8684H172.257V57.4255L171.386 57.4162Z" fill="white"/>
<path d="M177.185 57.754C176.24 57.754 175.516 57.4749 175.014 56.9167C174.49 56.285 174.223 55.4789 174.266 54.6591C174.25 54.1003 174.355 53.5445 174.577 53.031C174.782 52.5818 175.121 52.207 175.547 51.9581C176.044 51.685 176.606 51.5521 177.172 51.5735C178.121 51.5735 178.841 51.8526 179.343 52.4108C179.863 53.0407 180.128 53.8432 180.084 54.6591C180.096 55.2157 179.982 55.7678 179.752 56.2748C179.544 56.7271 179.205 57.1064 178.779 57.3633C178.293 57.6377 177.742 57.7729 177.185 57.754ZM177.185 56.9105C177.585 56.9252 177.981 56.8251 178.326 56.6221C178.63 56.4314 178.87 56.1523 179.011 55.822C179.168 55.4547 179.245 55.0584 179.238 54.6591C179.245 54.2565 179.17 53.8565 179.017 53.4838C178.878 53.154 178.641 52.8748 178.338 52.6837C177.989 52.4804 177.589 52.3803 177.185 52.3953C176.899 52.3765 176.613 52.4225 176.348 52.5299C176.082 52.6373 175.845 52.8033 175.653 53.0155C175.284 53.4849 175.099 54.0725 175.132 54.6684C175.126 55.0629 175.201 55.4545 175.352 55.8189C175.492 56.15 175.729 56.431 176.031 56.6252C176.378 56.8272 176.775 56.9262 177.175 56.9105H177.185Z" fill="white"/>
<path d="M185.523 51.6792H186.42V57.6054H184.767L182.27 52.0668H182.249V57.6054H181.356V51.6792H182.906L185.505 57.2178H185.527L185.523 51.6792Z" fill="white"/>
<path d="M187.545 57.6054L189.536 51.6792H190.978L193.01 57.6054H192.079L190.281 52.0482L188.479 57.6054H187.545ZM188.758 55.8378L188.789 55.1431H191.735L191.778 55.8378H188.758Z" fill="white"/>
<path d="M194.117 52.4359V51.6792H196.597V52.4359H194.117ZM194.117 57.6054V56.8487H196.597V57.6054H194.117ZM194.926 57.4162V51.8684H195.791V57.4255L194.926 57.4162Z" fill="white"/>
<path d="M200.477 57.7356C200.163 57.7365 199.851 57.698 199.547 57.6209C199.255 57.5466 198.977 57.4251 198.725 57.2612C198.482 57.1036 198.281 56.8911 198.136 56.6409C197.981 56.3554 197.901 56.0354 197.903 55.7106H198.79C198.79 55.7313 198.796 55.7871 198.809 55.8781C198.831 55.9863 198.868 56.0907 198.92 56.1882C198.989 56.3198 199.081 56.4376 199.193 56.5355C199.343 56.6653 199.52 56.7605 199.711 56.8146C199.982 56.8963 200.265 56.934 200.548 56.9262C200.768 56.9315 200.988 56.9033 201.2 56.8425C201.353 56.7981 201.497 56.7232 201.621 56.6223C201.716 56.5439 201.793 56.4467 201.848 56.337C201.89 56.2553 201.913 56.1653 201.916 56.0734C201.918 55.9797 201.902 55.8865 201.868 55.7991C201.834 55.7118 201.783 55.6321 201.717 55.5649C201.558 55.4229 201.37 55.3172 201.165 55.2547C200.933 55.1741 200.679 55.0997 200.399 55.0315C200.12 54.9632 199.847 54.8919 199.575 54.8113C199.312 54.7383 199.059 54.6342 198.821 54.5012C198.601 54.3774 198.418 54.1977 198.291 53.9802C198.155 53.7275 198.096 53.441 198.12 53.1553C198.135 52.8478 198.254 52.5546 198.458 52.3242C198.686 52.0768 198.975 51.893 199.295 51.7908C199.688 51.6634 200.099 51.6016 200.511 51.6079C200.902 51.6038 201.291 51.6787 201.652 51.828C201.988 51.9656 202.28 52.193 202.496 52.4855C202.719 52.8111 202.828 53.2015 202.806 53.5957H201.953C201.97 53.3876 201.919 53.1797 201.807 53.0033C201.704 52.8533 201.564 52.7318 201.401 52.6498C201.24 52.5667 201.068 52.5082 200.889 52.4762C200.734 52.4469 200.576 52.4314 200.418 52.4296C200.081 52.4167 199.745 52.4903 199.444 52.6436C199.329 52.698 199.231 52.7832 199.16 52.8899C199.09 52.9967 199.051 53.1207 199.047 53.2483C199.039 53.3476 199.053 53.4475 199.088 53.5408C199.122 53.6341 199.178 53.7185 199.249 53.7879C199.409 53.9322 199.6 54.0383 199.807 54.098C200.059 54.1822 200.316 54.2526 200.576 54.3089C200.855 54.374 201.131 54.4423 201.407 54.5198C201.669 54.5934 201.921 54.6975 202.158 54.8299C202.38 54.9533 202.566 55.1329 202.697 55.3509C202.835 55.6095 202.896 55.9024 202.871 56.1944C202.863 56.507 202.743 56.8064 202.533 57.0379C202.3 57.2829 202.01 57.4671 201.69 57.5744C201.298 57.6987 200.887 57.7533 200.477 57.7356Z" fill="white"/>
</svg>
