<svg width="245" height="54" viewBox="0 0 245 54" fill="none" xmlns="http://www.w3.org/2000/svg">
<path fill-rule="evenodd" clip-rule="evenodd" d="M41.359 4.54941L39.9077 4.35492L39.5524 2.61961C38.4112 2.5228 37.2602 2.52902 36.1012 2.61961L35.7947 4.37091L34.3274 4.5654L33.537 2.95974C32.4126 3.16844 31.3051 3.47128 30.2144 3.86825L30.3597 5.61956L29.004 6.19237L27.8132 4.86202C26.7322 5.37711 25.7558 5.96591 24.8441 6.6L25.4484 8.25006L24.2797 9.16035L22.8088 8.1728C21.9059 8.95076 21.105 9.77046 20.3722 10.6177L21.3823 12.0688L20.4821 13.2331L18.7915 12.6647C18.1358 13.6461 17.5652 14.6452 17.0788 15.6611L18.4229 16.7979L17.8576 18.1664L16.0846 18.0563C15.6948 19.1415 15.4095 20.2472 15.1897 21.3671L16.7926 22.1282L16.595 23.5962L14.8548 23.9603C14.7662 25.1166 14.7786 26.264 14.8601 27.4034L16.6003 27.7124L16.7926 29.1805L15.1951 29.9806C15.4201 31.1147 15.7178 32.2248 16.0953 33.3083L17.8567 33.1484L18.4273 34.517L17.069 35.7141C17.6051 36.7354 18.1899 37.7247 18.8278 38.6776L20.4856 38.0871L21.3752 39.2575L20.4094 40.7478C21.1608 41.6074 21.9706 42.4182 22.8407 43.1758L24.2841 42.166L25.4528 43.0763L24.8928 44.7592C25.84 45.404 26.835 45.9724 27.8673 46.4803L29.0032 45.134L30.3641 45.7024L30.2658 47.4741C31.337 47.8569 32.4419 48.1553 33.5805 48.3675L34.3318 46.7672L35.7973 46.9599L36.1544 48.6979C37.2912 48.792 38.4368 48.792 39.5905 48.6979L39.9033 46.9599L41.3688 46.761L42.1644 48.3506C43.2693 48.1668 44.3742 47.8622 45.4791 47.4563L45.3312 45.6908L46.6921 45.1331L47.8829 46.4626C48.8966 45.9706 49.8845 45.3924 50.8468 44.7299L50.254 43.0639L51.4121 42.1642L52.8935 43.1465C53.7468 42.4067 54.5566 41.5897 55.3248 40.6962L54.32 39.2451L55.215 38.0862L56.9002 38.6545C57.5089 37.7336 58.0831 36.7372 58.6236 35.6635L57.2732 34.5214L57.8438 33.1582L59.6221 33.263C59.9845 32.2053 60.2787 31.0961 60.5055 29.9353L58.9098 29.1849L59.1065 27.7036L60.8351 27.3474C60.9228 26.2018 60.9344 25.0562 60.8351 23.9106L59.0967 23.6042L58.9098 22.1424L60.5011 21.3324C60.276 20.1877 59.9819 19.0705 59.5876 17.9941L57.8394 18.162L57.2989 16.7988L58.5952 15.6132C58.0919 14.5732 57.5125 13.575 56.8568 12.6212L55.2167 13.234L54.313 12.0484L55.2956 10.5671C54.5176 9.67722 53.7051 8.86373 52.8599 8.12751L51.4156 9.14437L50.2372 8.24562L50.7971 6.55648C49.8411 5.90907 48.8541 5.33182 47.8307 4.83804L46.701 6.18171L45.3258 5.61867L45.4339 3.84072C44.3663 3.4473 43.256 3.14802 42.1042 2.94198L41.359 4.54941ZM37.8786 7.36375C47.9343 7.36375 56.0895 15.5945 56.0895 25.6743C56.0895 35.7541 47.9343 43.9564 37.8786 43.9564C27.8221 43.9564 19.6102 35.7541 19.6102 25.6743C19.6102 15.5945 27.8221 7.36375 37.8786 7.36375ZM31.85 40.0035V40.9938V41.5559V42.2726L31.8225 42.2637L31.0216 41.9476L30.2401 41.5932L29.479 41.2025L28.74 40.7771L28.0241 40.317L27.3312 39.8241L26.664 39.2993L26.0225 38.7433L25.4085 38.1581L24.8228 37.5444L24.2673 36.9032L23.7427 36.2354L23.2492 35.5427L22.7893 34.826L22.3632 34.0862L21.9724 33.3251L21.618 32.5436L21.3008 31.7426L21.0226 30.922L20.7842 30.0845L20.5866 29.2311L20.4307 28.3625L20.3182 27.4798L20.2499 26.5837L20.2269 25.6761L20.2499 24.7684L20.3182 23.8724L20.4307 22.9896L20.5866 22.1202L20.7842 21.2658L21.0226 20.4275L21.3008 19.6069L21.618 18.805L21.9724 18.0217L22.3632 17.2588L22.7893 16.5181L23.2501 15.7997L23.7427 15.1061L24.2673 14.4374L24.8237 13.7944L25.4094 13.1789L26.0234 12.5919L26.6649 12.0351L27.333 11.5084L28.0258 11.0147L28.7418 10.5538L29.4807 10.1266L30.2418 9.73494L31.0233 9.37971L31.8243 9.06177L32.643 8.78291L33.4794 8.54402L34.3318 8.34598L35.1993 8.18967L36.08 8.07689L36.974 8.0085L37.8795 7.98541L38.7851 8.0085L39.6782 8.07689L40.5589 8.18967L41.4246 8.34598L42.2752 8.54402L43.1098 8.78291L43.9268 9.06177L44.7251 9.37971L45.5039 9.73494L46.2624 10.1266L46.9987 10.5538L47.7128 11.0147L48.4031 11.5084L49.0676 12.0342L49.7064 12.591L50.3178 13.1772L50.9008 13.7926L51.4537 14.4356L51.9765 15.1043L52.4673 15.7988L52.9254 16.5164L53.3489 17.257L53.7379 18.0199L54.0906 18.8032L54.406 19.606L54.6824 20.4266L54.9199 21.2649L55.1166 22.1193L55.2717 22.9887L55.3833 23.8724L55.4515 24.7684L55.4746 25.677L55.4515 26.5855L55.3833 27.4815L55.2717 28.3643L55.1166 29.2328L54.9199 30.0863L54.6824 30.9238L54.406 31.7435L54.0915 32.5454L53.7388 33.3269L53.3498 34.088L52.9263 34.8278L52.4682 35.5445L51.9774 36.2372L51.4546 36.905L50.9017 37.5462L50.3187 38.1599L49.7073 38.7451L49.0685 39.3011L48.4039 39.8259L47.7137 40.3188L46.9996 40.7788L46.2633 41.2042L45.5048 41.595L44.726 41.9493L44.0207 42.2282V41.5577V40.9955V39.9902L47.1732 38.5497C47.3256 38.429 47.3744 38.2389 47.2742 37.9485L47.1732 37.6004V35.1954C47.1812 34.9015 47.043 34.7523 46.7595 34.7496H45.5172C45.0157 34.7496 44.9023 34.453 45.2789 33.985C45.9 32.4601 45.4809 30.8927 44.0216 29.2826C43.7292 29.1574 43.5174 28.9131 43.4802 28.406C43.4217 27.7835 43.2002 27.3137 42.8431 26.9718C42.8343 26.4727 42.7191 25.8066 42.3744 25.7409L42.4072 25.55L42.2761 25.3057C42.3284 25.0375 42.3115 24.796 42.2238 24.5811C42.6987 24.296 43.1258 23.9336 43.513 23.5074C43.4731 23.7622 43.4882 24.0002 43.5396 24.2249C43.5998 24.5597 43.7283 24.8484 43.8231 25.161C44.1102 25.6254 44.0712 26.2835 43.9153 27.0117C43.8621 27.6814 43.9817 28.2444 44.3104 28.6778C44.8376 29.3057 45.5385 29.6875 46.2092 29.5002C45.931 28.6671 46.0993 27.573 46.3049 26.6601L46.4059 26.01L46.3705 24.0917C46.3962 23.7765 46.4538 23.4585 46.6257 23.1326L46.9127 22.2498C49.6754 11.4827 37.9389 6.94014 32.6102 12.5102C33.5636 12.7278 34.4027 13.0049 34.9299 13.734C35.2311 14.1496 35.0513 14.4098 34.6579 14.2846C34.5666 14.2553 34.0899 14.1345 33.6088 14.0652C33.4032 14.02 33.1596 13.964 32.9567 13.9649L32.869 13.9693L32.7874 13.9782L32.7121 13.9915L32.6439 14.0111L32.5828 14.0368L32.5305 14.0706L32.4888 14.1141L32.4614 14.1665L32.4507 14.2269L32.4569 14.2926L32.4791 14.3628L32.5145 14.4338C32.542 14.4977 32.5668 14.5626 32.5907 14.6283C32.6076 14.6762 32.6235 14.7251 32.6395 14.7739C32.6537 14.8228 32.6669 14.8707 32.6793 14.9196C32.6909 14.9675 32.7015 15.0164 32.7112 15.0643C32.7201 15.1123 32.7281 15.1603 32.7352 15.2091C32.7414 15.2571 32.7467 15.305 32.7511 15.353C32.7547 15.4009 32.7573 15.4489 32.7582 15.4959C32.7582 15.5439 32.7582 15.591 32.7564 15.6389C32.7538 15.6869 32.7502 15.734 32.7458 15.781C32.7387 15.8396 32.7307 15.8974 32.7201 15.956L32.4764 16.194C32.4534 16.2215 32.4321 16.2499 32.4118 16.2784C32.3923 16.3077 32.3728 16.337 32.355 16.3672C32.3382 16.3982 32.3214 16.4293 32.3063 16.4622C32.2921 16.495 32.2788 16.5288 32.2664 16.5634L32.2452 16.6345L32.2292 16.7091L32.2177 16.7872L32.2115 16.868L32.2097 16.9524L32.2133 17.0403L32.223 17.1318L32.2381 17.2277L32.2594 17.3272L32.2877 17.4338C32.3125 17.4897 32.3364 17.5456 32.3506 17.606C32.3551 17.6309 32.3586 17.6549 32.3586 17.6806C32.3586 17.7082 32.3559 17.7339 32.3515 17.7606C32.3427 17.8041 32.3294 17.8449 32.3134 17.8867L32.2576 17.9604L32.2044 18.0403L32.1592 18.1202L32.1211 18.1993L32.0892 18.2783L32.0635 18.3574L32.0441 18.4355L32.0299 18.5128L32.0201 18.59L32.0148 18.6664L32.0139 18.7428L32.0166 18.8183L32.0219 18.8929L32.0299 18.9675L32.0511 19.1149C32.0715 19.2348 32.0946 19.3556 32.1149 19.4763L32.1353 19.6184L32.1424 19.6886L32.1468 19.7588L32.1486 19.8289L32.1468 19.8991L32.1415 19.9683L32.1327 20.0385L32.1185 20.1078L32.0999 20.177L32.076 20.2454C32.029 20.3369 31.9811 20.4275 31.9315 20.5181C31.873 20.622 31.8119 20.725 31.7499 20.8262C31.679 20.9399 31.6055 21.0527 31.531 21.1646C31.3831 21.384 31.2307 21.6006 31.0809 21.8182C31.0729 21.8378 31.065 21.8573 31.0579 21.8768C31.0499 21.9017 31.0446 21.9257 31.0402 21.9514C31.0366 21.9763 31.0349 22.0003 31.034 22.0252C31.034 22.0491 31.0357 22.0722 31.0384 22.0962C31.0419 22.1193 31.0464 22.1415 31.0535 22.1646C31.0605 22.1859 31.0685 22.2072 31.0774 22.2276C31.0871 22.2481 31.0978 22.2658 31.1102 22.2845C31.1226 22.3022 31.1359 22.3182 31.1509 22.3342C31.1651 22.3475 31.1793 22.3608 31.1943 22.3733C31.3095 22.4736 31.4283 22.5704 31.5293 22.6859C31.5567 22.7179 31.5815 22.7507 31.6046 22.7862L31.6161 22.8076L31.625 22.8315L31.632 22.8573L31.6374 22.8857L31.6436 22.9488V23.0189C31.6391 23.1255 31.6276 23.2321 31.6232 23.3395V23.423L31.625 23.4638L31.6294 23.5047L31.6356 23.5456L31.6445 23.5855L31.656 23.6246L31.671 23.6628L31.6888 23.7001L31.7109 23.7356L31.7366 23.7685L31.7676 23.7995L31.8022 23.828L31.8412 23.8537L31.858 23.8626C31.8305 23.8848 31.8066 23.9079 31.7818 23.9328L31.7463 23.9745L31.7171 24.018L31.6941 24.0633L31.6781 24.1104L31.6684 24.1583L31.6657 24.2072L31.6693 24.2578L31.679 24.3084L31.695 24.3599C31.7056 24.3866 31.7171 24.4123 31.7295 24.439C31.7446 24.4665 31.7596 24.4931 31.7765 24.5198C31.7915 24.5429 31.8084 24.566 31.8225 24.5891L31.8367 24.6228L31.8465 24.6645L31.8518 24.7143C31.8527 24.7427 31.8527 24.7711 31.8518 24.7995C31.85 24.8315 31.8465 24.8626 31.8429 24.8937C31.8332 24.9603 31.8199 25.026 31.8048 25.0917L31.788 25.1565C31.7614 25.2542 31.7313 25.351 31.6958 25.4461C31.687 25.4736 31.6799 25.5011 31.6728 25.5295C31.6675 25.5571 31.6631 25.5837 31.6595 25.6112C31.6568 25.6379 31.656 25.6645 31.6551 25.6921C31.656 25.7187 31.6577 25.7444 31.6604 25.7711C31.6648 25.7968 31.6693 25.8217 31.6763 25.8475L31.7011 25.9221C31.7118 25.946 31.7233 25.97 31.7357 25.9931C31.7499 26.0162 31.7641 26.0384 31.78 26.0606C31.7968 26.0828 31.8146 26.1032 31.8341 26.1245C31.8544 26.145 31.8748 26.1645 31.897 26.1841L31.9448 26.2222L32.0449 26.2826L32.1477 26.3377L32.254 26.3883L32.3648 26.4354L32.4791 26.478L32.5978 26.5162C32.659 26.534 32.721 26.5508 32.783 26.5668C32.8477 26.5819 32.9124 26.5952 32.9771 26.6086C33.0444 26.621 33.1126 26.6325 33.18 26.6423C33.2508 26.6521 33.3208 26.661 33.3917 26.6681C33.4653 26.6752 33.5388 26.6814 33.6123 26.6867C33.7311 26.6938 33.9065 26.6991 34.0261 26.7018C34.0722 26.8004 34.1156 26.8972 34.1555 26.9949C34.2423 27.2187 34.3194 27.4593 34.3859 27.7151C34.3894 27.7284 34.3921 27.7417 34.3956 27.7551C34.4833 28.0961 34.5533 28.4638 34.6083 28.8563C34.649 29.1467 34.5755 29.2995 34.3894 29.3137C33.2225 29.7115 32.2115 30.1867 31.4672 30.795C30.2693 31.7461 29.9237 32.8403 30.9498 34.1653C31.1651 34.5267 31.0473 34.7221 30.5971 34.7141L29.1175 34.6901C28.7763 34.6901 28.6142 34.8526 28.631 35.1777L28.6922 36.8473C28.6824 37.2052 28.647 37.54 28.5398 37.8162C28.3891 38.1563 28.39 38.4307 28.6124 38.6084C28.6133 38.6084 31.85 40.0035 31.85 40.0035ZM40.6963 23.0003C40.7822 23.4585 40.8469 23.931 40.8876 24.4168L40.3755 24.6086C40.2816 24.0837 40.1646 23.574 40.0255 23.0829C40.0946 23.0971 40.1655 23.1042 40.2391 23.1042C40.4021 23.1042 40.5571 23.0669 40.6963 23.0003ZM40.2391 21.6797C40.434 21.6797 40.5935 21.8395 40.5935 22.0349C40.5935 22.2303 40.434 22.3902 40.2391 22.3902C40.0441 22.3902 39.8846 22.2303 39.8846 22.0349C39.8846 21.8387 40.0441 21.6797 40.2391 21.6797ZM40.2391 21.2809C40.6528 21.2809 40.9904 21.6193 40.9904 22.034C40.9904 22.4488 40.6528 22.7871 40.2391 22.7871C39.8253 22.7871 39.4877 22.4488 39.4877 22.034C39.4877 21.6193 39.8253 21.2809 40.2391 21.2809ZM41.981 26.1734C42.183 25.5402 42.0838 25.2187 41.802 25.1041C41.4839 24.939 41.0781 25.4114 41.4007 25.6796C41.4689 25.5233 41.476 25.5189 41.6275 25.4567C41.8658 25.5491 41.8455 25.9309 41.8207 26.1388C40.0486 26.2462 39.6286 23.1868 39.6773 23.0411C38.863 24.5251 40.0362 26.7906 41.1809 27.0624C41.3422 25.8688 42.5339 26.2684 42.2991 26.8768C42.2008 27.3057 41.7427 27.1734 41.709 26.8617C41.6 26.9123 41.5876 26.9602 41.585 27.105C42.4843 28.4771 43.0257 26.2666 41.981 26.1734ZM39.4142 26.0952C39.1856 25.1485 38.9428 24.32 38.3057 23.994C38.5219 21.899 36.4406 23.5225 37.8999 24.2862C37.8786 24.542 37.8193 24.9008 37.8919 25.2471C38.1205 26.3439 37.7989 26.8315 37.7351 27.0979C37.588 27.7151 37.6625 28.2506 37.8361 28.7488C37.9478 28.5543 38.0771 28.4948 38.2224 28.5712C38.1994 28.6902 38.2721 29.1343 38.2676 29.1334C38.2056 29.8323 38.5742 30.8785 39.353 31.2177C39.4266 31.2452 39.4611 31.3198 39.4044 31.4246C39.221 31.6777 39.0385 31.9051 38.8551 32.0445C38.5742 32.3225 38.428 32.6236 38.4174 32.9495C38.6034 32.9113 38.7948 32.7497 38.9906 32.4637C39.4638 32.3891 39.8076 31.9317 39.6321 31.4149C39.3955 31.0614 39.1847 30.6955 39.0252 30.3039C38.9623 30.0632 39.0154 29.9327 39.1847 29.9105C39.4372 30.5632 39.8217 31.1884 40.3392 31.7888C40.1159 32.2301 39.8191 32.5863 39.4629 32.8704C38.8728 33.2905 38.6149 33.7683 38.4776 34.2665L38.0399 34.4335C38.1994 34.7514 38.7036 34.7674 39.5533 34.4823C39.54 34.1546 39.6995 33.8402 40.0308 33.5383C40.3108 33.4202 40.5004 33.0854 40.6484 32.6537L40.7078 32.6928L40.4792 33.2825C40.2337 33.525 40.0672 33.7674 39.9812 34.0099C39.4452 34.8731 41.1871 34.763 41.5345 34.2949C40.9559 33.8305 40.722 33.1884 40.9071 32.7212C41.1162 32.3669 41.1659 32.0525 41.056 31.7772C40.7459 31.2754 40.4349 30.8278 40.1239 30.4362C40.4136 30.6715 40.8912 30.8829 40.9408 31.3492C41.0338 31.5872 41.1889 31.7772 41.4343 31.8962C40.8894 32.3269 41.2589 33.9139 41.9349 34.0356C42.0032 33.8864 41.9376 33.7212 41.7382 33.5401C41.8898 33.469 42.0422 33.501 42.1946 33.6351C42.0679 34.9006 44.0437 35.4983 43.3721 33.5782C43.7044 33.7345 43.8249 33.5472 43.5936 33.3429L42.8715 32.8349C42.5321 32.6564 42.5463 32.2266 42.8529 31.5907L42.9291 31.5783C42.9902 32.3207 43.2241 32.771 43.6317 32.9308C43.5245 32.445 43.9808 32.3456 44.0623 32.8163L43.9932 33.826C43.9418 34.6582 44.5275 34.6937 44.4938 33.826L44.4371 33.1147C44.6312 32.8349 44.7862 32.6538 44.8553 32.6893L44.6967 33.2798C44.4105 34.0729 45.0795 34.0454 45.1655 32.8607C45.2009 31.9824 44.9945 31.2683 44.5895 30.6893C44.5621 30.8572 44.5895 31.0552 44.7348 31.3181C44.9298 31.9548 44.3104 32.0729 44.2218 31.4069L44.2475 30.9442C44.1315 30.7017 44.0792 30.4531 44.1208 30.1946C43.9223 29.9584 43.8329 29.7009 43.7912 29.4327C43.8107 29.2373 43.6415 29.0215 43.3305 28.8572C43.0629 28.2195 42.7306 28.0215 42.3532 28.1245C42.1981 28.1476 42.1768 28.2169 42.2894 28.3341C42.9557 28.7044 43.4634 29.2719 43.6893 30.1938L43.7655 30.422C43.6034 30.5108 43.6034 30.6644 43.6769 30.8474C43.5901 30.9024 43.4944 30.9238 43.3925 30.9309C43.2986 30.8048 43.2684 30.6671 43.3305 30.5135C43.4075 29.9584 43.1426 29.6884 42.7483 29.4353L42.7031 29.5366C42.7607 29.6325 42.7669 29.6973 42.72 29.7328C42.8112 29.827 42.891 29.9344 42.9441 30.073C42.9929 30.1449 42.9796 30.192 42.9388 30.2275C43.0062 30.2888 43.1054 30.5854 43.21 30.9318C43.21 30.9318 43.2091 30.9318 43.2082 30.9318C43.3252 31.0126 43.4324 31.1458 43.5183 31.3367C43.5582 31.5703 43.7274 31.7284 43.956 31.8527C44.127 31.9903 44.2201 32.1911 44.2342 32.4548C43.6769 32.4442 43.2312 31.7586 42.8414 30.9948C42.7271 30.7959 42.5587 30.636 42.2716 30.5632C41.9022 30.2586 42.1884 29.7213 42.6199 30.2097C42.8095 29.6076 42.2805 29.1263 41.2589 28.7293C41.2908 28.8581 41.3998 28.9744 41.6204 29.0721L41.5947 29.1671C41.0445 29.0366 40.5837 28.8243 40.2851 28.4726C39.4682 27.0055 41.3847 27.8297 41.8561 28.7346C42.0049 28.0046 41.2802 27.3235 40.4535 27.1379L39.5736 26.3732L39.5258 26.8652L39.3016 26.8812C39.5772 27.2879 39.7234 27.6938 39.6374 28.0996C39.5887 28.2622 39.5311 28.2746 39.4664 28.1378L39.2511 27.8332L39.2768 28.2204C38.9649 28.1902 38.8746 27.7933 38.9711 27.2906C38.6575 26.7578 38.6894 26.2489 39.0677 25.764L39.4142 26.0952ZM38.6194 29.2657C39.1085 29.335 39.5267 29.6245 39.8758 30.136C39.7845 30.0295 39.6933 29.9282 39.602 29.8305C39.4407 29.7275 39.2006 29.6813 38.8949 29.6831C38.8958 29.6831 38.6194 29.2657 38.6194 29.2657ZM33.5583 12.2207C39.4212 7.78293 49.0118 13.0111 46.3847 22.1486C46.1826 22.7818 45.7706 23.1601 45.8902 24.0749C46.2367 25.4167 44.866 27.3927 45.682 29.1653C44.5692 28.9371 44.0765 27.7915 44.3512 26.7968C44.5248 26.018 44.4575 25.4567 44.2139 24.9567C44.0065 24.1983 43.5954 23.7427 44.0703 23.0003C44.3078 22.9283 44.6374 22.8218 44.8651 22.9461C44.866 22.9461 44.866 22.947 44.8669 22.947L44.9847 23.0118L45.0556 22.8813L44.9369 22.8164C44.936 22.8164 44.936 22.8164 44.9351 22.8155C44.7074 22.6903 44.6232 22.3555 44.5559 22.1166C44.5594 22.1086 44.5638 22.1006 44.5674 22.0926C44.7933 21.9905 45.1079 21.8404 45.3498 21.9346C45.3506 21.9346 45.3515 21.9346 45.3515 21.9355L45.4774 21.9843L45.5305 21.8458L45.4047 21.7969C45.4038 21.7969 45.4038 21.7969 45.4029 21.796C45.161 21.7019 45.0343 21.3831 44.9369 21.1548C44.9395 21.1459 44.9422 21.1371 44.9448 21.1282C45.1557 20.9976 45.4472 20.8094 45.6989 20.8715C45.6997 20.8715 45.6997 20.8715 45.7006 20.8724L45.8318 20.9044L45.8672 20.7605L45.7361 20.7285C45.7352 20.7285 45.7352 20.7285 45.7343 20.7285C45.4809 20.6664 45.3134 20.3618 45.1867 20.1477C45.1876 20.1406 45.1894 20.1335 45.1903 20.1264C45.3799 19.9666 45.643 19.7357 45.9018 19.7605C45.9026 19.7605 45.9026 19.7605 45.9035 19.7605L46.0382 19.7739L46.0524 19.6264L45.9177 19.6131C45.9168 19.6131 45.9168 19.6131 45.9159 19.6131C45.6554 19.5882 45.4463 19.3103 45.2895 19.1167C45.2895 19.1096 45.2895 19.1016 45.2895 19.0945C45.4534 18.9071 45.6785 18.638 45.939 18.6238C45.9399 18.6238 45.9399 18.6238 45.9407 18.6238L46.0754 18.6158L46.0666 18.4675L45.9319 18.4755C45.931 18.4755 45.931 18.4755 45.9301 18.4755C45.6705 18.4906 45.4215 18.2499 45.2381 18.0829C45.2372 18.0732 45.2355 18.0634 45.2337 18.0536C45.3675 17.844 45.5491 17.5456 45.8043 17.4924C45.8052 17.4924 45.8052 17.4924 45.8061 17.4924L45.9381 17.4648L45.9071 17.3201L45.7751 17.3476C45.7742 17.3476 45.7742 17.3476 45.7733 17.3476C45.5172 17.4018 45.2337 17.1984 45.0263 17.0608C45.0255 17.0572 45.0237 17.0536 45.0228 17.0501C45.1229 16.8219 45.2558 16.4959 45.5013 16.4027C45.5021 16.4027 45.503 16.4027 45.503 16.4018L45.6289 16.3538L45.5757 16.2153L45.4499 16.2633C45.449 16.2633 45.449 16.2633 45.4481 16.2641C45.2018 16.3583 44.8872 16.1993 44.6613 16.0945C44.6604 16.0927 44.6604 16.091 44.6595 16.0901C44.7224 15.8485 44.8013 15.5031 45.0299 15.3716C45.0308 15.3716 45.0308 15.3707 45.0317 15.3707L45.1486 15.3032L45.0742 15.1745L44.9572 15.242C44.9564 15.242 44.9564 15.2428 44.9555 15.2428C44.7278 15.3743 44.3937 15.2686 44.1545 15.202C44.1536 15.2011 44.1536 15.2002 44.1527 15.1993C44.1775 14.9516 44.2041 14.5972 44.4097 14.432C44.4097 14.432 44.4106 14.4311 44.4114 14.4311L44.516 14.3468L44.423 14.2313L44.3175 14.3157C44.3166 14.3157 44.3166 14.3166 44.3157 14.3166C44.1102 14.4826 43.7611 14.4276 43.5148 14.3983C43.5006 14.1496 43.4705 13.797 43.6477 13.6017C43.6477 13.6017 43.6486 13.6008 43.6494 13.5999L43.7398 13.4995L43.6299 13.4001L43.5396 13.5004C43.5396 13.5004 43.5387 13.5013 43.5387 13.5022C43.3624 13.6967 43.0141 13.6994 42.7661 13.7091C42.7634 13.7065 42.7607 13.7047 42.7572 13.702C42.7058 13.4587 42.6252 13.1141 42.7696 12.8956C42.7696 12.8956 42.7705 12.8947 42.7705 12.8939L42.8449 12.7811L42.7217 12.6994L42.6473 12.8122C42.6473 12.8122 42.6473 12.813 42.6464 12.8139C42.5011 13.0333 42.1547 13.0875 41.911 13.1345C41.9066 13.1328 41.9031 13.1301 41.8995 13.1274C41.8118 12.8939 41.6798 12.5662 41.7905 12.3281C41.7905 12.3273 41.7905 12.3273 41.7914 12.3264L41.8481 12.2038L41.7134 12.1408L41.6567 12.2633C41.6567 12.2642 41.6567 12.2642 41.6558 12.2651C41.5451 12.504 41.2128 12.6097 40.978 12.6932C40.9754 12.6923 40.9727 12.6905 40.9701 12.6896C40.8504 12.4711 40.6706 12.1647 40.7468 11.9125C40.7468 11.9116 40.7468 11.9107 40.7477 11.9107L40.7857 11.7811L40.644 11.7385L40.605 11.8681C40.605 11.869 40.605 11.869 40.6041 11.8699C40.5288 12.1221 40.2134 12.2758 39.9936 12.3921C39.991 12.3912 39.9874 12.3912 39.9848 12.3903C39.8359 12.1914 39.6153 11.9125 39.6552 11.6514C39.6552 11.6505 39.6552 11.6505 39.6552 11.6497L39.6755 11.5156L39.5293 11.4933L39.509 11.6266C39.509 11.6274 39.509 11.6283 39.509 11.6283C39.4691 11.8903 39.1749 12.0866 38.9729 12.2331C38.972 12.2331 38.9711 12.2331 38.9702 12.2331C38.7957 12.0546 38.5396 11.8077 38.5441 11.5431C38.5441 11.5422 38.5441 11.5413 38.5441 11.5404L38.5467 11.4054L38.3988 11.4028L38.3961 11.5378C38.3961 11.5386 38.3961 11.5386 38.3961 11.5395C38.3917 11.8033 38.1276 12.036 37.9478 12.2083C37.7537 12.0528 37.4711 11.8397 37.4436 11.5777C37.4436 11.5768 37.4436 11.5759 37.4436 11.5759L37.4294 11.4418L37.2823 11.4569L37.2965 11.5919C37.2965 11.5928 37.2965 11.5937 37.2965 11.5937C37.324 11.8566 37.0901 12.1194 36.9323 12.3122C36.9297 12.3122 36.927 12.3131 36.9253 12.3131C36.7144 12.1807 36.4078 12.0004 36.3502 11.7429C36.3502 11.742 36.3502 11.742 36.3502 11.7411L36.321 11.6088L36.1765 11.6408L36.2058 11.7731C36.2058 11.774 36.2058 11.774 36.2058 11.7749C36.2625 12.0315 36.0623 12.3193 35.9267 12.528C35.7034 12.4178 35.3827 12.2695 35.2994 12.0191C35.2994 12.0182 35.2994 12.0182 35.2985 12.0173L35.256 11.8894L35.1151 11.9365L35.1576 12.0644C35.1576 12.0653 35.1585 12.0662 35.1585 12.0662C35.24 12.3148 35.0717 12.6194 34.9582 12.8406L34.9272 12.7962C34.7483 12.5431 34.1635 12.361 33.5583 12.2207ZM35.1417 13.1745C35.3853 13.6434 35.5342 14.1336 35.4713 14.2953L36.1845 14.0919L36.8801 13.9587L37.5552 13.8921L38.2083 13.8894L38.8373 13.9471L39.4407 14.0608L40.0158 14.2278L40.5616 14.4436L41.0764 14.7047L41.5593 15.0075L42.0085 15.3476L42.4223 15.7215L42.7997 16.1247L43.1391 16.5537L43.4403 17.0057L43.7008 17.4764L43.9206 17.9622L44.0969 18.4595L44.2298 18.9648L44.3166 19.4755L44.3565 19.987L44.3476 20.4959L44.2883 20.9985L44.1766 21.4905L44.1651 21.5243C47.1369 16.5732 41.5788 10.7323 35.1417 13.1745ZM40.6032 20.9994C41.0117 21.1584 41.3032 21.5571 41.3032 22.0216C41.3032 22.2791 41.2137 22.5163 41.064 22.7045L41.0675 22.7214L41.1659 23.2623L41.2447 23.8155L41.2917 24.2693C47.074 21.7916 42.8945 12.2385 35.5235 14.6745L35.7849 14.8112L36.1269 15.0119L36.4636 15.2331L36.795 15.4737L37.1211 15.734L37.44 16.0128L37.7519 16.3094L38.055 16.6247L38.3491 16.9577L38.6344 17.3076L38.91 17.6744L39.174 18.0581L39.4274 18.4577L39.6684 18.8733L39.8962 19.3041L40.1106 19.7499L40.3099 20.2108L40.4942 20.6859C40.4951 20.6859 40.6032 20.9994 40.6032 20.9994ZM32.9505 14.4054C35.7096 14.4453 38.9614 17.3991 40.1629 20.9568C39.8536 21.003 39.6153 21.1282 39.4487 21.3307C38.8108 19.9444 38.0204 18.7126 37.0706 17.7242L37.0077 17.9213C37.067 18.1016 37.2566 18.3236 37.5278 18.5723C37.7023 18.7215 37.8459 18.9284 37.9894 19.1664C37.8228 19.1531 37.6935 19.1309 37.6022 19.0989L37.6199 19.3067C37.4223 19.1717 37.2478 19.019 37.1069 18.8405C37.106 19.0421 37.2168 19.2366 37.4489 19.4142C37.728 19.614 38.0062 19.7863 38.2853 19.9479C38.381 20.0261 38.4528 20.1158 38.4998 20.2188C38.1799 20.3049 38.2153 20.487 38.56 20.7365C38.5857 20.7552 38.6194 20.7667 38.6495 20.7863C38.4936 20.8404 38.4076 21.217 38.5051 21.4177C38.5981 21.5855 38.6956 21.7516 38.7541 21.9568L38.8772 21.6442L39.1306 21.5731L39.2121 21.7569C39.0473 22.0678 39.2148 22.6193 39.3823 22.7489C39.0757 23.24 39.0323 23.7773 39.0128 24.1867C38.6628 23.8448 38.4634 23.0065 38.5813 22.5092C38.5813 22.4017 38.5166 22.3866 38.3846 22.463C38.2189 22.4568 38.1436 22.3298 38.1303 22.1202C38.0948 21.9923 37.8981 22.0926 37.9513 22.2152C37.9699 22.2498 37.9929 22.2836 38.0178 22.3156C38.0948 22.4008 38.1631 22.4887 38.1985 22.5882L38.1976 22.7854L38.0098 22.7862C37.8973 22.6202 37.7617 22.4079 37.7183 22.4008C37.6935 22.3688 37.6687 22.3315 37.6323 22.304C37.5216 22.2179 37.4214 22.137 37.347 22.0571C37.2752 21.9799 37.1636 21.9115 37.0901 21.8422L37.0573 21.7747C37.1158 21.4852 36.974 21.2676 36.7622 21.0971C36.725 21.0793 36.6949 21.058 36.671 21.0323L36.6027 20.9648C36.764 20.7863 36.9997 20.7428 37.1946 20.9088C37.3452 21.0509 37.4622 21.2943 37.5092 21.5909C37.7369 21.3102 37.6536 21.0367 37.3789 20.7996C37.1326 20.7801 36.9253 20.7445 36.7968 20.6753C36.6479 20.5589 36.7507 20.304 36.9846 20.3982C37.2983 20.5447 37.1769 20.1282 36.8765 20.1255C36.7817 20.1229 36.6683 20.1406 36.5363 20.1779C36.3068 20.1921 36.1066 20.1637 35.9958 20.0056C36.1739 19.8769 36.2093 19.7508 36.0357 19.6273C35.6299 19.3369 35.8301 18.9879 36.2129 19.0341L36.5186 19.2152C36.6807 19.3103 36.7729 19.162 36.6125 19.0216C36.4955 18.9266 36.3431 18.8423 36.1828 18.7605L35.9949 18.4986C35.8292 18.6593 35.6582 18.7375 35.4801 18.7153C35.1549 18.6566 35.217 18.352 35.5856 18.3742C35.7158 18.3636 35.6866 18.225 35.5714 18.2535C35.3791 18.297 35.3118 18.3813 35.2001 18.4C35.0079 18.432 34.8572 18.3654 34.7713 18.2046C34.7093 18.0483 34.68 17.8929 34.6836 17.7366L34.9414 17.5954C34.774 17.4755 34.4957 17.4639 34.1298 17.4879L33.8135 17.4844C33.9296 17.2162 34.1307 17.035 34.4461 17.0332C34.1263 16.9027 33.8418 16.9062 33.6115 17.1087C33.2881 17.0465 33.0373 17.1451 32.8574 17.4044L32.713 17.4027C32.4516 16.6576 32.69 16.2792 33.304 16.178C33.2021 16.4897 33.2756 16.63 33.6061 16.5199L34.0642 16.4187C34.1316 16.4373 34.1998 16.4933 34.2689 16.5856C34.3575 16.6576 34.4895 16.7046 34.6659 16.7251L35.3765 16.8112L35.5262 17.0359L35.6591 17.1238L35.8452 17.1123C35.8602 17.4355 36.0649 17.5892 36.3998 17.6371C36.2935 18.0252 36.461 18.2277 36.7977 18.305L36.6949 17.9124L36.7153 17.3867C35.5882 16.3405 34.3504 15.8281 33.1224 15.7446C33.1259 15.2375 33.0728 14.7864 32.9505 14.4054ZM37.8122 23.0527C37.8024 23.0518 37.7927 23.0518 37.7829 23.0518C37.7705 23.0571 37.7599 23.0615 37.7466 23.0651L37.6961 23.0704C37.6704 23.0145 37.6456 22.9585 37.6199 22.9026H37.604L37.573 22.8511C37.5508 22.8191 37.5269 22.7898 37.5065 22.756L37.4835 22.7232H37.4675L37.4276 22.6672L37.3461 22.59C37.3125 22.566 37.2806 22.5385 37.2469 22.5136C37.2141 22.4941 37.184 22.4701 37.1512 22.4505C37.0971 22.4203 37.0458 22.3884 36.9988 22.3484C36.8987 22.264 36.7959 22.1823 36.6984 22.0944L36.616 22.0118C36.5886 21.9799 36.562 21.9479 36.5345 21.9159L36.5168 21.9035L36.4849 21.8715C36.4725 21.8546 36.4601 21.8378 36.4486 21.82C36.4238 21.7783 36.3998 21.7365 36.3768 21.693C36.3564 21.6522 36.3369 21.6095 36.3183 21.5669L36.2829 21.4559L36.2483 21.2507C36.2262 21.1237 36.2164 20.995 36.1961 20.868C36.1943 20.8538 36.1916 20.8404 36.1898 20.8262C36.1571 20.7561 36.1243 20.685 36.0915 20.614C36.0729 20.5856 36.0534 20.558 36.0312 20.5314L35.9728 20.4515L35.9666 20.4399H35.9497L35.8638 20.3298L35.7087 20.146L35.6839 20.1122L35.6556 20.0438C35.6157 19.9408 35.5838 19.836 35.5546 19.7295C35.5244 19.6096 35.4987 19.4888 35.4695 19.3689C35.4606 19.3449 35.4553 19.3192 35.45 19.2934L35.3942 19.1922C35.3676 19.1478 35.3366 19.106 35.3091 19.0625C35.2719 19.0163 35.232 18.9701 35.1948 18.9231L35.1851 18.9089L35.1656 18.8858L35.1071 18.836C35.0655 18.8085 35.022 18.781 34.9786 18.7552C34.8741 18.6957 34.7695 18.638 34.6596 18.5883C34.6277 18.5723 34.5967 18.5536 34.5657 18.5359C34.4824 18.487 34.3992 18.4382 34.3185 18.384C34.2964 18.3671 34.2733 18.3511 34.2521 18.3325L34.2397 18.3209L34.2273 18.3041C34.1883 18.2748 34.1502 18.2455 34.1139 18.2135C34.0846 18.1922 34.0571 18.17 34.027 18.1513L33.9969 18.1353L33.9818 18.1051L33.9597 18.0794L33.9295 18.0536L33.8923 18.0261L33.8516 17.9986C33.8099 17.9764 33.7683 17.9542 33.7258 17.9337C33.6735 17.9098 33.6185 17.8885 33.5654 17.8671C33.5317 17.8547 33.4972 17.8423 33.4626 17.8316C33.4342 17.8236 33.4059 17.8156 33.3767 17.8076C33.3279 17.7996 33.2783 17.7934 33.2278 17.789L33.0931 17.7845L33.0125 17.789L32.9336 17.7979L32.8654 17.8156L32.8007 17.8387L32.7422 17.8662L32.6829 17.9027L32.6288 17.9435L32.5783 17.9941L32.5269 18.0501C32.495 18.0963 32.4614 18.1407 32.4321 18.1886C32.4082 18.2304 32.3852 18.2721 32.3639 18.3147L32.3364 18.3609L32.2664 18.5758C32.2638 18.6362 32.2594 18.6975 32.2602 18.7579C32.2611 18.7845 32.262 18.8103 32.262 18.836L32.2957 19.1042C32.3187 19.2543 32.348 19.4026 32.3701 19.5518C32.3825 19.6424 32.3985 19.733 32.4011 19.8236C32.402 19.8556 32.4038 19.8875 32.4047 19.9195L32.3932 19.9177C32.3772 20.2135 32.2549 20.4897 32.1238 20.7507L31.3547 21.9159C31.2998 22.0021 31.2785 22.0358 31.3352 22.1388C31.4043 22.2489 31.5718 22.3466 31.6604 22.4417C31.6976 22.4816 31.7322 22.5234 31.7658 22.5669L31.7853 22.5944C31.803 22.6228 31.819 22.6512 31.8341 22.6806C31.8934 22.812 31.9111 23.0038 31.9156 23.1424C31.8624 23.4967 31.6648 23.7303 32.8433 23.8093C32.9717 23.8288 32.9434 24.0713 32.8379 24.0713C32.5952 24.0624 32.2275 24.0082 32.021 24.0935L32.0015 24.1024L31.9838 24.113L31.9678 24.1255L31.9546 24.1397L31.943 24.1557L31.9342 24.1716L31.928 24.1885L31.9244 24.2054L31.9235 24.2223L31.9244 24.24L31.928 24.2578L31.9351 24.2747C31.9492 24.2986 31.9643 24.3208 31.9785 24.3431C32.0201 24.4079 32.0689 24.494 32.0999 24.5642C32.1105 24.6281 32.1194 24.6903 32.1256 24.7489C32.1247 24.7915 32.122 24.8342 32.1167 24.8768L32.1052 24.9825C32.0972 25.034 32.0866 25.0846 32.076 25.1343C32.0503 25.2382 32.0184 25.3413 31.9909 25.4443L31.9723 25.5215C31.9652 25.558 31.9599 25.5926 31.9572 25.629V25.6947L31.9608 25.7258L31.9678 25.756L31.9767 25.7862L31.9891 25.8155L32.0051 25.8448L32.0246 25.8741L32.0485 25.9034L32.0777 25.9336L32.1114 25.9638L32.1513 25.994L32.1965 26.0251L32.2478 26.0562L32.3037 26.0864C32.3816 26.1183 32.4605 26.1468 32.5402 26.1716C32.6218 26.1965 32.7033 26.2187 32.7866 26.2373C33.7771 26.4975 34.7607 26.3821 35.7078 25.9913C35.839 25.9354 35.9675 25.8732 36.095 25.8093L36.3183 25.6707C36.3352 25.6672 36.352 25.6627 36.3679 25.6592L36.3697 25.6432C36.3848 25.629 36.3981 25.6157 36.4131 25.6032C36.4388 25.5837 36.4645 25.5651 36.4902 25.5464C36.5221 25.5224 36.5549 25.4993 36.5859 25.4745C36.5939 25.4683 36.601 25.4611 36.6072 25.4532L36.6169 25.4336L36.6595 25.4034C36.7321 25.3439 36.7897 25.2693 36.8455 25.1947C36.8712 25.1592 36.8943 25.1228 36.9155 25.0846C36.9545 25.0242 36.9926 24.9638 37.0289 24.9025L37.0555 24.8573L37.1131 24.8404L37.1503 24.8351C37.1742 24.8333 37.1982 24.8333 37.223 24.8333L37.2531 24.8368L37.262 24.7516C37.2646 24.6983 37.2637 24.6459 37.2611 24.5926C37.2557 24.5171 37.246 24.4434 37.2363 24.3688C37.2363 24.2409 37.2327 24.1122 37.2398 23.9843C37.2416 23.9576 37.2416 23.931 37.2433 23.9043C37.2469 23.8635 37.2496 23.8217 37.2575 23.7809C37.2628 23.756 37.269 23.7312 37.2726 23.7054C37.2823 23.6734 37.2912 23.6415 37.3036 23.6095C37.3134 23.5873 37.3231 23.5651 37.3328 23.542L37.3709 23.4816L37.4108 23.4248C37.4392 23.3999 37.4666 23.3733 37.4959 23.3493L37.5136 23.3377L37.6624 23.2543L37.6111 23.4088V23.4097L37.8122 23.0527ZM33.257 20.8955C33.242 20.8973 33.226 20.8991 33.2101 20.8999C33.2057 20.9044 33.2057 20.9088 33.2057 20.9142C32.8716 20.7055 32.9877 20.5385 32.946 20.2081C32.9186 20.1202 32.8486 20.0598 32.8069 20.0039C32.7192 19.7721 32.7281 19.6602 32.8114 19.4426C32.8114 19.2383 32.4499 19.3129 32.5101 19.1042C32.7883 18.8254 33.3855 18.9044 33.7461 19.0021C33.8339 19.0492 33.9225 19.0954 34.0102 19.1371C34.3017 19.3742 34.5108 19.5918 34.6543 19.9772C34.6499 20.0145 34.6499 20.0145 34.6402 20.0332C34.6215 20.0332 34.6083 20.0332 34.5941 20.0332C34.3619 19.9266 34.1723 19.7357 33.9827 19.6193C33.7931 19.5545 33.7798 19.5803 33.8082 19.7703C33.9198 20.0261 34.3867 20.1877 34.3867 20.5216C34.3681 20.5261 34.2804 20.5616 34.2618 20.5714C33.8622 20.5394 33.6203 20.8458 33.257 20.8955ZM32.153 22.3946C31.9776 22.3076 31.8589 22.2267 31.8456 22.1184C31.9244 21.8724 32.7068 22.4834 32.153 22.3946ZM34.4585 30.1076C34.4585 30.0526 34.5312 30.0437 34.5728 30.0526C34.5826 30.0721 34.6472 30.3811 34.7615 30.3261C35.318 29.2817 34.5595 27.7862 34.2937 26.6832C35.4438 26.565 36.3458 26.1441 37.2088 25.3208C37.3382 25.4159 37.3727 25.51 37.378 25.7036C37.2939 26.2213 37.1344 26.7187 37.1344 27.2755C37.184 28.152 38.2207 29.3669 38.1037 29.9584L38.1028 29.9611C38.1028 29.9611 38.1028 29.962 38.1028 29.9629C36.9049 33.9033 29.782 33.4095 34.4585 30.1076ZM34.1706 29.9602C31.5815 30.4335 28.9854 33.2088 32.8087 34.477C34.8174 34.9761 36.6887 34.7097 38.389 33.8802C38.4794 33.5711 38.6061 33.2674 38.8046 33.0116C38.7718 33.0294 38.7372 33.0454 38.7027 33.0596L38.2703 33.2248C38.2906 33.0623 38.3084 32.898 38.3314 32.7355C38.3367 32.6973 38.3429 32.6591 38.3509 32.6209C38.3863 32.4477 38.4546 32.2852 38.5184 32.1218L38.5547 32.1156L38.6344 31.9966L38.6566 31.9344C38.7727 31.8358 38.8896 31.7364 38.9942 31.6245L39.0349 31.5712L39.0535 31.5143L39.1005 31.477L38.9357 31.3838L38.8497 31.3136L38.6318 30.9913C37.6651 32.6422 35.9001 33.4219 34.1723 33.4166C31.3512 33.3571 31.6914 31.0659 34.1706 29.9602ZM30.7611 37.6732C30.2791 37.651 29.7926 37.651 29.3212 37.6457C29.2911 36.8322 29.3115 36.0453 29.3159 35.2541C30.6255 35.2541 31.9306 35.2594 33.2402 35.2647C33.2703 35.2594 33.2951 35.2541 33.3253 35.2487C34.3486 35.2709 35.4181 35.2878 36.4619 35.2878C36.8429 35.2327 37.2398 35.2487 37.6412 35.31C38.0532 35.3047 38.4687 35.2994 38.8808 35.2994C39.1014 35.3216 39.3477 35.2496 39.5931 35.2887C40.2905 35.278 40.5217 35.2665 41.0835 35.2665C41.1437 35.2718 41.204 35.2834 41.2793 35.2665C42.1175 35.2718 42.9858 35.3056 43.8435 35.239C43.9037 35.2718 44.3804 35.2336 44.4611 35.2283C45.7201 35.2283 45.7201 35.2283 46.4733 35.2452C46.4733 36.0258 46.4679 36.8118 46.4679 37.5977C44.4814 37.6368 42.4887 37.6315 40.527 37.5871C38.8914 37.6368 37.2602 37.6537 35.6502 37.6315C35.5696 37.6261 35.4899 37.6208 35.4092 37.6208C32.7786 37.6617 32.7786 37.6617 30.7611 37.6732ZM29.5011 38.2469H46.3164L43.8001 39.2753H32.0086L29.5011 38.2469ZM43.4013 41.5559V41.5026V39.8908H32.4729C32.4729 40.6954 32.4729 41.4982 32.4729 42.3028C32.8025 42.4342 33.1587 42.5879 33.498 42.682C33.498 42.2122 33.498 41.7415 33.498 41.2708C33.498 40.984 33.7134 40.7486 33.9774 40.7486C34.2406 40.7486 34.4567 40.984 34.4567 41.2708C34.4567 41.8277 34.4567 42.3845 34.4567 42.9413C34.758 43.0017 35.0584 43.0674 35.3596 43.1074C35.3596 42.5293 35.3596 41.9502 35.3596 41.3721C35.3596 41.0293 35.6175 40.7478 35.932 40.7478C36.2465 40.7478 36.5044 41.0284 36.5044 41.3721C36.5044 41.9937 36.5044 42.6154 36.5044 43.2379C36.7534 43.2557 37.0032 43.269 37.2522 43.277C37.2522 42.642 37.2522 42.0071 37.2522 41.3721C37.2522 41.0293 37.5526 40.7478 37.9203 40.7478C38.288 40.7478 38.5884 41.0284 38.5884 41.3721C38.5884 42.0026 38.5884 42.6323 38.5884 43.2628C38.8435 43.253 39.0996 43.2326 39.3557 43.2122C39.3557 42.5985 39.3557 41.9849 39.3557 41.3721C39.3557 41.0293 39.6126 40.7478 39.9281 40.7478C40.2426 40.7478 40.5004 41.0284 40.5004 41.3721C40.5004 41.936 40.5004 42.4999 40.5004 43.0639C40.7946 43.0168 41.0897 42.9582 41.3838 42.8934C41.3838 42.3525 41.3838 41.8117 41.3838 41.27C41.3838 40.9831 41.5991 40.7478 41.8632 40.7478C42.1263 40.7478 42.3425 40.9831 42.3425 41.27C42.3425 41.7264 42.3425 42.1829 42.3425 42.6394C42.6961 42.5266 43.0496 42.3978 43.4031 42.2628V41.5559H43.4013ZM32.1583 47.4155C32.5119 47.5087 32.8681 47.5931 33.2269 47.6686L33.9659 46.0967L36.3139 46.4066L36.6648 48.1162C37.4657 48.1633 38.2667 48.1624 39.0677 48.1162L39.3752 46.4093L41.7223 46.0905L42.5082 47.6606C43.2941 47.5052 44.065 47.2912 44.8235 47.0336L44.6772 45.2912L46.8605 44.3969L48.0283 45.7006C48.7424 45.3338 49.4326 44.9271 50.1043 44.4866L49.5221 42.8507L51.3828 41.4049L52.8386 42.3694C53.4358 41.8268 54.0028 41.254 54.5416 40.6518L53.5545 39.2256L54.9943 37.3597L56.6415 37.9157C57.0739 37.2363 57.4735 36.5338 57.8483 35.8198L56.5272 34.7017L57.4425 32.5152L59.1835 32.6182C59.4272 31.8527 59.6328 31.0756 59.802 30.2897L58.2373 29.5534L58.5509 27.1867L60.2494 26.8377C60.2946 26.0384 60.3008 25.2374 60.253 24.4381L58.5403 24.137L58.2408 21.7907L59.7993 20.9976C59.6283 20.2072 59.421 19.4266 59.164 18.6593L57.4345 18.8254L56.5653 16.6336L57.8323 15.4746C57.4628 14.7526 57.057 14.0537 56.6131 13.3743L55.0005 13.9764L53.5519 12.0768L54.5132 10.6257C53.9718 10.0307 53.4065 9.45786 52.8111 8.91879L51.397 9.91433L49.508 8.47386L50.0582 6.81492C49.3883 6.37976 48.6981 5.97568 47.9866 5.61245L46.88 6.92859L44.679 6.02808L44.7853 4.27322C44.0225 4.01479 43.2454 3.80698 42.4568 3.64446L41.7232 5.22258L39.3876 4.90909L39.0385 3.20308C38.2331 3.15601 37.4268 3.1569 36.6222 3.20396L36.321 4.92419L33.9659 5.23679L33.1888 3.65867C32.402 3.82474 31.6276 4.0361 30.8656 4.29365L31.0083 6.01476L28.8348 6.93392L27.6617 5.624C26.9458 5.98811 26.2547 6.39574 25.5857 6.84067L26.1784 8.46143L24.3018 9.92321L22.8549 8.95165C22.2568 9.49161 21.6906 10.0635 21.151 10.6621L22.1425 12.0875L20.6956 13.9596L19.0405 13.4027C18.6072 14.0821 18.2041 14.7802 17.8408 15.4995L19.161 16.6158L18.2546 18.8103L16.51 18.7019C16.2601 19.4612 16.0554 20.2339 15.8879 21.0154L17.4607 21.7623L17.1444 24.1122L15.437 24.4692C15.3944 25.2729 15.4006 26.0757 15.4423 26.8785L17.1497 27.1814L17.458 29.5357L15.8933 30.3199C16.0652 31.1067 16.2743 31.8811 16.5215 32.6466L18.2484 32.4895L19.1645 34.6866L17.8408 35.8526C18.2262 36.5613 18.6373 37.254 19.0733 37.9307L20.6992 37.3517L22.1248 39.2274L21.1794 40.6865C21.7199 41.2806 22.287 41.849 22.8815 42.3872L24.2992 41.3952L26.1723 42.8543L25.6238 44.5035C26.2981 44.9404 26.9927 45.3392 27.706 45.7068L28.8197 44.3871L31.0012 45.2983L30.9046 47.0398C31.321 47.1802 31.7384 47.3036 32.1583 47.4155Z" fill="white"/>
<path fill-rule="evenodd" clip-rule="evenodd" d="M149.749 32.7608L160.433 2.72217H172.43L182.911 32.7608H171.326L170.362 28.9855H162.235L161.312 32.7608H149.749ZM164.039 21.8426H168.518L167.602 18.4386C167.149 16.7157 166.84 15.3854 166.68 14.4538C166.513 13.5293 166.415 12.6536 166.373 11.8339H166.191C166.149 12.6536 166.044 13.5293 165.884 14.4538C165.716 15.3854 165.409 16.7157 164.961 18.4386L164.039 21.8426Z" fill="#FEFEFE"/>
<path fill-rule="evenodd" clip-rule="evenodd" d="M96.9838 32.7608V2.72217H110.54C114.467 2.72217 117.472 3.59071 119.547 5.32781C121.622 7.0649 122.657 9.57197 122.657 12.8357C122.657 14.9715 122.132 16.7299 121.091 18.1091C120.043 19.4954 118.639 20.3018 116.863 20.5327L124.864 32.7616H112.789L107.548 22.8515V32.7616H96.9838V32.7608ZM107.549 10.4547V16.3241H109.226C110.253 16.3241 111.036 16.0719 111.588 15.5745C112.14 15.0772 112.419 14.3632 112.419 13.4316C112.419 12.4725 112.14 11.7371 111.588 11.2256C111.036 10.7149 110.253 10.4556 109.226 10.4556C109.226 10.4547 107.549 10.4547 107.549 10.4547Z" fill="#FEFEFE"/>
<path fill-rule="evenodd" clip-rule="evenodd" d="M244.176 14.6448C243.191 13.6999 242.193 12.993 241.167 12.5312C240.147 12.0623 239.065 11.8314 237.934 11.8314C236.174 11.8314 234.757 12.3775 233.689 13.4619C232.62 14.5462 232.083 15.9956 232.083 17.8011C232.083 19.5639 232.593 20.9715 233.62 22.0212C234.639 23.0781 236.015 23.6029 237.732 23.6029C238.765 23.6029 239.819 23.3791 240.888 22.9377C241.963 22.4902 243.129 21.7903 244.4 20.817L244.051 32.1126C242.879 32.5886 241.706 32.9527 240.532 33.1898C239.359 33.4278 238.186 33.5468 237.013 33.5468C235.554 33.5468 234.15 33.3861 232.803 33.0575C231.449 32.7289 230.233 32.26 229.138 31.6579C226.491 30.1321 224.495 28.1934 223.14 25.856C221.778 23.5186 221.102 20.8383 221.102 17.8011C221.102 15.5613 221.485 13.4832 222.261 11.5649C223.029 9.65467 224.153 7.96819 225.619 6.50552C227.106 5.02863 228.831 3.90876 230.786 3.153C232.748 2.39013 234.864 2.0127 237.14 2.0127C238.355 2.0127 239.548 2.1388 240.728 2.39102C241.909 2.64323 243.06 3.02067 244.178 3.53132C244.176 3.53132 244.176 14.6448 244.176 14.6448Z" fill="#FEFEFE"/>
<path fill-rule="evenodd" clip-rule="evenodd" d="M195.929 30.1874L199.364 21.7826C200.908 22.8607 202.276 23.6511 203.485 24.1485C204.692 24.6458 205.824 24.8971 206.87 24.8971C207.611 24.8971 208.19 24.7568 208.609 24.4771C209.034 24.1964 209.244 23.819 209.244 23.3359C209.244 22.5028 208.189 21.8661 206.074 21.4327C205.39 21.2782 204.859 21.1663 204.475 21.0828C202.241 20.5366 200.53 19.5642 199.343 18.1717C198.156 16.7791 197.563 15.0429 197.563 12.9648C197.563 9.7384 198.715 7.11411 201.02 5.09194C203.324 3.06977 206.347 2.05469 210.082 2.05469C211.807 2.05469 213.497 2.27849 215.158 2.73407C216.82 3.18167 218.503 3.86727 220.193 4.78466L216.918 12.6371C215.884 11.8742 214.844 11.2863 213.796 10.8805C212.756 10.4817 211.743 10.2784 210.759 10.2784C210.012 10.2784 209.433 10.4045 209.021 10.6567C208.609 10.9089 208.407 11.265 208.407 11.7135C208.407 12.5598 209.9 13.3085 212.889 13.9453C213.364 14.0572 213.733 14.1415 213.992 14.1975C216.051 14.6593 217.672 15.6113 218.859 17.0456C220.046 18.4807 220.639 20.216 220.639 22.2524C220.639 25.5694 219.445 28.2852 217.051 30.3917C214.656 32.4982 211.542 33.548 207.708 33.548C205.747 33.548 203.785 33.2682 201.822 32.7087C199.854 32.1466 197.891 31.3064 195.929 30.1874Z" fill="#FEFEFE"/>
<path fill-rule="evenodd" clip-rule="evenodd" d="M192.81 14.8647H183.876V20.5725H192.81V14.8647Z" fill="#FEFEFE"/>
<path fill-rule="evenodd" clip-rule="evenodd" d="M92.7583 14.6423C91.7731 13.6965 90.7736 12.9896 89.7467 12.5278C88.7268 12.058 87.6432 11.8271 86.5117 11.8271C84.7512 11.8271 83.3326 12.3732 82.2632 13.4594C81.1937 14.5446 80.6559 15.9948 80.6559 17.8012C80.6559 19.5658 81.1654 20.9734 82.1932 22.024C83.213 23.0818 84.5899 23.6066 86.3088 23.6066C87.3428 23.6066 88.3981 23.3828 89.4667 22.9414C90.5432 22.493 91.7101 21.7931 92.9816 20.8189L92.6325 32.1234C91.4585 32.5994 90.2845 32.9635 89.1105 33.2015C87.9365 33.4395 86.7625 33.5585 85.5885 33.5585C84.1283 33.5585 82.7239 33.3977 81.3753 33.0683C80.0197 32.7388 78.8041 32.2699 77.7071 31.6669C75.0588 30.1403 73.0598 28.2007 71.7042 25.8606C70.3415 23.5214 69.6636 20.8393 69.6636 17.7994C69.6636 15.5579 70.0482 13.478 70.8235 11.5589C71.5925 9.64681 72.7169 7.95856 74.1851 6.495C75.6737 5.01722 77.3997 3.89646 79.3561 3.1407C81.3195 2.37695 83.4372 1.99951 85.7152 1.99951C86.9308 1.99951 88.1261 2.12562 89.3072 2.37783C90.4883 2.63005 91.641 3.00837 92.7592 3.51902L92.7583 14.6423Z" fill="#FEFEFE"/>
<path fill-rule="evenodd" clip-rule="evenodd" d="M126.996 32.7608V2.72217H147.036V10.8677H137.561V13.7602H146.156V21.4572H137.561V24.6161H147.281V32.7608H126.996Z" fill="#FEFEFE"/>
<path fill-rule="evenodd" clip-rule="evenodd" d="M97.5748 43.111C97.2221 43.111 96.8961 43.0586 96.5966 42.9538C96.298 42.8499 96.041 42.6936 95.8266 42.4876C95.6122 42.2806 95.4456 42.0222 95.3269 41.714C95.2091 41.4041 95.1506 41.0471 95.1506 40.6421C95.1506 40.2656 95.2073 39.9228 95.3189 39.6155C95.4323 39.3082 95.5962 39.0445 95.8107 38.8251C96.018 38.6146 96.2732 38.4512 96.5789 38.3358C96.8837 38.2203 97.2168 38.1635 97.5792 38.1635C97.7795 38.1635 97.9593 38.1741 98.1206 38.1963C98.281 38.2194 98.4298 38.2487 98.5663 38.2843C98.708 38.3242 98.8374 38.3704 98.9526 38.421C99.0695 38.4699 99.1705 38.5169 99.2574 38.5596V39.715H99.1174C99.0589 39.6635 98.9836 39.6031 98.8932 39.5329C98.8028 39.4619 98.7001 39.3935 98.5849 39.3242C98.4688 39.2567 98.3412 39.1981 98.2048 39.1519C98.0683 39.1048 97.9239 39.0818 97.7679 39.0818C97.5961 39.0818 97.4321 39.1075 97.2762 39.1626C97.1202 39.2176 96.9776 39.3082 96.8447 39.4334C96.7197 39.5542 96.6179 39.7167 96.5408 39.9157C96.4619 40.1164 96.4238 40.3588 96.4238 40.6448C96.4238 40.9441 96.4655 41.1927 96.5488 41.3934C96.6338 41.5933 96.7392 41.7513 96.8668 41.8659C96.9962 41.984 97.1415 42.0666 97.3001 42.1172C97.4605 42.1679 97.6173 42.1927 97.7732 42.1927C97.9221 42.1927 98.0692 42.1705 98.2154 42.1261C98.3616 42.0817 98.4954 42.0204 98.6185 41.9432C98.7231 41.881 98.8197 41.8144 98.9092 41.7442C98.9987 41.6741 99.0713 41.6128 99.1289 41.5613H99.2565V42.6998C99.1378 42.7531 99.0235 42.8037 98.9154 42.8508C98.8064 42.8979 98.693 42.9378 98.5733 42.9716C98.4183 43.016 98.273 43.0506 98.1365 43.0746C98.001 43.0986 97.8131 43.111 97.5748 43.111ZM103.757 41.2229C103.757 41.8135 103.586 42.2798 103.241 42.6199C102.898 42.96 102.415 43.1305 101.794 43.1305C101.172 43.1305 100.689 42.96 100.346 42.6199C100.003 42.2798 99.8307 41.8144 99.8307 41.2229C99.8307 40.6288 100.003 40.1617 100.349 39.8215C100.695 39.4832 101.176 39.3127 101.793 39.3127C102.419 39.3127 102.903 39.4841 103.243 39.8242C103.587 40.1679 103.757 40.6324 103.757 41.2229ZM102.343 42.0968C102.418 42.0053 102.473 41.8943 102.51 41.7656C102.547 41.6368 102.567 41.4574 102.567 41.23C102.567 41.0196 102.547 40.8419 102.509 40.699C102.471 40.556 102.418 40.4423 102.35 40.3562C102.282 40.2691 102.2 40.2079 102.104 40.1714C102.009 40.1341 101.905 40.1173 101.795 40.1173C101.684 40.1173 101.586 40.1315 101.5 40.1617C101.412 40.191 101.331 40.2514 101.253 40.3411C101.182 40.4237 101.126 40.5382 101.085 40.683C101.044 40.8286 101.023 41.0107 101.023 41.23C101.023 41.4263 101.041 41.5968 101.077 41.7407C101.115 41.8837 101.167 41.9991 101.237 42.087C101.304 42.1714 101.387 42.2309 101.48 42.27C101.575 42.3091 101.683 42.3277 101.804 42.3277C101.908 42.3277 102.008 42.31 102.102 42.2753C102.196 42.2398 102.278 42.1794 102.343 42.0968ZM108.181 43.0178H107.025V41.2363C107.025 41.0906 107.017 40.9467 107.003 40.8029C106.988 40.659 106.962 40.5524 106.926 40.4849C106.884 40.405 106.822 40.3482 106.74 40.3118C106.658 40.2753 106.544 40.2576 106.397 40.2576C106.293 40.2576 106.187 40.2745 106.08 40.3091C105.972 40.3428 105.856 40.3979 105.73 40.4716V43.0178H104.581V39.4254H105.73V39.8215C105.934 39.6626 106.13 39.5391 106.318 39.4539C106.507 39.3686 106.716 39.326 106.946 39.326C107.332 39.326 107.635 39.4397 107.853 39.6652C108.072 39.8908 108.181 40.2283 108.181 40.6785V43.0178ZM112.35 41.8792C112.35 42.2504 112.185 42.5497 111.852 42.7771C111.521 43.0044 111.067 43.1181 110.49 43.1181C110.171 43.1181 109.882 43.0879 109.623 43.0284C109.363 42.968 109.154 42.9023 108.997 42.8295V41.8828H109.102C109.16 41.9227 109.226 41.968 109.302 42.016C109.377 42.0631 109.484 42.1155 109.623 42.1714C109.742 42.2203 109.877 42.262 110.028 42.2966C110.179 42.333 110.341 42.3508 110.513 42.3508C110.738 42.3508 110.904 42.3259 111.014 42.2753C111.122 42.2256 111.176 42.151 111.176 42.0524C111.176 41.9654 111.145 41.9014 111.081 41.8624C111.018 41.8233 110.896 41.7851 110.717 41.7487C110.632 41.7291 110.516 41.7087 110.371 41.6865C110.225 41.6634 110.092 41.6359 109.973 41.6048C109.648 41.5196 109.406 41.3863 109.249 41.2061C109.092 41.0258 109.013 40.802 109.013 40.5338C109.013 40.1874 109.177 39.9006 109.504 39.6715C109.829 39.4423 110.275 39.3278 110.842 39.3278C111.11 39.3278 111.367 39.3553 111.612 39.4095C111.859 39.4636 112.05 39.5214 112.188 39.5844V40.4929H112.089C111.919 40.3748 111.725 40.2798 111.508 40.2061C111.289 40.1333 111.068 40.096 110.845 40.096C110.66 40.096 110.504 40.1226 110.376 40.1732C110.25 40.2238 110.187 40.2967 110.187 40.3908C110.187 40.4761 110.215 40.54 110.273 40.5862C110.33 40.6306 110.465 40.6759 110.678 40.7203C110.795 40.7434 110.92 40.7665 111.056 40.7895C111.191 40.8117 111.327 40.8402 111.463 40.8739C111.766 40.953 111.988 41.0773 112.133 41.246C112.278 41.4139 112.35 41.6261 112.35 41.8792ZM116.643 41.4352H114.014C114.03 41.7167 114.138 41.9325 114.335 42.0817C114.531 42.23 114.821 42.3055 115.204 42.3055C115.447 42.3055 115.682 42.262 115.91 42.1741C116.137 42.0862 116.317 41.9929 116.45 41.8926H116.578V42.8162C116.317 42.921 116.074 42.9964 115.844 43.0435C115.615 43.0906 115.36 43.1146 115.081 43.1146C114.363 43.1146 113.812 42.952 113.428 42.6288C113.046 42.3046 112.854 41.8428 112.854 41.2434C112.854 40.6501 113.034 40.1803 113.397 39.8331C113.759 39.4867 114.257 39.3135 114.889 39.3135C115.472 39.3135 115.91 39.4619 116.204 39.7567C116.498 40.0524 116.644 40.4778 116.644 41.032L116.643 41.4352ZM115.5 40.7602C115.495 40.5187 115.435 40.3375 115.321 40.2167C115.209 40.0942 115.034 40.0347 114.795 40.0347C114.574 40.0347 114.392 40.0915 114.249 40.207C114.107 40.3215 114.027 40.5063 114.01 40.7602H115.5ZM118.603 43.0178H117.454V38.04H118.603V43.0178ZM123.288 43.0178H122.132V41.2363C122.132 41.0906 122.124 40.9467 122.11 40.8029C122.095 40.659 122.069 40.5524 122.033 40.4849C121.991 40.405 121.929 40.3482 121.847 40.3118C121.766 40.2753 121.651 40.2576 121.504 40.2576C121.4 40.2576 121.294 40.2745 121.187 40.3091C121.079 40.3428 120.963 40.3979 120.837 40.4716V43.0178H119.688V38.04H120.837V39.8215C121.041 39.6626 121.237 39.5391 121.425 39.4539C121.614 39.3686 121.823 39.326 122.053 39.326C122.439 39.326 122.742 39.4397 122.96 39.6652C123.179 39.8908 123.288 40.2283 123.288 40.6785V43.0178ZM128.008 41.2229C128.008 41.8135 127.837 42.2798 127.492 42.6199C127.149 42.96 126.666 43.1305 126.045 43.1305C125.423 43.1305 124.94 42.96 124.597 42.6199C124.254 42.2798 124.082 41.8144 124.082 41.2229C124.082 40.6288 124.255 40.1617 124.6 39.8215C124.946 39.4832 125.427 39.3127 126.044 39.3127C126.67 39.3127 127.154 39.4841 127.494 39.8242C127.838 40.1679 128.008 40.6324 128.008 41.2229ZM126.594 42.0968C126.669 42.0053 126.725 41.8943 126.761 41.7656C126.798 41.6368 126.818 41.4574 126.818 41.23C126.818 41.0196 126.798 40.8419 126.76 40.699C126.722 40.556 126.669 40.4423 126.6 40.3562C126.532 40.2691 126.45 40.2079 126.354 40.1714C126.259 40.1341 126.155 40.1173 126.045 40.1173C125.934 40.1173 125.836 40.1315 125.75 40.1617C125.662 40.191 125.582 40.2514 125.503 40.3411C125.432 40.4237 125.376 40.5382 125.335 40.683C125.294 40.8286 125.273 41.0107 125.273 41.23C125.273 41.4263 125.291 41.5968 125.327 41.7407C125.364 41.8837 125.416 41.9991 125.487 42.087C125.554 42.1714 125.637 42.2309 125.731 42.27C125.825 42.3091 125.933 42.3277 126.054 42.3277C126.159 42.3277 126.258 42.31 126.353 42.2753C126.447 42.2398 126.528 42.1794 126.594 42.0968ZM133.794 39.7141C133.794 39.5942 133.769 39.4912 133.721 39.4059C133.672 39.3207 133.587 39.2541 133.467 39.2052C133.385 39.1715 133.288 39.151 133.178 39.143C133.066 39.135 132.939 39.1306 132.791 39.1306H132.348V40.4139H132.724C132.92 40.4139 133.085 40.4041 133.217 40.3855C133.349 40.3659 133.459 40.3224 133.548 40.2549C133.633 40.1883 133.696 40.1146 133.736 40.0356C133.774 39.9556 133.794 39.8482 133.794 39.7141ZM135.706 43.0178H134.209L132.913 41.2709H132.348V43.0178H131.129V38.255H133.184C133.465 38.255 133.707 38.27 133.909 38.3029C134.112 38.3349 134.301 38.4033 134.478 38.5098C134.657 38.6173 134.797 38.7549 134.904 38.9237C135.009 39.0942 135.061 39.3064 135.061 39.5622C135.061 39.9139 134.98 40.2007 134.818 40.4228C134.654 40.6448 134.422 40.8286 134.121 40.976L135.706 43.0178ZM139.706 41.4352H137.076C137.093 41.7167 137.2 41.9325 137.398 42.0817C137.594 42.23 137.884 42.3055 138.267 42.3055C138.51 42.3055 138.745 42.262 138.972 42.1741C139.2 42.0862 139.38 41.9929 139.513 41.8926H139.641V42.8162C139.38 42.921 139.136 42.9964 138.906 43.0435C138.677 43.0906 138.422 43.1146 138.143 43.1146C137.425 43.1146 136.873 42.952 136.49 42.6288C136.108 42.3046 135.916 41.8428 135.916 41.2434C135.916 40.6501 136.096 40.1803 136.459 39.8331C136.822 39.4867 137.319 39.3135 137.952 39.3135C138.534 39.3135 138.972 39.4619 139.267 39.7567C139.561 40.0524 139.707 40.4778 139.707 41.032V41.4352H139.706ZM138.564 40.7602C138.559 40.5187 138.498 40.3375 138.386 40.2167C138.273 40.0942 138.098 40.0347 137.86 40.0347C137.638 40.0347 137.456 40.0915 137.314 40.207C137.171 40.3215 137.091 40.5063 137.074 40.7602H138.564ZM144.002 42.6057C144.002 42.9432 143.954 43.2256 143.857 43.4565C143.762 43.6865 143.628 43.8668 143.455 43.9973C143.283 44.1305 143.075 44.2256 142.832 44.2842C142.588 44.3419 142.313 44.3712 142.006 44.3712C141.758 44.3712 141.513 44.357 141.271 44.3268C141.029 44.2975 140.82 44.2611 140.644 44.2184V43.3188H140.784C140.925 43.3748 141.096 43.4263 141.298 43.4716C141.499 43.5177 141.68 43.5399 141.841 43.5399C142.053 43.5399 142.226 43.5195 142.359 43.4804C142.492 43.4405 142.594 43.3854 142.664 43.3135C142.729 43.2451 142.777 43.1572 142.807 43.0506C142.836 42.9449 142.852 42.8162 142.852 42.667V42.5995C142.713 42.7131 142.559 42.8028 142.392 42.8677C142.223 42.9343 142.036 42.9671 141.83 42.9671C141.328 42.9671 140.941 42.8153 140.669 42.5133C140.397 42.2105 140.261 41.7496 140.261 41.1315C140.261 40.8357 140.302 40.58 140.385 40.3642C140.468 40.1492 140.585 39.961 140.736 39.802C140.877 39.6528 141.049 39.5365 141.254 39.453C141.46 39.3695 141.67 39.3287 141.885 39.3287C142.079 39.3287 142.254 39.3517 142.413 39.3979C142.571 39.4432 142.715 39.5072 142.845 39.588L142.887 39.429H144.001L144.002 42.6057ZM142.853 41.8863V40.2585C142.787 40.2301 142.706 40.2087 142.611 40.1928C142.515 40.1768 142.429 40.1688 142.353 40.1688C142.05 40.1688 141.824 40.2549 141.673 40.429C141.522 40.6039 141.446 40.8464 141.446 41.1572C141.446 41.5018 141.511 41.7434 141.639 41.8801C141.768 42.0169 141.958 42.0853 142.213 42.0853C142.327 42.0853 142.44 42.0666 142.55 42.0302C142.661 41.9938 142.762 41.9458 142.853 41.8863ZM146.236 43.0178H145.087V39.4254H146.236V43.0178ZM146.267 38.9139H145.055V38.04H146.267V38.9139ZM150.985 41.2229C150.985 41.8135 150.814 42.2798 150.469 42.6199C150.126 42.96 149.643 43.1305 149.022 43.1305C148.4 43.1305 147.917 42.96 147.574 42.6199C147.231 42.2798 147.058 41.8144 147.058 41.2229C147.058 40.6288 147.231 40.1617 147.577 39.8215C147.922 39.4832 148.404 39.3127 149.021 39.3127C149.647 39.3127 150.13 39.4841 150.471 39.8242C150.814 40.1679 150.985 40.6324 150.985 41.2229ZM149.57 42.0968C149.646 42.0053 149.701 41.8943 149.738 41.7656C149.775 41.6368 149.795 41.4574 149.795 41.23C149.795 41.0196 149.775 40.8419 149.737 40.699C149.699 40.556 149.646 40.4423 149.578 40.3562C149.51 40.2691 149.428 40.2079 149.332 40.1714C149.236 40.1341 149.133 40.1173 149.023 40.1173C148.912 40.1173 148.814 40.1315 148.728 40.1617C148.641 40.191 148.559 40.2514 148.481 40.3411C148.41 40.4237 148.354 40.5382 148.313 40.683C148.271 40.8286 148.251 41.0107 148.251 41.23C148.251 41.4263 148.269 41.5968 148.305 41.7407C148.342 41.8837 148.395 41.9991 148.465 42.087C148.532 42.1714 148.614 42.2309 148.708 42.27C148.803 42.3091 148.911 42.3277 149.032 42.3277C149.136 42.3277 149.236 42.31 149.33 42.2753C149.424 42.2398 149.505 42.1794 149.57 42.0968ZM155.408 43.0178H154.252V41.2363C154.252 41.0906 154.244 40.9467 154.23 40.8029C154.215 40.659 154.19 40.5524 154.153 40.4849C154.111 40.405 154.048 40.3482 153.967 40.3118C153.885 40.2753 153.771 40.2576 153.624 40.2576C153.52 40.2576 153.414 40.2745 153.307 40.3091C153.199 40.3428 153.083 40.3979 152.957 40.4716V43.0178H151.808V39.4254H152.957V39.8215C153.161 39.6626 153.356 39.5391 153.545 39.4539C153.734 39.3686 153.942 39.326 154.173 39.326C154.559 39.326 154.862 39.4397 155.08 39.6652C155.299 39.8908 155.408 40.2283 155.408 40.6785V43.0178ZM158.634 42.0817V41.3331C158.479 41.3464 158.31 41.3633 158.13 41.3855C157.949 41.4085 157.812 41.4343 157.718 41.4645C157.603 41.5009 157.515 41.5542 157.455 41.6226C157.394 41.6927 157.364 41.7833 157.364 41.897C157.364 41.9716 157.37 42.032 157.384 42.079C157.397 42.1261 157.428 42.1705 157.479 42.2131C157.528 42.2558 157.586 42.2869 157.655 42.3073C157.722 42.3277 157.829 42.3375 157.974 42.3375C158.088 42.3375 158.205 42.3135 158.324 42.2673C158.441 42.2203 158.544 42.1581 158.634 42.0817ZM158.634 42.6368C158.573 42.6838 158.496 42.7407 158.404 42.8073C158.313 42.873 158.227 42.9254 158.146 42.9636C158.032 43.0151 157.915 43.0533 157.795 43.0773C157.672 43.1021 157.54 43.1146 157.396 43.1146C157.055 43.1146 156.77 43.0089 156.54 42.7975C156.31 42.5861 156.195 42.3162 156.195 41.9885C156.195 41.7256 156.254 41.5116 156.371 41.3455C156.489 41.1785 156.654 41.0471 156.869 40.9512C157.081 40.8562 157.346 40.7869 157.661 40.7469C157.975 40.707 158.302 40.6759 158.64 40.6572V40.6377C158.64 40.4396 158.559 40.302 158.397 40.2274C158.236 40.1519 157.998 40.1137 157.682 40.1137C157.493 40.1137 157.291 40.1475 157.077 40.2141C156.862 40.2816 156.707 40.3331 156.614 40.3695H156.508V39.5027C156.63 39.4707 156.827 39.4326 157.101 39.389C157.374 39.3455 157.648 39.3233 157.922 39.3233C158.576 39.3233 159.048 39.4237 159.337 39.6262C159.628 39.8278 159.773 40.1439 159.773 40.5746V43.0186H158.634V42.6368ZM161.979 43.0178H160.829V38.04H161.979V43.0178ZM168.782 43.0178H167.634V42.643C167.436 42.8055 167.251 42.9245 167.079 43.0009C166.907 43.079 166.707 43.1163 166.481 43.1163C166.046 43.1163 165.696 42.9485 165.434 42.611C165.173 42.2735 165.043 41.8197 165.043 41.2487C165.043 40.9441 165.086 40.6732 165.175 40.437C165.263 40.2007 165.384 39.9992 165.538 39.8313C165.682 39.6723 165.858 39.5471 166.064 39.4592C166.271 39.3713 166.477 39.326 166.684 39.326C166.899 39.326 167.074 39.3491 167.212 39.3953C167.349 39.4405 167.491 39.4992 167.635 39.5702V38.0409H168.783C168.782 38.0409 168.782 43.0178 168.782 43.0178ZM167.634 42.0266V40.2647C167.553 40.2301 167.468 40.2061 167.378 40.191C167.289 40.1759 167.207 40.1688 167.133 40.1688C166.83 40.1688 166.604 40.2629 166.453 40.4512C166.302 40.6403 166.226 40.9023 166.226 41.2363C166.226 41.5879 166.287 41.8428 166.409 42.0027C166.529 42.1608 166.725 42.2407 166.993 42.2407C167.096 42.2407 167.207 42.2211 167.324 42.1821C167.442 42.1421 167.545 42.0906 167.634 42.0266ZM173.397 41.4352H170.767C170.784 41.7167 170.891 41.9325 171.089 42.0817C171.285 42.23 171.574 42.3055 171.958 42.3055C172.201 42.3055 172.436 42.262 172.663 42.1741C172.891 42.0862 173.071 41.9929 173.204 41.8926H173.331V42.8162C173.071 42.921 172.827 42.9964 172.597 43.0435C172.367 43.0906 172.113 43.1146 171.834 43.1146C171.115 43.1146 170.563 42.952 170.181 42.6288C169.799 42.3046 169.607 41.8428 169.607 41.2434C169.607 40.6501 169.787 40.1803 170.15 39.8331C170.513 39.4867 171.01 39.3135 171.643 39.3135C172.225 39.3135 172.663 39.4619 172.958 39.7567C173.252 40.0524 173.398 40.4778 173.398 41.032V41.4352H173.397ZM172.254 40.7602C172.249 40.5187 172.188 40.3375 172.075 40.2167C171.962 40.0942 171.787 40.0347 171.549 40.0347C171.327 40.0347 171.146 40.0915 171.003 40.207C170.86 40.3215 170.781 40.5063 170.763 40.7602H172.254ZM179.943 43.0178H176.506V38.255H179.943V39.175H177.725V39.9974H179.783V40.9183H177.725V42.0959H179.943V43.0178ZM184.507 43.0178H183.352V41.2363C183.352 41.0906 183.344 40.9467 183.33 40.8029C183.314 40.659 183.289 40.5524 183.252 40.4849C183.21 40.405 183.148 40.3482 183.066 40.3118C182.985 40.2753 182.871 40.2576 182.723 40.2576C182.619 40.2576 182.513 40.2745 182.406 40.3091C182.298 40.3428 182.182 40.3979 182.057 40.4716V43.0178H180.908V39.4254H182.057V39.8215C182.261 39.6626 182.457 39.5391 182.646 39.4539C182.834 39.3686 183.042 39.326 183.273 39.326C183.659 39.326 183.962 39.4397 184.18 39.6652C184.399 39.8908 184.508 40.2283 184.508 40.6785L184.507 43.0178ZM189.047 42.6057C189.047 42.9432 188.999 43.2256 188.904 43.4565C188.809 43.6865 188.674 43.8668 188.501 43.9973C188.329 44.1305 188.121 44.2256 187.878 44.2842C187.635 44.3419 187.359 44.3712 187.053 44.3712C186.805 44.3712 186.559 44.357 186.317 44.3268C186.075 44.2975 185.866 44.2611 185.69 44.2184V43.3188H185.83C185.971 43.3748 186.142 43.4263 186.344 43.4716C186.545 43.5177 186.726 43.5399 186.886 43.5399C187.099 43.5399 187.272 43.5195 187.404 43.4804C187.537 43.4405 187.639 43.3854 187.709 43.3135C187.775 43.2451 187.823 43.1572 187.853 43.0506C187.882 42.9449 187.897 42.8162 187.897 42.667V42.5995C187.759 42.7131 187.605 42.8028 187.437 42.8677C187.269 42.9343 187.082 42.9671 186.875 42.9671C186.373 42.9671 185.987 42.8153 185.715 42.5133C185.443 42.2105 185.306 41.7496 185.306 41.1315C185.306 40.8357 185.348 40.58 185.43 40.3642C185.514 40.1492 185.631 39.961 185.781 39.802C185.922 39.6528 186.095 39.5365 186.3 39.453C186.506 39.3695 186.716 39.3287 186.93 39.3287C187.124 39.3287 187.3 39.3517 187.459 39.3979C187.616 39.4432 187.761 39.5072 187.891 39.588L187.933 39.429H189.046L189.047 42.6057ZM187.899 41.8863V40.2585C187.832 40.2301 187.752 40.2087 187.656 40.1928C187.56 40.1768 187.474 40.1688 187.398 40.1688C187.095 40.1688 186.869 40.2549 186.719 40.429C186.567 40.6039 186.492 40.8464 186.492 41.1572C186.492 41.5018 186.557 41.7434 186.685 41.8801C186.813 42.0169 187.004 42.0853 187.258 42.0853C187.373 42.0853 187.486 42.0666 187.596 42.0302C187.707 41.9938 187.808 41.9458 187.899 41.8863ZM193.662 41.4352H191.032C191.05 41.7167 191.156 41.9325 191.354 42.0817C191.55 42.23 191.839 42.3055 192.223 42.3055C192.466 42.3055 192.699 42.262 192.927 42.1741C193.155 42.0862 193.335 41.9929 193.468 41.8926H193.595V42.8162C193.335 42.921 193.091 42.9964 192.862 43.0435C192.632 43.0906 192.378 43.1146 192.099 43.1146C191.38 43.1146 190.829 42.952 190.445 42.6288C190.063 42.3046 189.871 41.8428 189.871 41.2434C189.871 40.6501 190.052 40.1803 190.414 39.8331C190.778 39.4867 191.275 39.3135 191.906 39.3135C192.489 39.3135 192.927 39.4619 193.221 39.7567C193.515 40.0524 193.662 40.4778 193.662 41.032V41.4352ZM192.519 40.7602C192.513 40.5187 192.453 40.3375 192.34 40.2167C192.227 40.0942 192.053 40.0347 191.813 40.0347C191.592 40.0347 191.41 40.0915 191.268 40.207C191.125 40.3215 191.045 40.5063 191.028 40.7602H192.519ZM198.072 43.0178H196.917V41.2363C196.917 41.0906 196.909 40.9467 196.895 40.8029C196.88 40.659 196.854 40.5524 196.818 40.4849C196.775 40.405 196.713 40.3482 196.632 40.3118C196.55 40.2753 196.436 40.2576 196.289 40.2576C196.184 40.2576 196.079 40.2745 195.972 40.3091C195.863 40.3428 195.747 40.3979 195.622 40.4716V43.0178H194.472V39.4254H195.622V39.8215C195.825 39.6626 196.021 39.5391 196.21 39.4539C196.399 39.3686 196.608 39.326 196.837 39.326C197.224 39.326 197.527 39.4397 197.745 39.6652C197.963 39.8908 198.072 40.2283 198.072 40.6785V43.0178ZM202.728 43.0178H201.572V41.2363C201.572 41.0906 201.564 40.9467 201.55 40.8029C201.535 40.659 201.51 40.5524 201.473 40.4849C201.43 40.405 201.368 40.3482 201.287 40.3118C201.205 40.2753 201.091 40.2576 200.944 40.2576C200.84 40.2576 200.734 40.2745 200.627 40.3091C200.519 40.3428 200.403 40.3979 200.277 40.4716V43.0178H199.128V38.04H200.277V39.8215C200.481 39.6626 200.676 39.5391 200.865 39.4539C201.054 39.3686 201.263 39.326 201.493 39.326C201.879 39.326 202.182 39.4397 202.4 39.6652C202.619 39.8908 202.728 40.2283 202.728 40.6785V43.0178ZM205.954 42.0817V41.3331C205.799 41.3464 205.63 41.3633 205.45 41.3855C205.269 41.4085 205.132 41.4343 205.038 41.4645C204.923 41.5009 204.835 41.5542 204.775 41.6226C204.714 41.6927 204.684 41.7833 204.684 41.897C204.684 41.9716 204.69 42.032 204.704 42.079C204.717 42.1261 204.748 42.1705 204.799 42.2131C204.848 42.2558 204.906 42.2869 204.975 42.3073C205.042 42.3277 205.149 42.3375 205.294 42.3375C205.408 42.3375 205.525 42.3135 205.644 42.2673C205.761 42.2203 205.864 42.1581 205.954 42.0817ZM205.954 42.6368C205.893 42.6838 205.816 42.7407 205.724 42.8073C205.633 42.873 205.547 42.9254 205.466 42.9636C205.353 43.0151 205.236 43.0533 205.116 43.0773C204.993 43.1021 204.86 43.1146 204.717 43.1146C204.376 43.1146 204.09 43.0089 203.861 42.7975C203.631 42.5861 203.516 42.3162 203.516 41.9885C203.516 41.7256 203.575 41.5116 203.692 41.3455C203.81 41.1785 203.974 41.0471 204.19 40.9512C204.402 40.8562 204.666 40.7869 204.982 40.7469C205.296 40.707 205.623 40.6759 205.961 40.6572V40.6377C205.961 40.4396 205.88 40.302 205.718 40.2274C205.557 40.1519 205.318 40.1137 205.003 40.1137C204.813 40.1137 204.612 40.1475 204.398 40.2141C204.183 40.2816 204.028 40.3331 203.935 40.3695H203.83V39.5027C203.951 39.4707 204.149 39.4326 204.423 39.389C204.695 39.3455 204.969 39.3233 205.244 39.3233C205.898 39.3233 206.369 39.4237 206.659 39.6262C206.95 39.8278 207.095 40.1439 207.095 40.5746V43.0186H205.956L205.954 42.6368ZM210.747 40.5231H210.644C210.596 40.5054 210.517 40.4929 210.408 40.4849C210.3 40.4761 210.209 40.4716 210.137 40.4716C209.973 40.4716 209.828 40.4823 209.703 40.5036C209.578 40.5258 209.442 40.5613 209.298 40.6128V43.0178H208.148V39.4254H209.298V39.953C209.55 39.7354 209.77 39.5915 209.958 39.5196C210.146 39.4485 210.318 39.413 210.475 39.413C210.516 39.413 210.561 39.4139 210.613 39.4166C210.664 39.4183 210.708 39.4219 210.746 39.4263C210.747 39.4263 210.747 40.5231 210.747 40.5231ZM212.547 43.0178H211.398V39.4254H212.547V43.0178ZM212.579 38.9139H211.366V38.04H212.579V38.9139ZM215.802 42.0817V41.3331C215.648 41.3464 215.479 41.3633 215.298 41.3855C215.117 41.4085 214.98 41.4343 214.886 41.4645C214.772 41.5009 214.683 41.5542 214.624 41.6226C214.563 41.6927 214.532 41.7833 214.532 41.897C214.532 41.9716 214.539 42.032 214.552 42.079C214.565 42.1261 214.596 42.1705 214.648 42.2131C214.696 42.2558 214.754 42.2869 214.823 42.3073C214.89 42.3277 214.998 42.3375 215.142 42.3375C215.256 42.3375 215.373 42.3135 215.492 42.2673C215.609 42.2203 215.713 42.1581 215.802 42.0817ZM215.802 42.6368C215.741 42.6838 215.664 42.7407 215.573 42.8073C215.481 42.873 215.395 42.9254 215.315 42.9636C215.201 43.0151 215.084 43.0533 214.964 43.0773C214.842 43.1021 214.709 43.1146 214.565 43.1146C214.224 43.1146 213.939 43.0089 213.709 42.7975C213.479 42.5861 213.365 42.3162 213.365 41.9885C213.365 41.7256 213.423 41.5116 213.54 41.3455C213.658 41.1785 213.824 41.0471 214.038 40.9512C214.251 40.8562 214.515 40.7869 214.83 40.7469C215.145 40.707 215.472 40.6759 215.809 40.6572V40.6377C215.809 40.4396 215.729 40.302 215.566 40.2274C215.405 40.1519 215.167 40.1137 214.851 40.1137C214.662 40.1137 214.461 40.1475 214.246 40.2141C214.031 40.2816 213.877 40.3331 213.783 40.3695H213.677V39.5027C213.799 39.4707 213.996 39.4326 214.27 39.389C214.542 39.3455 214.817 39.3233 215.091 39.3233C215.745 39.3233 216.217 39.4237 216.507 39.6262C216.797 39.8278 216.942 40.1439 216.942 40.5746V43.0186H215.803L215.802 42.6368Z" fill="#FEFEFE"/>
<path fill-rule="evenodd" clip-rule="evenodd" d="M103.563 49.2736H100.933C100.95 49.5551 101.057 49.77 101.254 49.9201C101.45 50.0684 101.74 50.1439 102.124 50.1439C102.366 50.1439 102.601 50.1004 102.829 50.0125C103.057 49.9236 103.236 49.8313 103.369 49.7309H103.497V50.6545C103.236 50.7593 102.993 50.8348 102.762 50.8819C102.533 50.929 102.279 50.9529 102 50.9529C101.281 50.9529 100.729 50.7904 100.346 50.4672C99.9643 50.143 99.772 49.6812 99.772 49.0817C99.772 48.4885 99.9528 48.0196 100.315 47.6715C100.678 47.3251 101.176 47.1519 101.808 47.1519C102.39 47.1519 102.829 47.3002 103.123 47.5951C103.417 47.8908 103.563 48.3153 103.563 48.8704V49.2736H103.563ZM102.42 48.5986C102.415 48.3571 102.355 48.1759 102.241 48.0551C102.129 47.9326 101.953 47.8722 101.715 47.8722C101.494 47.8722 101.312 47.929 101.169 48.0445C101.027 48.159 100.947 48.3437 100.929 48.5977H102.42V48.5986ZM111.063 50.857H109.796L109.467 49.8943H107.706L107.377 50.857H106.142L107.898 46.0942H109.309L111.063 50.857ZM109.17 49.0205L108.585 47.3127L108.002 49.0205H109.17ZM115.166 50.4441C115.166 50.7815 115.118 51.064 115.023 51.2949C114.928 51.5258 114.793 51.7051 114.62 51.8357C114.448 51.9689 114.24 52.0639 113.997 52.1225C113.754 52.1803 113.478 52.2096 113.172 52.2096C112.924 52.2096 112.678 52.1954 112.436 52.1652C112.194 52.1359 111.985 52.0995 111.809 52.0568V51.1572H111.95C112.091 51.2131 112.262 51.2647 112.464 51.3099C112.666 51.3552 112.846 51.3783 113.006 51.3783C113.219 51.3783 113.391 51.3579 113.524 51.3188C113.657 51.2789 113.758 51.2238 113.829 51.1519C113.895 51.0835 113.943 50.9956 113.973 50.889C114.003 50.7833 114.018 50.6545 114.018 50.5053V50.4378C113.88 50.5515 113.725 50.6412 113.558 50.7061C113.39 50.7727 113.203 50.8055 112.996 50.8055C112.494 50.8055 112.108 50.6537 111.836 50.3517C111.564 50.0489 111.427 49.5879 111.427 48.9698C111.427 48.6741 111.469 48.4183 111.551 48.2025C111.633 47.9876 111.751 47.7993 111.902 47.6404C112.042 47.4912 112.216 47.3748 112.42 47.2914C112.627 47.2079 112.837 47.167 113.051 47.167C113.245 47.167 113.421 47.1901 113.579 47.2354C113.737 47.2816 113.882 47.3447 114.012 47.4255L114.053 47.2656H115.166V50.4441ZM114.019 49.7247V48.0969C113.952 48.0684 113.872 48.0471 113.776 48.0311C113.68 48.0152 113.593 48.0072 113.518 48.0072C113.215 48.0072 112.989 48.0933 112.839 48.2674C112.687 48.4423 112.612 48.6848 112.612 48.9956C112.612 49.3402 112.676 49.5817 112.805 49.7185C112.933 49.8553 113.124 49.9236 113.378 49.9236C113.492 49.9236 113.606 49.905 113.716 49.8695C113.826 49.8331 113.927 49.7851 114.019 49.7247ZM118.849 48.3624H118.747C118.698 48.3446 118.619 48.3322 118.51 48.3242C118.402 48.3153 118.312 48.3109 118.239 48.3109C118.075 48.3109 117.931 48.3215 117.805 48.3429C117.68 48.3651 117.544 48.4006 117.4 48.4521V50.857H116.251V47.2647H117.4V47.7922C117.652 47.5747 117.873 47.4308 118.06 47.3589C118.248 47.2878 118.42 47.2523 118.577 47.2523C118.618 47.2523 118.663 47.2532 118.715 47.2558C118.766 47.2576 118.81 47.2612 118.849 47.2656C118.849 47.2647 118.849 48.3624 118.849 48.3624ZM123.164 49.0622C123.164 49.6528 122.993 50.119 122.648 50.4592C122.305 50.7993 121.822 50.9698 121.201 50.9698C120.579 50.9698 120.096 50.7993 119.753 50.4592C119.41 50.119 119.237 49.6537 119.237 49.0622C119.237 48.4681 119.411 48.0009 119.756 47.6617C120.101 47.3233 120.583 47.1528 121.2 47.1528C121.826 47.1528 122.309 47.3242 122.65 47.6644C122.993 48.0063 123.164 48.4716 123.164 49.0622ZM121.749 49.9352C121.825 49.8437 121.881 49.7336 121.917 49.6048C121.954 49.4761 121.974 49.2967 121.974 49.0684C121.974 48.8579 121.954 48.6803 121.916 48.5373C121.878 48.3944 121.825 48.2807 121.756 48.1945C121.688 48.1075 121.606 48.0462 121.51 48.0098C121.415 47.9725 121.311 47.9557 121.201 47.9557C121.089 47.9557 120.992 47.9699 120.906 48.0001C120.819 48.0294 120.738 48.0898 120.659 48.1794C120.588 48.2629 120.532 48.3775 120.491 48.5214C120.45 48.6661 120.429 48.8482 120.429 49.0684C120.429 49.2647 120.447 49.4352 120.482 49.5791C120.52 49.7221 120.572 49.8375 120.643 49.9254C120.71 50.0098 120.792 50.0693 120.886 50.1084C120.981 50.1474 121.089 50.1661 121.21 50.1661C121.314 50.1661 121.414 50.1483 121.508 50.1137C121.603 50.0782 121.684 50.0187 121.749 49.9352ZM127.587 50.857H126.431V49.0755C126.431 48.9308 126.423 48.786 126.409 48.6421C126.394 48.4983 126.368 48.3926 126.332 48.3242C126.29 48.2443 126.228 48.1874 126.146 48.151C126.064 48.1146 125.95 48.0969 125.803 48.0969C125.699 48.0969 125.593 48.1137 125.486 48.1484C125.378 48.1821 125.262 48.2363 125.136 48.3109V50.857H123.987V47.2647H125.136V47.6608C125.34 47.5018 125.536 47.3784 125.724 47.2931C125.913 47.2079 126.122 47.1661 126.352 47.1661C126.738 47.1661 127.041 47.2798 127.259 47.5054C127.478 47.731 127.587 48.0684 127.587 48.5187V50.857ZM132.306 49.0622C132.306 49.6528 132.135 50.119 131.79 50.4592C131.447 50.7993 130.964 50.9698 130.343 50.9698C129.721 50.9698 129.238 50.7993 128.895 50.4592C128.552 50.119 128.38 49.6537 128.38 49.0622C128.38 48.4681 128.552 48.0009 128.898 47.6617C129.244 47.3233 129.725 47.1528 130.342 47.1528C130.968 47.1528 131.452 47.3242 131.792 47.6644C132.136 48.0063 132.306 48.4716 132.306 49.0622ZM130.892 49.9352C130.967 49.8437 131.022 49.7336 131.059 49.6048C131.096 49.4761 131.116 49.2967 131.116 49.0684C131.116 48.8579 131.096 48.6803 131.058 48.5373C131.02 48.3944 130.967 48.2807 130.899 48.1945C130.831 48.1075 130.749 48.0462 130.653 48.0098C130.558 47.9725 130.454 47.9557 130.344 47.9557C130.232 47.9557 130.135 47.9699 130.049 48.0001C129.961 48.0294 129.881 48.0898 129.802 48.1794C129.731 48.2629 129.675 48.3775 129.634 48.5214C129.593 48.6661 129.572 48.8482 129.572 49.0684C129.572 49.2647 129.59 49.4352 129.625 49.5791C129.663 49.7221 129.715 49.8375 129.785 49.9254C129.852 50.0098 129.935 50.0693 130.03 50.1084C130.124 50.1474 130.232 50.1661 130.353 50.1661C130.457 50.1661 130.557 50.1483 130.652 50.1137C130.745 50.0782 130.826 50.0187 130.892 49.9352ZM136.633 48.3109V50.857H135.477V49.0622C135.477 48.8873 135.472 48.7389 135.464 48.6164C135.456 48.4929 135.432 48.3935 135.394 48.3171C135.356 48.2407 135.298 48.1839 135.219 48.1493C135.142 48.1146 135.033 48.0969 134.892 48.0969C134.78 48.0969 134.67 48.1199 134.563 48.1661C134.458 48.2123 134.361 48.2603 134.277 48.3109V50.857H133.128V47.2647H134.277V47.6608C134.474 47.5054 134.664 47.3837 134.844 47.2958C135.025 47.2088 135.225 47.1653 135.444 47.1653C135.681 47.1653 135.889 47.2177 136.07 47.3233C136.25 47.429 136.392 47.5844 136.495 47.7887C136.725 47.5951 136.948 47.4423 137.165 47.3313C137.382 47.2212 137.595 47.1653 137.803 47.1653C138.191 47.1653 138.485 47.2816 138.685 47.5134C138.886 47.7461 138.987 48.0809 138.987 48.5178V50.8561H137.831V49.0613C137.831 48.8846 137.828 48.7363 137.82 48.6137C137.813 48.4929 137.79 48.3935 137.752 48.3171C137.716 48.2407 137.658 48.1839 137.58 48.1493C137.501 48.1146 137.391 48.0969 137.248 48.0969C137.152 48.0969 137.058 48.1137 136.967 48.1457C136.877 48.1786 136.765 48.2345 136.633 48.3109ZM141.195 50.857H140.045V47.2647H141.195V50.857ZM141.226 46.7523H140.013V45.8784H141.226V46.7523ZM144.449 49.9201V49.1714C144.295 49.1848 144.126 49.2025 143.945 49.2238C143.764 49.2469 143.627 49.2727 143.533 49.3029C143.419 49.3393 143.33 49.3926 143.271 49.461C143.209 49.5302 143.179 49.6208 143.179 49.7345C143.179 49.8091 143.185 49.8704 143.199 49.9165C143.212 49.9636 143.244 50.008 143.294 50.0506C143.343 50.0933 143.401 50.1244 143.47 50.1448C143.537 50.1652 143.644 50.175 143.789 50.175C143.903 50.175 144.02 50.151 144.139 50.1048C144.257 50.0586 144.36 49.9965 144.449 49.9201ZM144.449 50.476C144.388 50.5231 144.311 50.5799 144.219 50.6465C144.128 50.7123 144.042 50.7647 143.962 50.8029C143.848 50.8544 143.731 50.8925 143.611 50.9165C143.488 50.9414 143.356 50.9538 143.212 50.9538C142.871 50.9538 142.586 50.8481 142.356 50.6377C142.126 50.4254 142.011 50.1563 142.011 49.8286C142.011 49.5658 142.071 49.3517 142.187 49.1857C142.305 49.0187 142.47 48.8881 142.685 48.7913C142.898 48.6963 143.162 48.627 143.477 48.5871C143.792 48.5462 144.118 48.516 144.456 48.4974V48.4778C144.456 48.2798 144.375 48.143 144.213 48.0675C144.052 47.9921 143.814 47.9539 143.498 47.9539C143.309 47.9539 143.108 47.9876 142.893 48.0542C142.677 48.1217 142.524 48.1732 142.43 48.2096H142.324V47.3429C142.446 47.3109 142.643 47.2727 142.917 47.2292C143.189 47.1857 143.464 47.1635 143.738 47.1635C144.391 47.1635 144.864 47.2638 145.153 47.4663C145.444 47.6679 145.589 47.9841 145.589 48.4148V50.8579H144.45C144.449 50.857 144.449 50.476 144.449 50.476ZM152.365 50.857H151.217V50.4823C151.018 50.6448 150.833 50.7638 150.661 50.8401C150.489 50.9183 150.29 50.9556 150.064 50.9556C149.628 50.9556 149.279 50.7878 149.017 50.4503C148.756 50.1128 148.625 49.659 148.625 49.088C148.625 48.7833 148.668 48.5125 148.757 48.2762C148.846 48.04 148.966 47.8384 149.12 47.6706C149.265 47.5116 149.44 47.3864 149.646 47.2985C149.853 47.2106 150.059 47.1653 150.267 47.1653C150.481 47.1653 150.657 47.1883 150.794 47.2336C150.931 47.2798 151.073 47.3375 151.217 47.4086V45.8793H152.366V50.857H152.365ZM151.217 49.8659V48.104C151.135 48.0693 151.05 48.0453 150.96 48.0303C150.871 48.0152 150.789 48.008 150.715 48.008C150.412 48.008 150.186 48.1022 150.035 48.2905C149.884 48.4796 149.809 48.7416 149.809 49.0755C149.809 49.4272 149.869 49.683 149.991 49.8419C150.112 50 150.307 50.0799 150.575 50.0799C150.679 50.0799 150.789 50.0604 150.906 50.0213C151.023 49.9814 151.127 49.929 151.217 49.8659ZM156.979 49.2736H154.349C154.366 49.5551 154.473 49.77 154.67 49.9201C154.866 50.0684 155.156 50.1439 155.54 50.1439C155.782 50.1439 156.017 50.1004 156.245 50.0125C156.473 49.9236 156.652 49.8313 156.785 49.7309H156.913V50.6545C156.652 50.7593 156.409 50.8348 156.179 50.8819C155.949 50.929 155.696 50.9529 155.416 50.9529C154.698 50.9529 154.146 50.7904 153.763 50.4672C153.381 50.143 153.189 49.6812 153.189 49.0817C153.189 48.4885 153.37 48.0196 153.732 47.6715C154.094 47.3251 154.592 47.1519 155.224 47.1519C155.807 47.1519 156.245 47.3002 156.539 47.5951C156.833 47.8908 156.979 48.3153 156.979 48.8704V49.2736H156.979ZM155.836 48.5986C155.831 48.3571 155.771 48.1759 155.657 48.0551C155.545 47.9326 155.37 47.8722 155.131 47.8722C154.91 47.8722 154.728 47.929 154.585 48.0445C154.443 48.159 154.363 48.3437 154.345 48.5977H155.836V48.5986ZM163.891 49.3597C163.891 49.8295 163.693 50.2105 163.295 50.5027C162.898 50.7966 162.36 50.9423 161.68 50.9423C161.286 50.9423 160.943 50.9076 160.65 50.8384C160.357 50.7682 160.084 50.6812 159.828 50.5737V49.4316H159.962C160.215 49.635 160.499 49.7895 160.812 49.8988C161.126 50.008 161.428 50.0613 161.718 50.0613C161.791 50.0613 161.89 50.056 162.011 50.0426C162.133 50.0293 162.231 50.0089 162.308 49.9778C162.402 49.9396 162.478 49.8917 162.539 49.834C162.6 49.7771 162.631 49.6919 162.631 49.5782C162.631 49.4734 162.585 49.3837 162.498 49.3073C162.41 49.2318 162.28 49.1741 162.11 49.1333C161.931 49.0906 161.742 49.0507 161.543 49.0134C161.344 48.9761 161.158 48.9281 160.983 48.8713C160.584 48.7407 160.296 48.564 160.12 48.342C159.944 48.1191 159.856 47.842 159.856 47.5116C159.856 47.0685 160.055 46.707 160.451 46.4264C160.848 46.1457 161.358 46.0063 161.981 46.0063C162.294 46.0063 162.603 46.0356 162.908 46.0969C163.213 46.1582 163.478 46.2345 163.701 46.326V47.4228H163.571C163.379 47.27 163.144 47.1413 162.867 47.0374C162.589 46.9344 162.306 46.882 162.017 46.882C161.914 46.882 161.813 46.8899 161.712 46.9024C161.612 46.9166 161.513 46.9423 161.419 46.9814C161.337 47.0134 161.266 47.0622 161.206 47.1262C161.146 47.1919 161.116 47.2656 161.116 47.3491C161.116 47.4752 161.164 47.572 161.26 47.6386C161.356 47.7061 161.536 47.7674 161.802 47.8233C161.977 47.8597 162.144 47.8944 162.304 47.9281C162.466 47.9628 162.638 48.0098 162.823 48.0693C163.186 48.1892 163.455 48.3517 163.629 48.5569C163.805 48.7638 163.891 49.0311 163.891 49.3597ZM166.837 49.9201V49.1714C166.682 49.1848 166.513 49.2025 166.332 49.2238C166.152 49.2469 166.014 49.2727 165.92 49.3029C165.806 49.3393 165.718 49.3926 165.658 49.461C165.597 49.5302 165.567 49.6208 165.567 49.7345C165.567 49.8091 165.573 49.8704 165.586 49.9165C165.6 49.9636 165.631 50.008 165.682 50.0506C165.731 50.0933 165.788 50.1244 165.858 50.1448C165.925 50.1652 166.032 50.175 166.176 50.175C166.291 50.175 166.408 50.151 166.526 50.1048C166.644 50.0586 166.748 49.9965 166.837 49.9201ZM166.837 50.476C166.775 50.5231 166.698 50.5799 166.607 50.6465C166.516 50.7123 166.43 50.7647 166.349 50.8029C166.236 50.8544 166.119 50.8925 165.998 50.9165C165.876 50.9414 165.743 50.9538 165.6 50.9538C165.259 50.9538 164.973 50.8481 164.744 50.6377C164.513 50.4254 164.399 50.1563 164.399 49.8286C164.399 49.5658 164.458 49.3517 164.575 49.1857C164.692 49.0187 164.858 48.8881 165.072 48.7913C165.285 48.6963 165.549 48.627 165.865 48.5871C166.179 48.5462 166.506 48.516 166.844 48.4974V48.4778C166.844 48.2798 166.763 48.143 166.601 48.0675C166.44 47.9921 166.201 47.9539 165.886 47.9539C165.696 47.9539 165.495 47.9876 165.281 48.0542C165.065 48.1217 164.911 48.1732 164.817 48.2096H164.712V47.3429C164.833 47.3109 165.031 47.2727 165.305 47.2292C165.577 47.1857 165.851 47.1635 166.126 47.1635C166.779 47.1635 167.251 47.2638 167.541 47.4663C167.832 47.6679 167.977 47.9841 167.977 48.4148V50.8579H166.838L166.837 50.476ZM172.633 50.857H171.478V49.0755C171.478 48.9308 171.47 48.786 171.456 48.6421C171.44 48.4983 171.415 48.3926 171.378 48.3242C171.336 48.2443 171.274 48.1874 171.192 48.151C171.111 48.1146 170.997 48.0969 170.849 48.0969C170.745 48.0969 170.64 48.1137 170.532 48.1484C170.424 48.1821 170.308 48.2363 170.182 48.3109V50.857H169.033V47.2647H170.182V47.6608C170.386 47.5018 170.582 47.3784 170.771 47.2931C170.959 47.2079 171.168 47.1661 171.398 47.1661C171.784 47.1661 172.087 47.2798 172.305 47.5054C172.524 47.731 172.633 48.0684 172.633 48.5187V50.857ZM175.981 50.8251C175.857 50.857 175.726 50.8819 175.588 50.9005C175.45 50.9183 175.281 50.9272 175.08 50.9272C174.634 50.9272 174.302 50.8366 174.084 50.6554C173.866 50.4743 173.757 50.1643 173.757 49.7247V48.0453H173.283V47.2647H173.757V46.2381H174.905V47.2647H175.981V48.0453H174.905V49.3189C174.905 49.4441 174.906 49.5551 174.908 49.6483C174.91 49.7425 174.927 49.826 174.959 49.9006C174.988 49.9752 175.041 50.0347 175.117 50.0791C175.192 50.1226 175.303 50.1448 175.446 50.1448C175.507 50.1448 175.584 50.1315 175.682 50.1066C175.779 50.08 175.847 50.0577 175.885 50.0355H175.981C175.981 50.0347 175.981 50.8251 175.981 50.8251ZM178.836 49.9201V49.1714C178.681 49.1848 178.513 49.2025 178.332 49.2238C178.151 49.2469 178.014 49.2727 177.92 49.3029C177.806 49.3393 177.717 49.3926 177.658 49.461C177.597 49.5302 177.567 49.6208 177.567 49.7345C177.567 49.8091 177.573 49.8704 177.586 49.9165C177.599 49.9636 177.63 50.008 177.682 50.0506C177.73 50.0933 177.788 50.1244 177.857 50.1448C177.925 50.1652 178.032 50.175 178.176 50.175C178.29 50.175 178.407 50.151 178.526 50.1048C178.643 50.0586 178.747 49.9965 178.836 49.9201ZM178.836 50.476C178.775 50.5231 178.698 50.5799 178.607 50.6465C178.516 50.7123 178.43 50.7647 178.349 50.8029C178.236 50.8544 178.119 50.8925 177.998 50.9165C177.876 50.9414 177.744 50.9538 177.599 50.9538C177.258 50.9538 176.973 50.8481 176.743 50.6377C176.513 50.4254 176.399 50.1563 176.399 49.8286C176.399 49.5658 176.457 49.3517 176.574 49.1857C176.692 49.0187 176.858 48.8881 177.072 48.7913C177.285 48.6963 177.55 48.627 177.864 48.5871C178.179 48.5462 178.506 48.516 178.843 48.4974V48.4778C178.843 48.2798 178.763 48.143 178.601 48.0675C178.439 47.9921 178.201 47.9539 177.886 47.9539C177.697 47.9539 177.496 47.9876 177.281 48.0542C177.066 48.1217 176.912 48.1732 176.818 48.2096H176.712V47.3429C176.834 47.3109 177.031 47.2727 177.305 47.2292C177.577 47.1857 177.852 47.1635 178.127 47.1635C178.78 47.1635 179.252 47.2638 179.542 47.4663C179.832 47.6679 179.977 47.9841 179.977 48.4148V50.8579H178.838L178.836 50.476ZM185.478 50.9494C185.125 50.9494 184.799 50.897 184.5 50.7922C184.201 50.6883 183.944 50.532 183.73 50.3259C183.515 50.119 183.349 49.8606 183.23 49.5524C183.112 49.2425 183.054 48.8855 183.054 48.4805C183.054 48.104 183.111 47.7612 183.222 47.4539C183.336 47.1466 183.499 46.8828 183.713 46.6635C183.92 46.453 184.176 46.2887 184.481 46.1742C184.786 46.0587 185.119 46.0019 185.481 46.0019C185.681 46.0019 185.861 46.0125 186.022 46.0347C186.182 46.0578 186.331 46.0871 186.468 46.1226C186.61 46.1626 186.739 46.2088 186.854 46.2594C186.971 46.3083 187.072 46.3553 187.159 46.398V47.5534H187.018C186.96 47.5018 186.884 47.4406 186.794 47.3704C186.703 47.2994 186.601 47.231 186.485 47.1617C186.369 47.0942 186.242 47.0365 186.105 46.9894C185.969 46.9423 185.824 46.9193 185.669 46.9193C185.497 46.9193 185.333 46.945 185.177 47.0001C185.021 47.0542 184.878 47.1448 184.745 47.2709C184.619 47.3917 184.518 47.5542 184.441 47.7541C184.363 47.9548 184.325 48.1972 184.325 48.4832C184.325 48.7825 184.367 49.0311 184.45 49.2318C184.535 49.4316 184.641 49.5897 184.768 49.7043C184.898 49.8224 185.043 49.905 185.202 49.9556C185.362 50.0062 185.519 50.0311 185.675 50.0311C185.824 50.0311 185.971 50.0089 186.117 49.9645C186.263 49.9201 186.397 49.8588 186.52 49.7824C186.625 49.7203 186.721 49.6537 186.811 49.5835C186.9 49.5134 186.973 49.4521 187.03 49.4006H187.158V50.5391C187.039 50.5924 186.925 50.643 186.817 50.6901C186.708 50.7371 186.594 50.7771 186.475 50.8108C186.321 50.8552 186.174 50.8899 186.038 50.9139C185.903 50.9378 185.716 50.9494 185.478 50.9494ZM190.166 49.9201V49.1714C190.012 49.1848 189.843 49.2025 189.662 49.2238C189.481 49.2469 189.344 49.2727 189.25 49.3029C189.136 49.3393 189.047 49.3926 188.988 49.461C188.927 49.5302 188.896 49.6208 188.896 49.7345C188.896 49.8091 188.903 49.8704 188.916 49.9165C188.929 49.9636 188.961 50.008 189.012 50.0506C189.06 50.0933 189.118 50.1244 189.187 50.1448C189.254 50.1652 189.362 50.175 189.506 50.175C189.62 50.175 189.737 50.151 189.856 50.1048C189.973 50.0586 190.077 49.9965 190.166 49.9201ZM190.166 50.476C190.105 50.5231 190.028 50.5799 189.937 50.6465C189.845 50.7123 189.759 50.7647 189.679 50.8029C189.565 50.8544 189.448 50.8925 189.328 50.9165C189.206 50.9414 189.073 50.9538 188.929 50.9538C188.588 50.9538 188.303 50.8481 188.073 50.6377C187.843 50.4254 187.729 50.1563 187.729 49.8286C187.729 49.5658 187.788 49.3517 187.904 49.1857C188.022 49.0187 188.188 48.8881 188.402 48.7913C188.615 48.6963 188.879 48.627 189.194 48.5871C189.509 48.5462 189.836 48.516 190.173 48.4974V48.4778C190.173 48.2798 190.093 48.143 189.93 48.0675C189.769 47.9921 189.531 47.9539 189.215 47.9539C189.026 47.9539 188.825 47.9876 188.61 48.0542C188.394 48.1217 188.241 48.1732 188.147 48.2096H188.041V47.3429C188.163 47.3109 188.36 47.2727 188.634 47.2292C188.906 47.1857 189.181 47.1635 189.455 47.1635C190.109 47.1635 190.581 47.2638 190.871 47.4663C191.161 47.6679 191.306 47.9841 191.306 48.4148V50.8579H190.167L190.166 50.476ZM194.654 50.8251C194.53 50.857 194.4 50.8819 194.261 50.9005C194.123 50.9183 193.954 50.9272 193.754 50.9272C193.307 50.9272 192.975 50.8366 192.757 50.6554C192.539 50.4743 192.43 50.1643 192.43 49.7247V48.0453H191.958V47.2647H192.43V46.2381H193.578V47.2647H194.654V48.0453H193.578V49.3189C193.578 49.4441 193.579 49.5551 193.582 49.6483C193.584 49.7425 193.601 49.826 193.633 49.9006C193.662 49.9752 193.716 50.0347 193.791 50.0791C193.866 50.1226 193.977 50.1448 194.121 50.1448C194.181 50.1448 194.259 50.1315 194.356 50.1066C194.453 50.08 194.521 50.0577 194.559 50.0355H194.655L194.654 50.8251ZM197.51 49.9201V49.1714C197.355 49.1848 197.186 49.2025 197.005 49.2238C196.825 49.2469 196.687 49.2727 196.593 49.3029C196.479 49.3393 196.391 49.3926 196.331 49.461C196.27 49.5302 196.24 49.6208 196.24 49.7345C196.24 49.8091 196.246 49.8704 196.259 49.9165C196.273 49.9636 196.304 50.008 196.355 50.0506C196.404 50.0933 196.461 50.1244 196.531 50.1448C196.598 50.1652 196.705 50.175 196.85 50.175C196.964 50.175 197.081 50.151 197.2 50.1048C197.316 50.0586 197.42 49.9965 197.51 49.9201ZM197.51 50.476C197.448 50.5231 197.371 50.5799 197.279 50.6465C197.188 50.7123 197.102 50.7647 197.021 50.8029C196.908 50.8544 196.792 50.8925 196.671 50.9165C196.548 50.9414 196.416 50.9538 196.272 50.9538C195.931 50.9538 195.645 50.8481 195.416 50.6377C195.186 50.4254 195.071 50.1563 195.071 49.8286C195.071 49.5658 195.13 49.3517 195.247 49.1857C195.365 49.0187 195.53 48.8881 195.745 48.7913C195.957 48.6963 196.222 48.627 196.537 48.5871C196.851 48.5462 197.178 48.516 197.516 48.4974V48.4778C197.516 48.2798 197.435 48.143 197.273 48.0675C197.112 47.9921 196.873 47.9539 196.558 47.9539C196.368 47.9539 196.167 47.9876 195.953 48.0542C195.738 48.1217 195.583 48.1732 195.489 48.2096H195.384V47.3429C195.505 47.3109 195.703 47.2727 195.977 47.2292C196.249 47.1857 196.523 47.1635 196.798 47.1635C197.452 47.1635 197.923 47.2638 198.213 47.4663C198.504 47.6679 198.649 47.9841 198.649 48.4148V50.8579H197.51V50.476ZM202.303 48.3615H202.2C202.152 48.3437 202.073 48.3313 201.964 48.3233C201.856 48.3144 201.765 48.31 201.693 48.31C201.53 48.31 201.384 48.3207 201.259 48.342C201.134 48.3642 200.999 48.3997 200.854 48.4512V50.8561H199.705V47.2647H200.854V47.7922C201.107 47.5747 201.327 47.4308 201.515 47.3589C201.702 47.2878 201.874 47.2523 202.032 47.2523C202.072 47.2523 202.118 47.2532 202.169 47.2558C202.221 47.2576 202.265 47.2612 202.303 47.2656C202.303 47.2647 202.303 48.3615 202.303 48.3615ZM204.103 50.857H202.953V47.2647H204.103V50.857ZM204.135 46.7523H202.922V45.8784H204.135V46.7523ZM208.788 50.857H207.633V49.0755C207.633 48.9308 207.625 48.786 207.611 48.6421C207.595 48.4983 207.571 48.3926 207.533 48.3242C207.491 48.2443 207.429 48.1874 207.347 48.151C207.266 48.1146 207.152 48.0969 207.004 48.0969C206.9 48.0969 206.794 48.1137 206.687 48.1484C206.579 48.1821 206.463 48.2363 206.338 48.3109V50.857H205.189V47.2647H206.338V47.6608C206.542 47.5018 206.738 47.3784 206.926 47.2931C207.115 47.2079 207.324 47.1661 207.554 47.1661C207.94 47.1661 208.243 47.2798 208.461 47.5054C208.68 47.731 208.789 48.0684 208.789 48.5187L208.788 50.857Z" fill="#FEFEFE"/>
<path fill-rule="evenodd" clip-rule="evenodd" d="M212.013 49.9202V49.1715C211.858 49.1849 211.69 49.2026 211.509 49.2239C211.328 49.247 211.191 49.2728 211.097 49.303C210.983 49.3394 210.894 49.3927 210.835 49.461C210.774 49.5303 210.744 49.6209 210.744 49.7346C210.744 49.8092 210.75 49.8705 210.763 49.9166C210.776 49.9637 210.807 50.0081 210.859 50.0507C210.908 50.0934 210.965 50.1244 211.034 50.1449C211.102 50.1653 211.209 50.1751 211.353 50.1751C211.468 50.1751 211.585 50.1511 211.703 50.1049C211.821 50.0587 211.924 49.9966 212.013 49.9202ZM212.013 50.4761C211.952 50.5232 211.875 50.58 211.784 50.6466C211.693 50.7124 211.607 50.7648 211.526 50.8029C211.413 50.8545 211.296 50.8926 211.175 50.9166C211.053 50.9415 210.92 50.9539 210.776 50.9539C210.435 50.9539 210.15 50.8482 209.921 50.6378C209.69 50.4255 209.576 50.1564 209.576 49.8287C209.576 49.5658 209.634 49.3518 209.751 49.1857C209.869 49.0188 210.034 48.8882 210.249 48.7914C210.462 48.6964 210.727 48.6271 211.041 48.5872C211.356 48.5463 211.683 48.5161 212.02 48.4975V48.4779C212.02 48.2799 211.94 48.1431 211.778 48.0676C211.616 47.9922 211.378 47.954 211.063 47.954C210.873 47.954 210.672 47.9877 210.457 48.0543C210.242 48.1218 210.088 48.1733 209.995 48.2097H209.89V47.343C210.011 47.311 210.208 47.2728 210.482 47.2293C210.754 47.1858 211.029 47.1636 211.304 47.1636C211.958 47.1636 212.429 47.2639 212.719 47.4664C213.009 47.668 213.155 47.9842 213.155 48.4149V50.858H212.015L212.013 50.4761Z" fill="#FEFEFE"/>
<path fill-rule="evenodd" clip-rule="evenodd" d="M12 0H63.6997V48.041C63.6997 49.7701 62.2865 51.1865 60.5613 51.1865H40.675C39.369 51.1865 38.4705 52.1306 37.9061 54C37.3701 52.3943 36.5779 51.1794 34.9866 51.1865H15.1401C13.4141 51.1865 12.0009 49.7709 12.0009 48.041C12 48.041 12 0 12 0ZM63.0237 0.671392V48.0045C63.0237 49.3899 61.8913 50.5249 60.5082 50.5249H40.6413C39.3433 50.5258 38.1551 51.5071 37.9114 52.5391C37.5925 51.5036 36.3449 50.5427 35.1319 50.5249H15.1889C13.8066 50.5249 12.6743 49.3908 12.6743 48.0045V0.671392H63.0237Z" fill="#FEFEFE"/>
</svg>
